<?xml version="1.0" encoding="UTF-8" standalone="no"?>
<!DOCTYPE svg PUBLIC "-//W3C//DTD SVG 1.1//EN"
 "http://www.w3.org/Graphics/SVG/1.1/DTD/svg11.dtd">
<!-- Generated by graphviz version 6.0.1 (20220911.2005)
 -->
<!-- Title: snakemake_dag Pages: 1 -->
<svg width="1516pt" height="1196pt"
 viewBox="0.00 0.00 1515.60 1196.00" xmlns="http://www.w3.org/2000/svg" xmlns:xlink="http://www.w3.org/1999/xlink">
<g id="graph0" class="graph" transform="scale(1 1) rotate(0) translate(4 1192)">
<title>snakemake_dag</title>
<polygon fill="white" stroke="none" points="-4,4 -4,-1192 1511.6,-1192 1511.6,4 -4,4"/>
<!-- 0 -->
<g id="node1" class="node">
<title>0</title>
<path fill="none" stroke="#68d856" stroke-width="2" d="M1109.6,-36C1109.6,-36 1079.6,-36 1079.6,-36 1073.6,-36 1067.6,-30 1067.6,-24 1067.6,-24 1067.6,-12 1067.6,-12 1067.6,-6 1073.6,0 1079.6,0 1079.6,0 1109.6,0 1109.6,0 1115.6,0 1121.6,-6 1121.6,-12 1121.6,-12 1121.6,-24 1121.6,-24 1121.6,-30 1115.6,-36 1109.6,-36"/>
<text text-anchor="middle" x="1094.6" y="-15.5" font-family="sans" font-size="10.00">all</text>
</g>
<!-- 1 -->
<g id="node2" class="node">
<title>1</title>
<path fill="none" stroke="#56d86b" stroke-width="2" d="M911.6,-828C911.6,-828 851.6,-828 851.6,-828 845.6,-828 839.6,-822 839.6,-816 839.6,-816 839.6,-804 839.6,-804 839.6,-798 845.6,-792 851.6,-792 851.6,-792 911.6,-792 911.6,-792 917.6,-792 923.6,-798 923.6,-804 923.6,-804 923.6,-816 923.6,-816 923.6,-822 917.6,-828 911.6,-828"/>
<text text-anchor="middle" x="881.6" y="-807.5" font-family="sans" font-size="10.00">variant_counts</text>
</g>
<!-- 1&#45;&gt;0 -->
<g id="edge1" class="edge">
<title>1&#45;&gt;0</title>
<path fill="none" stroke="grey" stroke-width="2" d="M923.98,-805.5C966.56,-800.28 1032.6,-787.43 1080.6,-756 1274.5,-629.06 1329.15,-551.64 1372.6,-324 1394.77,-207.9 1387.75,-134.78 1287.6,-72 1238.99,-41.52 1172.79,-28.31 1131.92,-22.77"/>
<polygon fill="grey" stroke="grey" stroke-width="2" points="1132.21,-19.28 1121.85,-21.49 1131.33,-26.23 1132.21,-19.28"/>
</g>
<!-- 10 -->
<g id="node11" class="node">
<title>10</title>
<path fill="none" stroke="#80d856" stroke-width="2" d="M1059.1,-756C1059.1,-756 960.1,-756 960.1,-756 954.1,-756 948.1,-750 948.1,-744 948.1,-744 948.1,-732 948.1,-732 948.1,-726 954.1,-720 960.1,-720 960.1,-720 1059.1,-720 1059.1,-720 1065.1,-720 1071.1,-726 1071.1,-732 1071.1,-732 1071.1,-744 1071.1,-744 1071.1,-750 1065.1,-756 1059.1,-756"/>
<text text-anchor="middle" x="1009.6" y="-735.5" font-family="sans" font-size="10.00">analyze_variant_counts</text>
</g>
<!-- 1&#45;&gt;10 -->
<g id="edge18" class="edge">
<title>1&#45;&gt;10</title>
<path fill="none" stroke="grey" stroke-width="2" d="M912.92,-791.88C929.81,-782.64 950.85,-771.13 968.99,-761.21"/>
<polygon fill="grey" stroke="grey" stroke-width="2" points="971.08,-764.06 978.17,-756.19 967.72,-757.92 971.08,-764.06"/>
</g>
<!-- 14 -->
<g id="node15" class="node">
<title>14</title>
<path fill="none" stroke="#566bd8" stroke-width="2" d="M661.1,-612C661.1,-612 614.1,-612 614.1,-612 608.1,-612 602.1,-606 602.1,-600 602.1,-600 602.1,-588 602.1,-588 602.1,-582 608.1,-576 614.1,-576 614.1,-576 661.1,-576 661.1,-576 667.1,-576 673.1,-582 673.1,-588 673.1,-588 673.1,-600 673.1,-600 673.1,-606 667.1,-612 661.1,-612"/>
<text text-anchor="middle" x="637.6" y="-591.5" font-family="sans" font-size="10.00">func_scores</text>
</g>
<!-- 1&#45;&gt;14 -->
<g id="edge29" class="edge">
<title>1&#45;&gt;14</title>
<path fill="none" stroke="grey" stroke-width="2" d="M847.5,-791.83C807.51,-770.5 740.81,-731.12 694.6,-684 676.36,-665.4 660.82,-640.05 650.59,-621.16"/>
<polygon fill="grey" stroke="grey" stroke-width="2" points="653.63,-619.42 645.88,-612.2 647.44,-622.68 653.63,-619.42"/>
</g>
<!-- 16 -->
<g id="node17" class="node">
<title>16</title>
<path fill="none" stroke="#d89556" stroke-width="2" d="M443.1,-612C443.1,-612 392.1,-612 392.1,-612 386.1,-612 380.1,-606 380.1,-600 380.1,-600 380.1,-588 380.1,-588 380.1,-582 386.1,-576 392.1,-576 392.1,-576 443.1,-576 443.1,-576 449.1,-576 455.1,-582 455.1,-588 455.1,-588 455.1,-600 455.1,-600 455.1,-606 449.1,-612 443.1,-612"/>
<text text-anchor="middle" x="417.6" y="-591.5" font-family="sans" font-size="10.00">prob_escape</text>
</g>
<!-- 1&#45;&gt;16 -->
<g id="edge36" class="edge">
<title>1&#45;&gt;16</title>
<path fill="none" stroke="grey" stroke-width="2" d="M839.29,-795.59C809.15,-785.64 767.9,-771.22 732.6,-756 630.62,-712.02 515.55,-649.85 456.76,-617.12"/>
<polygon fill="grey" stroke="grey" stroke-width="2" points="458.25,-613.95 447.82,-612.13 454.84,-620.06 458.25,-613.95"/>
</g>
<!-- 17 -->
<g id="node18" class="node">
<title>17</title>
<path fill="none" stroke="#56a9d8" stroke-width="2" d="M1119.6,-108C1119.6,-108 1069.6,-108 1069.6,-108 1063.6,-108 1057.6,-102 1057.6,-96 1057.6,-96 1057.6,-84 1057.6,-84 1057.6,-78 1063.6,-72 1069.6,-72 1069.6,-72 1119.6,-72 1119.6,-72 1125.6,-72 1131.6,-78 1131.6,-84 1131.6,-84 1131.6,-96 1131.6,-96 1131.6,-102 1125.6,-108 1119.6,-108"/>
<text text-anchor="middle" x="1094.6" y="-87.5" font-family="sans" font-size="10.00">sphinx_build</text>
</g>
<!-- 1&#45;&gt;17 -->
<g id="edge41" class="edge">
<title>1&#45;&gt;17</title>
<path fill="none" stroke="grey" stroke-width="2" d="M892.3,-791.74C941.94,-711.24 1148.71,-371.61 1178.6,-252 1184,-230.4 1176.65,-149.27 1173.6,-144 1165.94,-130.76 1153.48,-120.16 1140.7,-112.03"/>
<polygon fill="grey" stroke="grey" stroke-width="2" points="1142.24,-108.87 1131.85,-106.79 1138.68,-114.9 1142.24,-108.87"/>
</g>
<!-- 23 -->
<g id="node24" class="node">
<title>23</title>
<path fill="none" stroke="#b6d856" stroke-width="2" d="M783.1,-180C783.1,-180 740.1,-180 740.1,-180 734.1,-180 728.1,-174 728.1,-168 728.1,-168 728.1,-156 728.1,-156 728.1,-150 734.1,-144 740.1,-144 740.1,-144 783.1,-144 783.1,-144 789.1,-144 795.1,-150 795.1,-156 795.1,-156 795.1,-168 795.1,-168 795.1,-174 789.1,-180 783.1,-180"/>
<text text-anchor="middle" x="761.6" y="-159.5" font-family="sans" font-size="10.00">docs_index</text>
</g>
<!-- 1&#45;&gt;23 -->
<g id="edge71" class="edge">
<title>1&#45;&gt;23</title>
<path fill="none" stroke="grey" stroke-width="2" d="M882.23,-791.98C883.05,-762.51 883.65,-700.1 876.6,-648 852.33,-468.54 820.85,-428.57 780.6,-252 775.89,-231.33 770.9,-207.89 767.22,-190.25"/>
<polygon fill="grey" stroke="grey" stroke-width="2" points="770.57,-189.17 765.11,-180.09 763.72,-190.6 770.57,-189.17"/>
</g>
<!-- 2 -->
<g id="node3" class="node">
<title>2</title>
<path fill="none" stroke="#567bd8" stroke-width="2" d="M969.1,-900C969.1,-900 904.1,-900 904.1,-900 898.1,-900 892.1,-894 892.1,-888 892.1,-888 892.1,-876 892.1,-876 892.1,-870 898.1,-864 904.1,-864 904.1,-864 969.1,-864 969.1,-864 975.1,-864 981.1,-870 981.1,-876 981.1,-876 981.1,-888 981.1,-888 981.1,-894 975.1,-900 969.1,-900"/>
<text text-anchor="middle" x="936.6" y="-879.5" font-family="sans" font-size="10.00">count_barcodes</text>
</g>
<!-- 2&#45;&gt;1 -->
<g id="edge6" class="edge">
<title>2&#45;&gt;1</title>
<path fill="none" stroke="grey" stroke-width="2" d="M923.01,-863.7C916.48,-855.39 908.54,-845.28 901.36,-836.14"/>
<polygon fill="grey" stroke="grey" stroke-width="2" points="903.97,-833.81 895.04,-828.1 898.47,-838.13 903.97,-833.81"/>
</g>
<!-- 2&#45;&gt;10 -->
<g id="edge21" class="edge">
<title>2&#45;&gt;10</title>
<path fill="none" stroke="grey" stroke-width="2" d="M945.41,-863.87C958.02,-839.35 981.31,-794.03 996.11,-765.26"/>
<polygon fill="grey" stroke="grey" stroke-width="2" points="999.31,-766.68 1000.77,-756.19 993.08,-763.48 999.31,-766.68"/>
</g>
<!-- 3 -->
<g id="node4" class="node">
<title>3</title>
<path fill="none" stroke="#56d87b" stroke-width="2" d="M932.1,-972C932.1,-972 843.1,-972 843.1,-972 837.1,-972 831.1,-966 831.1,-960 831.1,-960 831.1,-948 831.1,-948 831.1,-942 837.1,-936 843.1,-936 843.1,-936 932.1,-936 932.1,-936 938.1,-936 944.1,-942 944.1,-948 944.1,-948 944.1,-960 944.1,-960 944.1,-966 938.1,-972 932.1,-972"/>
<text text-anchor="middle" x="887.6" y="-951.5" font-family="sans" font-size="10.00">build_codon_variants</text>
</g>
<!-- 3&#45;&gt;1 -->
<g id="edge8" class="edge">
<title>3&#45;&gt;1</title>
<path fill="none" stroke="grey" stroke-width="2" d="M886.08,-935.83C885.21,-925.46 884.19,-911.98 883.6,-900 882.59,-879.29 882.09,-855.84 881.84,-838.22"/>
<polygon fill="grey" stroke="grey" stroke-width="2" points="885.34,-838.03 881.72,-828.07 878.34,-838.11 885.34,-838.03"/>
</g>
<!-- 3&#45;&gt;2 -->
<g id="edge9" class="edge">
<title>3&#45;&gt;2</title>
<path fill="none" stroke="grey" stroke-width="2" d="M899.72,-935.7C905.47,-927.47 912.47,-917.48 918.81,-908.42"/>
<polygon fill="grey" stroke="grey" stroke-width="2" points="921.76,-910.3 924.63,-900.1 916.03,-906.29 921.76,-910.3"/>
</g>
<!-- 3&#45;&gt;10 -->
<g id="edge19" class="edge">
<title>3&#45;&gt;10</title>
<path fill="none" stroke="grey" stroke-width="2" d="M943.77,-935.98C961.46,-927.87 979.31,-916.28 990.6,-900 1018.25,-860.14 1017.29,-800.98 1013.7,-766.57"/>
<polygon fill="grey" stroke="grey" stroke-width="2" points="1017.14,-765.84 1012.48,-756.32 1010.19,-766.67 1017.14,-765.84"/>
</g>
<!-- 3&#45;&gt;14 -->
<g id="edge32" class="edge">
<title>3&#45;&gt;14</title>
<path fill="none" stroke="grey" stroke-width="2" d="M868.49,-935.78C825.31,-895.83 719.54,-791.98 662.6,-684 652.34,-664.54 645.9,-640.4 642.13,-622.17"/>
<polygon fill="grey" stroke="grey" stroke-width="2" points="645.54,-621.36 640.21,-612.2 638.67,-622.68 645.54,-621.36"/>
</g>
<!-- 3&#45;&gt;16 -->
<g id="edge39" class="edge">
<title>3&#45;&gt;16</title>
<path fill="none" stroke="grey" stroke-width="2" d="M830.92,-946.71C763.8,-938.41 656.92,-922.18 623.6,-900 517.02,-829.03 451.07,-682.26 427.45,-621.86"/>
<polygon fill="grey" stroke="grey" stroke-width="2" points="430.62,-620.36 423.78,-612.28 424.09,-622.87 430.62,-620.36"/>
</g>
<!-- 3&#45;&gt;17 -->
<g id="edge42" class="edge">
<title>3&#45;&gt;17</title>
<path fill="none" stroke="grey" stroke-width="2" d="M944.5,-948.91C984.94,-943.36 1038.46,-930.37 1075.6,-900 1103.46,-877.23 1097.89,-860.83 1112.6,-828 1137.99,-771.38 1313.6,-369.05 1313.6,-307 1313.6,-307 1313.6,-307 1313.6,-233 1313.6,-189.99 1307.77,-172.56 1275.6,-144 1238.44,-111 1181.72,-98.5 1141.69,-93.79"/>
<polygon fill="grey" stroke="grey" stroke-width="2" points="1141.96,-90.3 1131.64,-92.73 1141.22,-97.26 1141.96,-90.3"/>
</g>
<!-- 21 -->
<g id="node22" class="node">
<title>21</title>
<path fill="none" stroke="#d8bc56" stroke-width="2" d="M951.6,-324C951.6,-324 901.6,-324 901.6,-324 895.6,-324 889.6,-318 889.6,-312 889.6,-312 889.6,-300 889.6,-300 889.6,-294 895.6,-288 901.6,-288 901.6,-288 951.6,-288 951.6,-288 957.6,-288 963.6,-294 963.6,-300 963.6,-300 963.6,-312 963.6,-312 963.6,-318 957.6,-324 951.6,-324"/>
<text text-anchor="middle" x="926.6" y="-303.5" font-family="sans" font-size="10.00">make_nblink</text>
</g>
<!-- 3&#45;&gt;21 -->
<g id="edge61" class="edge">
<title>3&#45;&gt;21</title>
<path fill="none" stroke="grey" stroke-width="2" d="M944.14,-940.96C1006.94,-923.88 1099.6,-885.98 1099.6,-811 1099.6,-811 1099.6,-811 1099.6,-737 1099.6,-641.69 1085.6,-618.31 1085.6,-523 1085.6,-523 1085.6,-523 1085.6,-449 1085.6,-388.23 1020.2,-347 973.29,-325.24"/>
<polygon fill="grey" stroke="grey" stroke-width="2" points="974.44,-321.93 963.88,-321.02 971.57,-328.31 974.44,-321.93"/>
</g>
<!-- 3&#45;&gt;23 -->
<g id="edge72" class="edge">
<title>3&#45;&gt;23</title>
<path fill="none" stroke="grey" stroke-width="2" d="M850.06,-935.92C831.77,-926.66 810.02,-914.21 792.6,-900 672.06,-801.64 634.98,-761.98 593.6,-612 570.02,-526.53 702.07,-272.31 747.02,-189.44"/>
<polygon fill="grey" stroke="grey" stroke-width="2" points="750.22,-190.88 751.94,-180.42 744.08,-187.53 750.22,-190.88"/>
</g>
<!-- 4 -->
<g id="node5" class="node">
<title>4</title>
<path fill="none" stroke="#8fd856" stroke-width="2" d="M1333.6,-1044C1333.6,-1044 1231.6,-1044 1231.6,-1044 1225.6,-1044 1219.6,-1038 1219.6,-1032 1219.6,-1032 1219.6,-1020 1219.6,-1020 1219.6,-1014 1225.6,-1008 1231.6,-1008 1231.6,-1008 1333.6,-1008 1333.6,-1008 1339.6,-1008 1345.6,-1014 1345.6,-1020 1345.6,-1020 1345.6,-1032 1345.6,-1032 1345.6,-1038 1339.6,-1044 1333.6,-1044"/>
<text text-anchor="middle" x="1282.6" y="-1023.5" font-family="sans" font-size="10.00">build_pacbio_consensus</text>
</g>
<!-- 4&#45;&gt;3 -->
<g id="edge10" class="edge">
<title>4&#45;&gt;3</title>
<path fill="none" stroke="grey" stroke-width="2" d="M1219.58,-1013.83C1147.08,-1000.98 1028.55,-979.98 954.47,-966.85"/>
<polygon fill="grey" stroke="grey" stroke-width="2" points="954.78,-963.35 944.32,-965.05 953.56,-970.24 954.78,-963.35"/>
</g>
<!-- 4&#45;&gt;17 -->
<g id="edge54" class="edge">
<title>4&#45;&gt;17</title>
<path fill="none" stroke="grey" stroke-width="2" d="M1297.24,-1007.93C1317.49,-982.5 1351.6,-932.34 1351.6,-883 1351.6,-883 1351.6,-883 1351.6,-665 1351.6,-432.46 1473.96,-302.28 1303.6,-144 1259.63,-103.14 1188.73,-92.67 1141.9,-90.56"/>
<polygon fill="grey" stroke="grey" stroke-width="2" points="1141.82,-87.05 1131.71,-90.21 1141.58,-94.05 1141.82,-87.05"/>
</g>
<!-- 4&#45;&gt;21 -->
<g id="edge68" class="edge">
<title>4&#45;&gt;21</title>
<path fill="none" stroke="grey" stroke-width="2" d="M1288.88,-1007.78C1297.94,-981.32 1313.6,-928.92 1313.6,-883 1313.6,-883 1313.6,-883 1313.6,-665 1313.6,-489.73 1205.58,-462.79 1063.6,-360 1036.65,-340.49 1001.59,-327.1 973.68,-318.66"/>
<polygon fill="grey" stroke="grey" stroke-width="2" points="974.33,-315.2 963.75,-315.77 972.37,-321.92 974.33,-315.2"/>
</g>
<!-- 4&#45;&gt;23 -->
<g id="edge83" class="edge">
<title>4&#45;&gt;23</title>
<path fill="none" stroke="grey" stroke-width="2" d="M1281.38,-1007.99C1274.73,-926.66 1236.5,-572.69 1063.6,-360 1047.34,-339.99 903.69,-229.32 881.6,-216 857.26,-201.32 828.14,-188.36 804.67,-178.93"/>
<polygon fill="grey" stroke="grey" stroke-width="2" points="805.91,-175.65 795.32,-175.23 803.34,-182.16 805.91,-175.65"/>
</g>
<!-- 5 -->
<g id="node6" class="node">
<title>5</title>
<path fill="none" stroke="#56b9d8" stroke-width="2" d="M1486.6,-1116C1486.6,-1116 1406.6,-1116 1406.6,-1116 1400.6,-1116 1394.6,-1110 1394.6,-1104 1394.6,-1104 1394.6,-1092 1394.6,-1092 1394.6,-1086 1400.6,-1080 1406.6,-1080 1406.6,-1080 1486.6,-1080 1486.6,-1080 1492.6,-1080 1498.6,-1086 1498.6,-1092 1498.6,-1092 1498.6,-1104 1498.6,-1104 1498.6,-1110 1492.6,-1116 1486.6,-1116"/>
<text text-anchor="middle" x="1446.6" y="-1095.5" font-family="sans" font-size="10.00">analyze_pacbio_ccs</text>
</g>
<!-- 5&#45;&gt;4 -->
<g id="edge13" class="edge">
<title>5&#45;&gt;4</title>
<path fill="none" stroke="grey" stroke-width="2" d="M1406.49,-1079.88C1383.97,-1070.26 1355.69,-1058.19 1331.83,-1048.01"/>
<polygon fill="grey" stroke="grey" stroke-width="2" points="1333.16,-1044.77 1322.59,-1044.07 1330.42,-1051.21 1333.16,-1044.77"/>
</g>
<!-- 5&#45;&gt;17 -->
<g id="edge45" class="edge">
<title>5&#45;&gt;17</title>
<path fill="none" stroke="grey" stroke-width="2" d="M1458.42,-1079.96C1475.11,-1054.16 1503.6,-1003.08 1503.6,-955 1503.6,-955 1503.6,-955 1503.6,-233 1503.6,-172.16 1454.65,-169.91 1399.6,-144 1314.79,-104.08 1203.98,-93.95 1141.96,-91.55"/>
<polygon fill="grey" stroke="grey" stroke-width="2" points="1141.81,-88.05 1131.7,-91.21 1141.57,-95.04 1141.81,-88.05"/>
</g>
<!-- 5&#45;&gt;21 -->
<g id="edge63" class="edge">
<title>5&#45;&gt;21</title>
<path fill="none" stroke="grey" stroke-width="2" d="M1450.45,-1079.61C1456,-1052.94 1465.6,-1000.27 1465.6,-955 1465.6,-955 1465.6,-955 1465.6,-809 1465.6,-606.71 1368.61,-558.31 1210.6,-432 1165.26,-395.75 1154.16,-384.67 1101.6,-360 1060.1,-340.52 1009.73,-326.15 973.71,-317.32"/>
<polygon fill="grey" stroke="grey" stroke-width="2" points="974.49,-313.91 963.95,-314.98 972.85,-320.72 974.49,-313.91"/>
</g>
<!-- 5&#45;&gt;23 -->
<g id="edge75" class="edge">
<title>5&#45;&gt;23</title>
<path fill="none" stroke="grey" stroke-width="2" d="M1442.76,-1079.61C1437.21,-1052.94 1427.6,-1000.27 1427.6,-955 1427.6,-955 1427.6,-955 1427.6,-809 1427.6,-667.67 1414.11,-622.84 1337.6,-504 1244.99,-360.15 1173.4,-366.86 1046.6,-252 1029.36,-236.38 1029.19,-226.84 1008.6,-216 943.08,-181.48 856.53,-169.44 805.2,-165.24"/>
<polygon fill="grey" stroke="grey" stroke-width="2" points="805.34,-161.74 795.11,-164.48 804.82,-168.72 805.34,-161.74"/>
</g>
<!-- 6 -->
<g id="node7" class="node">
<title>6</title>
<path fill="none" stroke="#d86e56" stroke-width="2" d="M1495.6,-1188C1495.6,-1188 1397.6,-1188 1397.6,-1188 1391.6,-1188 1385.6,-1182 1385.6,-1176 1385.6,-1176 1385.6,-1164 1385.6,-1164 1385.6,-1158 1391.6,-1152 1397.6,-1152 1397.6,-1152 1495.6,-1152 1495.6,-1152 1501.6,-1152 1507.6,-1158 1507.6,-1164 1507.6,-1164 1507.6,-1176 1507.6,-1176 1507.6,-1182 1501.6,-1188 1495.6,-1188"/>
<text text-anchor="middle" x="1446.6" y="-1167.5" font-family="sans" font-size="10.00">align_parse_PacBio_ccs</text>
</g>
<!-- 6&#45;&gt;5 -->
<g id="edge15" class="edge">
<title>6&#45;&gt;5</title>
<path fill="none" stroke="grey" stroke-width="2" d="M1446.6,-1151.7C1446.6,-1143.98 1446.6,-1134.71 1446.6,-1126.11"/>
<polygon fill="grey" stroke="grey" stroke-width="2" points="1450.11,-1126.1 1446.6,-1116.1 1443.11,-1126.1 1450.11,-1126.1"/>
</g>
<!-- 7 -->
<g id="node8" class="node">
<title>7</title>
<path fill="none" stroke="#59d856" stroke-width="2" d="M835.6,-1116C835.6,-1116 769.6,-1116 769.6,-1116 763.6,-1116 757.6,-1110 757.6,-1104 757.6,-1104 757.6,-1092 757.6,-1092 757.6,-1086 763.6,-1080 769.6,-1080 769.6,-1080 835.6,-1080 835.6,-1080 841.6,-1080 847.6,-1086 847.6,-1092 847.6,-1092 847.6,-1104 847.6,-1104 847.6,-1110 841.6,-1116 835.6,-1116"/>
<text text-anchor="middle" x="802.6" y="-1095.5" font-family="sans" font-size="10.00">gene_sequence</text>
</g>
<!-- 7&#45;&gt;1 -->
<g id="edge7" class="edge">
<title>7&#45;&gt;1</title>
<path fill="none" stroke="grey" stroke-width="2" d="M802.97,-1079.72C803.98,-1049.85 807.85,-986.86 822.6,-936 833.04,-900.03 852.68,-861.46 866.42,-836.83"/>
<polygon fill="grey" stroke="grey" stroke-width="2" points="869.48,-838.53 871.37,-828.11 863.39,-835.08 869.48,-838.53"/>
</g>
<!-- 7&#45;&gt;3 -->
<g id="edge11" class="edge">
<title>7&#45;&gt;3</title>
<path fill="none" stroke="grey" stroke-width="2" d="M812.86,-1079.87C827.6,-1055.24 854.9,-1009.64 872.11,-980.88"/>
<polygon fill="grey" stroke="grey" stroke-width="2" points="875.18,-982.57 877.32,-972.19 869.18,-978.97 875.18,-982.57"/>
</g>
<!-- 7&#45;&gt;4 -->
<g id="edge14" class="edge">
<title>7&#45;&gt;4</title>
<path fill="none" stroke="grey" stroke-width="2" d="M847.69,-1091.49C919.97,-1082.51 1066.22,-1063.72 1189.6,-1044 1195.93,-1042.99 1202.5,-1041.89 1209.07,-1040.76"/>
<polygon fill="grey" stroke="grey" stroke-width="2" points="1210.14,-1044.12 1219.39,-1038.95 1208.93,-1037.23 1210.14,-1044.12"/>
</g>
<!-- 8 -->
<g id="node9" class="node">
<title>8</title>
<path fill="none" stroke="#56d8a9" stroke-width="2" d="M435.6,-1044C435.6,-1044 345.6,-1044 345.6,-1044 339.6,-1044 333.6,-1038 333.6,-1032 333.6,-1032 333.6,-1020 333.6,-1020 333.6,-1014 339.6,-1008 345.6,-1008 345.6,-1008 435.6,-1008 435.6,-1008 441.6,-1008 447.6,-1014 447.6,-1020 447.6,-1020 447.6,-1032 447.6,-1032 447.6,-1038 441.6,-1044 435.6,-1044"/>
<text text-anchor="middle" x="390.6" y="-1023.5" font-family="sans" font-size="10.00">site_numbering_map</text>
</g>
<!-- 7&#45;&gt;8 -->
<g id="edge16" class="edge">
<title>7&#45;&gt;8</title>
<path fill="none" stroke="grey" stroke-width="2" d="M757.34,-1089.31C684.82,-1076.99 542.22,-1052.76 457.79,-1038.42"/>
<polygon fill="grey" stroke="grey" stroke-width="2" points="458.24,-1034.94 447.79,-1036.72 457.07,-1041.84 458.24,-1034.94"/>
</g>
<!-- 7&#45;&gt;10 -->
<g id="edge22" class="edge">
<title>7&#45;&gt;10</title>
<path fill="none" stroke="grey" stroke-width="2" d="M847.97,-1089.6C947.37,-1072.1 1175.6,-1024.38 1175.6,-955 1175.6,-955 1175.6,-955 1175.6,-881 1175.6,-822.16 1114.63,-782.48 1066.59,-760.35"/>
<polygon fill="grey" stroke="grey" stroke-width="2" points="1067.73,-757.03 1057.17,-756.16 1064.89,-763.42 1067.73,-757.03"/>
</g>
<!-- 7&#45;&gt;14 -->
<g id="edge33" class="edge">
<title>7&#45;&gt;14</title>
<path fill="none" stroke="grey" stroke-width="2" d="M793.97,-1079.85C766.48,-1024.34 680.68,-843.88 644.6,-684 640.03,-663.72 638.33,-640.25 637.74,-622.51"/>
<polygon fill="grey" stroke="grey" stroke-width="2" points="641.24,-622.2 637.51,-612.28 634.24,-622.36 641.24,-622.2"/>
</g>
<!-- 7&#45;&gt;16 -->
<g id="edge40" class="edge">
<title>7&#45;&gt;16</title>
<path fill="none" stroke="grey" stroke-width="2" d="M757.6,-1097.14C606.77,-1096.41 128.6,-1083.93 128.6,-955 128.6,-955 128.6,-955 128.6,-881 128.6,-746.42 288.89,-653.67 370.73,-615.09"/>
<polygon fill="grey" stroke="grey" stroke-width="2" points="372.22,-618.25 379.82,-610.87 369.28,-611.9 372.22,-618.25"/>
</g>
<!-- 7&#45;&gt;17 -->
<g id="edge57" class="edge">
<title>7&#45;&gt;17</title>
<path fill="none" stroke="grey" stroke-width="2" d="M847.98,-1095.34C972.76,-1090.4 1314.48,-1074.24 1354.6,-1044 1388.55,-1018.42 1389.6,-997.5 1389.6,-955 1389.6,-955 1389.6,-955 1389.6,-737 1389.6,-636.07 1465.6,-623.93 1465.6,-523 1465.6,-523 1465.6,-523 1465.6,-233 1465.6,-162.61 1399.24,-171.87 1334.6,-144 1270.95,-116.56 1191.44,-102.6 1141.83,-96.07"/>
<polygon fill="grey" stroke="grey" stroke-width="2" points="1142.08,-92.57 1131.72,-94.78 1141.2,-99.51 1142.08,-92.57"/>
</g>
<!-- 7&#45;&gt;23 -->
<g id="edge86" class="edge">
<title>7&#45;&gt;23</title>
<path fill="none" stroke="grey" stroke-width="2" d="M757.55,-1097.64C629.37,-1098.77 265.18,-1097.12 160.6,-1044 113.97,-1020.31 83.6,-1007.3 83.6,-955 83.6,-955 83.6,-955 83.6,-449 83.6,-303.8 182.23,-279.91 312.6,-216 383.33,-181.33 619.1,-168.45 717.68,-164.5"/>
<polygon fill="grey" stroke="grey" stroke-width="2" points="718.04,-167.99 727.9,-164.1 717.77,-160.99 718.04,-167.99"/>
</g>
<!-- 8&#45;&gt;3 -->
<g id="edge12" class="edge">
<title>8&#45;&gt;3</title>
<path fill="none" stroke="grey" stroke-width="2" d="M447.62,-1016.97C540.09,-1003.95 722.31,-978.28 820.75,-964.42"/>
<polygon fill="grey" stroke="grey" stroke-width="2" points="821.46,-967.85 830.88,-962.99 820.49,-960.92 821.46,-967.85"/>
</g>
<!-- 8&#45;&gt;10 -->
<g id="edge20" class="edge">
<title>8&#45;&gt;10</title>
<path fill="none" stroke="grey" stroke-width="2" d="M426.65,-1007.98C447.98,-997.78 475.47,-984.42 499.6,-972 648.5,-895.37 675.91,-856.12 830.6,-792 865.21,-777.65 905.06,-765.46 938.36,-756.4"/>
<polygon fill="grey" stroke="grey" stroke-width="2" points="939.27,-759.78 948.02,-753.8 937.46,-753.01 939.27,-759.78"/>
</g>
<!-- 11 -->
<g id="node12" class="node">
<title>11</title>
<path fill="none" stroke="#d87d56" stroke-width="2" d="M291.1,-396C291.1,-396 200.1,-396 200.1,-396 194.1,-396 188.1,-390 188.1,-384 188.1,-384 188.1,-372 188.1,-372 188.1,-366 194.1,-360 200.1,-360 200.1,-360 291.1,-360 291.1,-360 297.1,-360 303.1,-366 303.1,-372 303.1,-372 303.1,-384 303.1,-384 303.1,-390 297.1,-396 291.1,-396"/>
<text text-anchor="middle" x="245.6" y="-375.5" font-family="sans" font-size="10.00">avg_antibody_escape</text>
</g>
<!-- 8&#45;&gt;11 -->
<g id="edge23" class="edge">
<title>8&#45;&gt;11</title>
<path fill="none" stroke="grey" stroke-width="2" d="M333.53,-1008.15C278.86,-988.08 204.6,-948.71 204.6,-883 204.6,-883 204.6,-883 204.6,-521 204.6,-479.41 221.04,-433.56 233.1,-405.51"/>
<polygon fill="grey" stroke="grey" stroke-width="2" points="236.45,-406.59 237.31,-396.03 230.05,-403.75 236.45,-406.59"/>
</g>
<!-- 13 -->
<g id="node14" class="node">
<title>13</title>
<path fill="none" stroke="#a7d856" stroke-width="2" d="M405.6,-540C405.6,-540 331.6,-540 331.6,-540 325.6,-540 319.6,-534 319.6,-528 319.6,-528 319.6,-516 319.6,-516 319.6,-510 325.6,-504 331.6,-504 331.6,-504 405.6,-504 405.6,-504 411.6,-504 417.6,-510 417.6,-516 417.6,-516 417.6,-528 417.6,-528 417.6,-534 411.6,-540 405.6,-540"/>
<text text-anchor="middle" x="368.6" y="-519.5" font-family="sans" font-size="10.00">fit_globalepistasis</text>
</g>
<!-- 8&#45;&gt;13 -->
<g id="edge27" class="edge">
<title>8&#45;&gt;13</title>
<path fill="none" stroke="grey" stroke-width="2" d="M368.14,-1007.97C338.93,-983.71 291.6,-936.19 291.6,-883 291.6,-883 291.6,-883 291.6,-665 291.6,-619.51 322.52,-574.65 345.18,-547.89"/>
<polygon fill="grey" stroke="grey" stroke-width="2" points="347.96,-550.02 351.9,-540.19 342.69,-545.42 347.96,-550.02"/>
</g>
<!-- 8&#45;&gt;14 -->
<g id="edge31" class="edge">
<title>8&#45;&gt;14</title>
<path fill="none" stroke="grey" stroke-width="2" d="M402.02,-1007.58C408.58,-997.36 416.83,-984.11 423.6,-972 502.24,-831.51 492.09,-779.05 585.6,-648 592.84,-637.86 602.03,-627.81 610.66,-619.24"/>
<polygon fill="grey" stroke="grey" stroke-width="2" points="613.27,-621.59 618.04,-612.13 608.42,-616.55 613.27,-621.59"/>
</g>
<!-- 15 -->
<g id="node16" class="node">
<title>15</title>
<path fill="none" stroke="#56d8b9" stroke-width="2" d="M405.1,-468C405.1,-468 352.1,-468 352.1,-468 346.1,-468 340.1,-462 340.1,-456 340.1,-456 340.1,-444 340.1,-444 340.1,-438 346.1,-432 352.1,-432 352.1,-432 405.1,-432 405.1,-432 411.1,-432 417.1,-438 417.1,-444 417.1,-444 417.1,-456 417.1,-456 417.1,-462 411.1,-468 405.1,-468"/>
<text text-anchor="middle" x="378.6" y="-447.5" font-family="sans" font-size="10.00">fit_polyclonal</text>
</g>
<!-- 8&#45;&gt;15 -->
<g id="edge35" class="edge">
<title>8&#45;&gt;15</title>
<path fill="none" stroke="grey" stroke-width="2" d="M355.32,-1007.81C314.73,-985.26 253.6,-941.58 253.6,-883 253.6,-883 253.6,-883 253.6,-593 253.6,-540.4 302.53,-498.03 339.16,-473.69"/>
<polygon fill="grey" stroke="grey" stroke-width="2" points="341.2,-476.54 347.71,-468.18 337.4,-470.66 341.2,-476.54"/>
</g>
<!-- 8&#45;&gt;16 -->
<g id="edge38" class="edge">
<title>8&#45;&gt;16</title>
<path fill="none" stroke="grey" stroke-width="2" d="M386.76,-1007.61C381.21,-980.94 371.6,-928.27 371.6,-883 371.6,-883 371.6,-883 371.6,-737 371.6,-695.04 390.01,-649.36 403.53,-621.44"/>
<polygon fill="grey" stroke="grey" stroke-width="2" points="406.74,-622.86 408.07,-612.34 400.47,-619.73 406.74,-622.86"/>
</g>
<!-- 8&#45;&gt;17 -->
<g id="edge43" class="edge">
<title>8&#45;&gt;17</title>
<path fill="none" stroke="grey" stroke-width="2" d="M333.21,-1019.03C297.22,-1012.63 251.89,-999.39 220.6,-972 81.63,-850.3 45.6,-779.73 45.6,-595 45.6,-595 45.6,-595 45.6,-449 45.6,-290.92 83.01,-205.58 228.6,-144 304.11,-112.07 877.42,-96.12 1047.31,-92.06"/>
<polygon fill="grey" stroke="grey" stroke-width="2" points="1047.52,-95.56 1057.44,-91.82 1047.36,-88.56 1047.52,-95.56"/>
</g>
<!-- 8&#45;&gt;23 -->
<g id="edge73" class="edge">
<title>8&#45;&gt;23</title>
<path fill="none" stroke="grey" stroke-width="2" d="M394.45,-1007.61C400,-980.94 409.6,-928.27 409.6,-883 409.6,-883 409.6,-883 409.6,-737 409.6,-676.48 444.89,-669.55 463.6,-612 476.14,-573.45 483.6,-563.54 483.6,-523 483.6,-523 483.6,-523 483.6,-449 483.6,-315.38 564.93,-293.75 673.6,-216 688.88,-205.07 706.49,-194.16 721.91,-185.11"/>
<polygon fill="grey" stroke="grey" stroke-width="2" points="723.82,-188.05 730.71,-180.01 720.31,-182 723.82,-188.05"/>
</g>
<!-- 9 -->
<g id="node10" class="node">
<title>9</title>
<path fill="none" stroke="#56d0d8" stroke-width="2" d="M855.6,-684C855.6,-684 715.6,-684 715.6,-684 709.6,-684 703.6,-678 703.6,-672 703.6,-672 703.6,-660 703.6,-660 703.6,-654 709.6,-648 715.6,-648 715.6,-648 855.6,-648 855.6,-648 861.6,-648 867.6,-654 867.6,-660 867.6,-660 867.6,-672 867.6,-672 867.6,-678 861.6,-684 855.6,-684"/>
<text text-anchor="middle" x="785.6" y="-663.5" font-family="sans" font-size="10.00">check_adequate_variant_counts</text>
</g>
<!-- 9&#45;&gt;0 -->
<g id="edge2" class="edge">
<title>9&#45;&gt;0</title>
<path fill="none" stroke="grey" stroke-width="2" d="M867.7,-655.92C999.27,-636.16 1250.4,-575.49 1327.6,-396 1371.86,-293.11 1385.11,-240.11 1327.6,-144 1284.87,-72.58 1185.79,-39.62 1131.62,-26.47"/>
<polygon fill="grey" stroke="grey" stroke-width="2" points="1132.26,-23.03 1121.73,-24.17 1130.67,-29.85 1132.26,-23.03"/>
</g>
<!-- 9&#45;&gt;14 -->
<g id="edge30" class="edge">
<title>9&#45;&gt;14</title>
<path fill="none" stroke="grey" stroke-width="2" d="M749.4,-647.88C729.2,-638.32 703.86,-626.34 682.42,-616.19"/>
<polygon fill="grey" stroke="grey" stroke-width="2" points="683.72,-612.94 673.18,-611.83 680.72,-619.27 683.72,-612.94"/>
</g>
<!-- 9&#45;&gt;16 -->
<g id="edge37" class="edge">
<title>9&#45;&gt;16</title>
<path fill="none" stroke="grey" stroke-width="2" d="M703.48,-649.38C630.19,-635.44 525.41,-615.51 465.16,-604.05"/>
<polygon fill="grey" stroke="grey" stroke-width="2" points="465.65,-600.58 455.17,-602.15 464.34,-607.45 465.65,-600.58"/>
</g>
<!-- 10&#45;&gt;9 -->
<g id="edge17" class="edge">
<title>10&#45;&gt;9</title>
<path fill="none" stroke="grey" stroke-width="2" d="M955.09,-719.97C923.39,-710.06 883.25,-697.51 849.99,-687.12"/>
<polygon fill="grey" stroke="grey" stroke-width="2" points="850.95,-683.75 840.36,-684.11 848.86,-690.43 850.95,-683.75"/>
</g>
<!-- 10&#45;&gt;17 -->
<g id="edge56" class="edge">
<title>10&#45;&gt;17</title>
<path fill="none" stroke="grey" stroke-width="2" d="M1021.73,-719.85C1073.76,-645.9 1275.6,-355.94 1275.6,-307 1275.6,-307 1275.6,-307 1275.6,-233 1275.6,-192.03 1279.66,-173.86 1251.6,-144 1223.1,-113.66 1176.65,-100.69 1141.65,-95.14"/>
<polygon fill="grey" stroke="grey" stroke-width="2" points="1142.05,-91.66 1131.65,-93.7 1141.06,-98.59 1142.05,-91.66"/>
</g>
<!-- 10&#45;&gt;21 -->
<g id="edge70" class="edge">
<title>10&#45;&gt;21</title>
<path fill="none" stroke="grey" stroke-width="2" d="M1009.6,-719.95C1009.6,-693.29 1009.6,-640.11 1009.6,-595 1009.6,-595 1009.6,-595 1009.6,-449 1009.6,-408.55 1011.56,-394.59 990.6,-360 983.7,-348.61 973.46,-338.54 963.17,-330.32"/>
<polygon fill="grey" stroke="grey" stroke-width="2" points="965.07,-327.37 954.98,-324.14 960.86,-332.96 965.07,-327.37"/>
</g>
<!-- 10&#45;&gt;23 -->
<g id="edge85" class="edge">
<title>10&#45;&gt;23</title>
<path fill="none" stroke="grey" stroke-width="2" d="M1002.18,-719.82C966.89,-638.13 815.95,-288.77 773.03,-189.44"/>
<polygon fill="grey" stroke="grey" stroke-width="2" points="776.18,-187.9 769,-180.11 769.75,-190.68 776.18,-187.9"/>
</g>
<!-- 11&#45;&gt;0 -->
<g id="edge5" class="edge">
<title>11&#45;&gt;0</title>
<path fill="none" stroke="grey" stroke-width="2" d="M216.31,-359.97C180.5,-336.7 124.6,-291.36 124.6,-235 124.6,-235 124.6,-235 124.6,-161 124.6,-64.94 879,-27.87 1057.2,-20.45"/>
<polygon fill="grey" stroke="grey" stroke-width="2" points="1057.55,-23.94 1067.39,-20.04 1057.26,-16.95 1057.55,-23.94"/>
</g>
<!-- 11&#45;&gt;17 -->
<g id="edge53" class="edge">
<title>11&#45;&gt;17</title>
<path fill="none" stroke="grey" stroke-width="2" d="M244.78,-359.79C243.72,-315.3 247.81,-196.3 317.6,-144 375.91,-100.31 886.87,-92.62 1046.9,-91.28"/>
<polygon fill="grey" stroke="grey" stroke-width="2" points="1047.39,-94.78 1057.36,-91.2 1047.34,-87.78 1047.39,-94.78"/>
</g>
<!-- 11&#45;&gt;21 -->
<g id="edge67" class="edge">
<title>11&#45;&gt;21</title>
<path fill="none" stroke="grey" stroke-width="2" d="M303.37,-371.06C435.53,-357.48 757.84,-324.35 879.27,-311.87"/>
<polygon fill="grey" stroke="grey" stroke-width="2" points="879.78,-315.33 889.37,-310.83 879.07,-308.37 879.78,-315.33"/>
</g>
<!-- 11&#45;&gt;23 -->
<g id="edge82" class="edge">
<title>11&#45;&gt;23</title>
<path fill="none" stroke="grey" stroke-width="2" d="M251.78,-359.82C264.97,-325.87 299.35,-250.54 355.6,-216 415.61,-179.16 625.89,-167.6 717.92,-164.25"/>
<polygon fill="grey" stroke="grey" stroke-width="2" points="718.15,-167.75 728.02,-163.9 717.91,-160.75 718.15,-167.75"/>
</g>
<!-- 12 -->
<g id="node13" class="node">
<title>12</title>
<path fill="none" stroke="#56d892" stroke-width="2" d="M310.1,-468C310.1,-468 245.1,-468 245.1,-468 239.1,-468 233.1,-462 233.1,-456 233.1,-456 233.1,-444 233.1,-444 233.1,-438 239.1,-432 245.1,-432 245.1,-432 310.1,-432 310.1,-432 316.1,-432 322.1,-438 322.1,-444 322.1,-444 322.1,-456 322.1,-456 322.1,-462 316.1,-468 310.1,-468"/>
<text text-anchor="middle" x="277.6" y="-447.5" font-family="sans" font-size="10.00">avg_muteffects</text>
</g>
<!-- 12&#45;&gt;0 -->
<g id="edge3" class="edge">
<title>12&#45;&gt;0</title>
<path fill="none" stroke="grey" stroke-width="2" d="M233.08,-438.07C207.2,-429.92 175.32,-416.57 152.6,-396 60.94,-312.98 -35.39,-245.96 34.6,-144 85.01,-70.58 134.58,-90.92 221.6,-72 384.81,-36.52 912.22,-22.88 1057.34,-19.74"/>
<polygon fill="grey" stroke="grey" stroke-width="2" points="1057.58,-23.24 1067.51,-19.53 1057.43,-16.24 1057.58,-23.24"/>
</g>
<!-- 12&#45;&gt;11 -->
<g id="edge25" class="edge">
<title>12&#45;&gt;11</title>
<path fill="none" stroke="grey" stroke-width="2" d="M269.69,-431.7C266.05,-423.73 261.65,-414.1 257.61,-405.26"/>
<polygon fill="grey" stroke="grey" stroke-width="2" points="260.76,-403.74 253.42,-396.1 254.4,-406.65 260.76,-403.74"/>
</g>
<!-- 12&#45;&gt;17 -->
<g id="edge44" class="edge">
<title>12&#45;&gt;17</title>
<path fill="none" stroke="grey" stroke-width="2" d="M232.88,-436.71C212.57,-428.65 190.48,-415.82 178.6,-396 125.76,-307.77 76.31,-283.21 282.6,-144 345.99,-101.23 882.9,-92.89 1047.09,-91.34"/>
<polygon fill="grey" stroke="grey" stroke-width="2" points="1047.39,-94.84 1057.36,-91.25 1047.33,-87.84 1047.39,-94.84"/>
</g>
<!-- 12&#45;&gt;21 -->
<g id="edge62" class="edge">
<title>12&#45;&gt;21</title>
<path fill="none" stroke="grey" stroke-width="2" d="M322.26,-434.01C325.07,-433.27 327.87,-432.6 330.6,-432 463.55,-403.09 513.51,-458.02 634.6,-396 653.92,-386.11 648.72,-370.7 667.6,-360 734.57,-322.07 824.94,-311.09 879.32,-308.03"/>
<polygon fill="grey" stroke="grey" stroke-width="2" points="879.55,-311.52 889.37,-307.53 879.2,-304.53 879.55,-311.52"/>
</g>
<!-- 12&#45;&gt;23 -->
<g id="edge74" class="edge">
<title>12&#45;&gt;23</title>
<path fill="none" stroke="grey" stroke-width="2" d="M288.87,-431.78C323.78,-378.48 428.15,-219.5 433.6,-216 480.01,-186.22 640.01,-171.36 718.08,-165.75"/>
<polygon fill="grey" stroke="grey" stroke-width="2" points="718.35,-169.24 728.08,-165.05 717.86,-162.25 718.35,-169.24"/>
</g>
<!-- 13&#45;&gt;12 -->
<g id="edge26" class="edge">
<title>13&#45;&gt;12</title>
<path fill="none" stroke="grey" stroke-width="2" d="M346.11,-503.7C334.65,-494.88 320.55,-484.03 308.12,-474.47"/>
<polygon fill="grey" stroke="grey" stroke-width="2" points="309.9,-471.43 299.84,-468.1 305.63,-476.98 309.9,-471.43"/>
</g>
<!-- 13&#45;&gt;17 -->
<g id="edge51" class="edge">
<title>13&#45;&gt;17</title>
<path fill="none" stroke="grey" stroke-width="2" d="M319.49,-509.95C240.91,-489.22 90.1,-436.06 34.6,-324 -0.9,-252.31 -20.53,-201.96 34.6,-144 69.95,-106.85 845.56,-94.23 1047.1,-91.57"/>
<polygon fill="grey" stroke="grey" stroke-width="2" points="1047.41,-95.07 1057.36,-91.44 1047.31,-88.07 1047.41,-95.07"/>
</g>
<!-- 13&#45;&gt;21 -->
<g id="edge66" class="edge">
<title>13&#45;&gt;21</title>
<path fill="none" stroke="grey" stroke-width="2" d="M417.75,-506.4C489.26,-484.7 625.76,-441.59 738.6,-396 789.69,-375.36 846.66,-347.71 884.35,-328.74"/>
<polygon fill="grey" stroke="grey" stroke-width="2" points="886.16,-331.75 893.51,-324.11 883,-325.5 886.16,-331.75"/>
</g>
<!-- 13&#45;&gt;23 -->
<g id="edge80" class="edge">
<title>13&#45;&gt;23</title>
<path fill="none" stroke="grey" stroke-width="2" d="M392.1,-503.83C403.59,-494.38 416.81,-481.78 425.6,-468 488.98,-368.72 418.74,-293.3 507.6,-216 576.74,-155.87 621.79,-202.55 710.6,-180 713.19,-179.34 715.83,-178.62 718.48,-177.86"/>
<polygon fill="grey" stroke="grey" stroke-width="2" points="719.52,-181.2 728.07,-174.95 717.48,-174.51 719.52,-181.2"/>
</g>
<!-- 14&#45;&gt;13 -->
<g id="edge28" class="edge">
<title>14&#45;&gt;13</title>
<path fill="none" stroke="grey" stroke-width="2" d="M601.88,-583.7C557.44,-572.14 480.94,-552.23 427.7,-538.38"/>
<polygon fill="grey" stroke="grey" stroke-width="2" points="428.28,-534.91 417.72,-535.78 426.51,-541.69 428.28,-534.91"/>
</g>
<!-- 18 -->
<g id="node19" class="node">
<title>18</title>
<path fill="none" stroke="#d8a456" stroke-width="2" d="M969.6,-396C969.6,-396 883.6,-396 883.6,-396 877.6,-396 871.6,-390 871.6,-384 871.6,-384 871.6,-372 871.6,-372 871.6,-366 877.6,-360 883.6,-360 883.6,-360 969.6,-360 969.6,-360 975.6,-360 981.6,-366 981.6,-372 981.6,-372 981.6,-384 981.6,-384 981.6,-390 975.6,-396 969.6,-396"/>
<text text-anchor="middle" x="926.6" y="-375.5" font-family="sans" font-size="10.00">analyze_func_scores</text>
</g>
<!-- 14&#45;&gt;18 -->
<g id="edge58" class="edge">
<title>14&#45;&gt;18</title>
<path fill="none" stroke="grey" stroke-width="2" d="M660.77,-575.85C712.34,-537.66 836.7,-445.57 895.2,-402.26"/>
<polygon fill="grey" stroke="grey" stroke-width="2" points="897.38,-405 903.33,-396.23 893.21,-399.37 897.38,-405"/>
</g>
<!-- 15&#45;&gt;11 -->
<g id="edge24" class="edge">
<title>15&#45;&gt;11</title>
<path fill="none" stroke="grey" stroke-width="2" d="M346.07,-431.88C328.36,-422.55 306.25,-410.92 287.29,-400.94"/>
<polygon fill="grey" stroke="grey" stroke-width="2" points="288.74,-397.75 278.27,-396.19 285.48,-403.94 288.74,-397.75"/>
</g>
<!-- 15&#45;&gt;17 -->
<g id="edge49" class="edge">
<title>15&#45;&gt;17</title>
<path fill="none" stroke="grey" stroke-width="2" d="M368.87,-431.68C355.1,-405.53 331.6,-354 331.6,-307 331.6,-307 331.6,-307 331.6,-233 331.6,-159.87 880.38,-108.65 1047.13,-94.77"/>
<polygon fill="grey" stroke="grey" stroke-width="2" points="1047.87,-98.22 1057.55,-93.91 1047.29,-91.25 1047.87,-98.22"/>
</g>
<!-- 15&#45;&gt;21 -->
<g id="edge65" class="edge">
<title>15&#45;&gt;21</title>
<path fill="none" stroke="grey" stroke-width="2" d="M417.34,-443.78C473.18,-435.83 579.28,-419.14 667.6,-396 743.22,-376.19 828.53,-345.12 879.9,-325.42"/>
<polygon fill="grey" stroke="grey" stroke-width="2" points="881.33,-328.62 889.4,-321.76 878.81,-322.09 881.33,-328.62"/>
</g>
<!-- 15&#45;&gt;23 -->
<g id="edge79" class="edge">
<title>15&#45;&gt;23</title>
<path fill="none" stroke="grey" stroke-width="2" d="M379.82,-431.68C383.87,-387.96 400.89,-272.6 469.6,-216 506.85,-185.33 645.89,-171.17 717.84,-165.78"/>
<polygon fill="grey" stroke="grey" stroke-width="2" points="718.23,-169.26 727.95,-165.04 717.72,-162.27 718.23,-169.26"/>
</g>
<!-- 16&#45;&gt;15 -->
<g id="edge34" class="edge">
<title>16&#45;&gt;15</title>
<path fill="none" stroke="grey" stroke-width="2" d="M379.98,-585.09C355.6,-577.81 325.69,-564.31 310.6,-540 302.17,-526.41 303.58,-518.38 310.6,-504 316.41,-492.11 326.31,-482.12 336.79,-474.12"/>
<polygon fill="grey" stroke="grey" stroke-width="2" points="339.1,-476.78 345.25,-468.14 335.06,-471.06 339.1,-476.78"/>
</g>
<!-- 19 -->
<g id="node20" class="node">
<title>19</title>
<path fill="none" stroke="#d8cb56" stroke-width="2" d="M613.6,-396C613.6,-396 523.6,-396 523.6,-396 517.6,-396 511.6,-390 511.6,-384 511.6,-384 511.6,-372 511.6,-372 511.6,-366 517.6,-360 523.6,-360 523.6,-360 613.6,-360 613.6,-360 619.6,-360 625.6,-366 625.6,-372 625.6,-372 625.6,-384 625.6,-384 625.6,-390 619.6,-396 613.6,-396"/>
<text text-anchor="middle" x="568.6" y="-375.5" font-family="sans" font-size="10.00">analyze_prob_escape</text>
</g>
<!-- 16&#45;&gt;19 -->
<g id="edge59" class="edge">
<title>16&#45;&gt;19</title>
<path fill="none" stroke="grey" stroke-width="2" d="M429.71,-575.85C456.21,-538.28 519.51,-448.58 550.66,-404.43"/>
<polygon fill="grey" stroke="grey" stroke-width="2" points="553.54,-406.42 556.45,-396.23 547.82,-402.39 553.54,-406.42"/>
</g>
<!-- 17&#45;&gt;0 -->
<g id="edge4" class="edge">
<title>17&#45;&gt;0</title>
<path fill="none" stroke="grey" stroke-width="2" d="M1094.6,-71.7C1094.6,-63.98 1094.6,-54.71 1094.6,-46.11"/>
<polygon fill="grey" stroke="grey" stroke-width="2" points="1098.11,-46.1 1094.6,-36.1 1091.11,-46.1 1098.11,-46.1"/>
</g>
<!-- 18&#45;&gt;17 -->
<g id="edge55" class="edge">
<title>18&#45;&gt;17</title>
<path fill="none" stroke="grey" stroke-width="2" d="M963.81,-359.89C1027.4,-330.27 1151.28,-270.82 1162.6,-252 1172.31,-235.87 1164.23,-160.72 1155.6,-144 1149.67,-132.49 1140.08,-122.39 1130.25,-114.18"/>
<polygon fill="grey" stroke="grey" stroke-width="2" points="1132.4,-111.42 1122.37,-108.01 1128.08,-116.93 1132.4,-111.42"/>
</g>
<!-- 18&#45;&gt;21 -->
<g id="edge69" class="edge">
<title>18&#45;&gt;21</title>
<path fill="none" stroke="grey" stroke-width="2" d="M926.6,-359.7C926.6,-351.98 926.6,-342.71 926.6,-334.11"/>
<polygon fill="grey" stroke="grey" stroke-width="2" points="930.11,-334.1 926.6,-324.1 923.11,-334.1 930.11,-334.1"/>
</g>
<!-- 18&#45;&gt;23 -->
<g id="edge84" class="edge">
<title>18&#45;&gt;23</title>
<path fill="none" stroke="grey" stroke-width="2" d="M910.54,-359.92C901.36,-349.8 889.86,-336.55 880.6,-324 847.1,-278.53 848.49,-260.43 813.6,-216 805.85,-206.12 796.46,-196.08 787.81,-187.44"/>
<polygon fill="grey" stroke="grey" stroke-width="2" points="790.05,-184.73 780.46,-180.24 785.15,-189.73 790.05,-184.73"/>
</g>
<!-- 19&#45;&gt;17 -->
<g id="edge47" class="edge">
<title>19&#45;&gt;17</title>
<path fill="none" stroke="grey" stroke-width="2" d="M573.73,-359.89C588.17,-315.12 633.8,-194.46 719.6,-144 774.2,-111.89 959.03,-98.09 1047.13,-93.23"/>
<polygon fill="grey" stroke="grey" stroke-width="2" points="1047.58,-96.71 1057.38,-92.68 1047.21,-89.72 1047.58,-96.71"/>
</g>
<!-- 19&#45;&gt;21 -->
<g id="edge64" class="edge">
<title>19&#45;&gt;21</title>
<path fill="none" stroke="grey" stroke-width="2" d="M625.9,-363.01C630.53,-361.96 635.14,-360.95 639.6,-360 723.6,-342.2 822.15,-324.74 879.18,-314.97"/>
<polygon fill="grey" stroke="grey" stroke-width="2" points="880.06,-318.37 889.33,-313.24 878.88,-311.47 880.06,-318.37"/>
</g>
<!-- 19&#45;&gt;23 -->
<g id="edge77" class="edge">
<title>19&#45;&gt;23</title>
<path fill="none" stroke="grey" stroke-width="2" d="M583.11,-359.8C608.33,-330.04 662.12,-267.23 709.6,-216 718.37,-206.55 728.22,-196.39 736.97,-187.53"/>
<polygon fill="grey" stroke="grey" stroke-width="2" points="739.46,-189.99 744.02,-180.42 734.49,-185.06 739.46,-189.99"/>
</g>
<!-- 20 -->
<g id="node21" class="node">
<title>20</title>
<path fill="none" stroke="#ced856" stroke-width="2" d="M987.6,-252C987.6,-252 953.6,-252 953.6,-252 947.6,-252 941.6,-246 941.6,-240 941.6,-240 941.6,-228 941.6,-228 941.6,-222 947.6,-216 953.6,-216 953.6,-216 987.6,-216 987.6,-216 993.6,-216 999.6,-222 999.6,-228 999.6,-228 999.6,-240 999.6,-240 999.6,-246 993.6,-252 987.6,-252"/>
<text text-anchor="middle" x="970.6" y="-231.5" font-family="sans" font-size="10.00">subindex</text>
</g>
<!-- 20&#45;&gt;17 -->
<g id="edge48" class="edge">
<title>20&#45;&gt;17</title>
<path fill="none" stroke="grey" stroke-width="2" d="M985.56,-215.87C1007.35,-190.92 1047.93,-144.45 1072.97,-115.77"/>
<polygon fill="grey" stroke="grey" stroke-width="2" points="1075.65,-118.02 1079.59,-108.19 1070.38,-113.42 1075.65,-118.02"/>
</g>
<!-- 20&#45;&gt;23 -->
<g id="edge78" class="edge">
<title>20&#45;&gt;23</title>
<path fill="none" stroke="grey" stroke-width="2" d="M941.56,-221.21C936.91,-219.41 932.14,-217.62 927.6,-216 886.42,-201.3 838.82,-186.31 805.18,-176.03"/>
<polygon fill="grey" stroke="grey" stroke-width="2" points="805.8,-172.56 795.21,-173 803.76,-179.26 805.8,-172.56"/>
</g>
<!-- 21&#45;&gt;17 -->
<g id="edge46" class="edge">
<title>21&#45;&gt;17</title>
<path fill="none" stroke="grey" stroke-width="2" d="M963.96,-301.31C1019.79,-294.94 1120.8,-279.8 1142.6,-252 1174.38,-211.48 1139.5,-150.28 1114.79,-116.19"/>
<polygon fill="grey" stroke="grey" stroke-width="2" points="1117.56,-114.06 1108.78,-108.14 1111.96,-118.25 1117.56,-114.06"/>
</g>
<!-- 21&#45;&gt;20 -->
<g id="edge60" class="edge">
<title>21&#45;&gt;20</title>
<path fill="none" stroke="grey" stroke-width="2" d="M937.48,-287.7C942.6,-279.56 948.8,-269.69 954.45,-260.7"/>
<polygon fill="grey" stroke="grey" stroke-width="2" points="957.5,-262.43 959.85,-252.1 951.57,-258.71 957.5,-262.43"/>
</g>
<!-- 21&#45;&gt;23 -->
<g id="edge76" class="edge">
<title>21&#45;&gt;23</title>
<path fill="none" stroke="grey" stroke-width="2" d="M914.81,-287.76C901.16,-268.64 877.23,-237.64 851.6,-216 837.36,-203.97 820.04,-193.05 804.41,-184.3"/>
<polygon fill="grey" stroke="grey" stroke-width="2" points="805.9,-181.12 795.44,-179.4 802.54,-187.26 805.9,-181.12"/>
</g>
<!-- 22 -->
<g id="node23" class="node">
<title>22</title>
<path fill="none" stroke="#56d8d0" stroke-width="2" d="M1121.6,-252C1121.6,-252 1067.6,-252 1067.6,-252 1061.6,-252 1055.6,-246 1055.6,-240 1055.6,-240 1055.6,-228 1055.6,-228 1055.6,-222 1061.6,-216 1067.6,-216 1067.6,-216 1121.6,-216 1121.6,-216 1127.6,-216 1133.6,-222 1133.6,-228 1133.6,-228 1133.6,-240 1133.6,-240 1133.6,-246 1127.6,-252 1121.6,-252"/>
<text text-anchor="middle" x="1094.6" y="-231.5" font-family="sans" font-size="10.00">make_graphs</text>
</g>
<!-- 22&#45;&gt;17 -->
<g id="edge52" class="edge">
<title>22&#45;&gt;17</title>
<path fill="none" stroke="grey" stroke-width="2" d="M1094.6,-215.87C1094.6,-191.67 1094.6,-147.21 1094.6,-118.39"/>
<polygon fill="grey" stroke="grey" stroke-width="2" points="1098.11,-118.19 1094.6,-108.19 1091.11,-118.19 1098.11,-118.19"/>
</g>
<!-- 22&#45;&gt;23 -->
<g id="edge81" class="edge">
<title>22&#45;&gt;23</title>
<path fill="none" stroke="grey" stroke-width="2" d="M1055.4,-219.83C1050.77,-218.45 1046.1,-217.14 1041.6,-216 959.17,-195.06 861.17,-178.34 805.7,-169.62"/>
<polygon fill="grey" stroke="grey" stroke-width="2" points="805.94,-166.12 795.52,-168.03 804.86,-173.03 805.94,-166.12"/>
</g>
<!-- 23&#45;&gt;17 -->
<g id="edge50" class="edge">
<title>23&#45;&gt;17</title>
<path fill="none" stroke="grey" stroke-width="2" d="M795.37,-153.9C855.05,-141.36 979.32,-115.23 1047.43,-100.92"/>
<polygon fill="grey" stroke="grey" stroke-width="2" points="1048.4,-104.29 1057.46,-98.81 1046.96,-97.44 1048.4,-104.29"/>
</g>
</g>
</svg>
