<?xml version="1.0" encoding="UTF-8" standalone="no"?>
<!DOCTYPE svg PUBLIC "-//W3C//DTD SVG 1.1//EN"
 "http://www.w3.org/Graphics/SVG/1.1/DTD/svg11.dtd">
<!-- Generated by graphviz version 7.0.5 (20221231.0122)
 -->
<!-- Title: snakemake_dag Pages: 1 -->
<svg width="1922pt" height="1268pt"
 viewBox="0.00 0.00 1921.57 1268.00" xmlns="http://www.w3.org/2000/svg" xmlns:xlink="http://www.w3.org/1999/xlink">
<g id="graph0" class="graph" transform="scale(1 1) rotate(0) translate(4 1264)">
<title>snakemake_dag</title>
<polygon fill="white" stroke="none" points="-4,4 -4,-1264 1917.57,-1264 1917.57,4 -4,4"/>
<!-- 0 -->
<g id="node1" class="node">
<title>0</title>
<path fill="none" stroke="#56d8d0" stroke-width="2" d="M1080.57,-36C1080.57,-36 1050.57,-36 1050.57,-36 1044.57,-36 1038.57,-30 1038.57,-24 1038.57,-24 1038.57,-12 1038.57,-12 1038.57,-6 1044.57,0 1050.57,0 1050.57,0 1080.57,0 1080.57,0 1086.57,0 1092.57,-6 1092.57,-12 1092.57,-12 1092.57,-24 1092.57,-24 1092.57,-30 1086.57,-36 1080.57,-36"/>
<text text-anchor="middle" x="1065.57" y="-15.5" font-family="sans" font-size="10.00">all</text>
</g>
<!-- 1 -->
<g id="node2" class="node">
<title>1</title>
<path fill="none" stroke="#56d8c1" stroke-width="2" d="M682.07,-900C682.07,-900 617.07,-900 617.07,-900 611.07,-900 605.07,-894 605.07,-888 605.07,-888 605.07,-876 605.07,-876 605.07,-870 611.07,-864 617.07,-864 617.07,-864 682.07,-864 682.07,-864 688.07,-864 694.07,-870 694.07,-876 694.07,-876 694.07,-888 694.07,-888 694.07,-894 688.07,-900 682.07,-900"/>
<text text-anchor="middle" x="649.57" y="-879.5" font-family="sans" font-size="10.00">variant_counts</text>
</g>
<!-- 1&#45;&gt;0 -->
<g id="edge4" class="edge">
<title>1&#45;&gt;0</title>
<path fill="none" stroke="grey" stroke-width="2" d="M613.99,-863.13C597.62,-853.93 578.56,-841.76 563.57,-828 387.57,-666.4 318.46,-622.9 243.57,-396 208.3,-289.12 188.34,-222.93 268.57,-144 377.38,-36.96 878.59,-21.58 1025.19,-19.37"/>
<polygon fill="grey" stroke="grey" stroke-width="2" points="1024.88,-22.87 1034.83,-19.24 1024.79,-15.87 1024.88,-22.87"/>
</g>
<!-- 10 -->
<g id="node11" class="node">
<title>10</title>
<path fill="none" stroke="#d87d56" stroke-width="2" d="M481.57,-828C481.57,-828 373.57,-828 373.57,-828 367.57,-828 361.57,-822 361.57,-816 361.57,-816 361.57,-804 361.57,-804 361.57,-798 367.57,-792 373.57,-792 373.57,-792 481.57,-792 481.57,-792 487.57,-792 493.57,-798 493.57,-804 493.57,-804 493.57,-816 493.57,-816 493.57,-822 487.57,-828 481.57,-828"/>
<text text-anchor="middle" x="427.57" y="-807.5" font-family="sans" font-size="10.00">analyze_variant_counts</text>
</g>
<!-- 1&#45;&gt;10 -->
<g id="edge22" class="edge">
<title>1&#45;&gt;10</title>
<path fill="none" stroke="grey" stroke-width="2" d="M604.11,-866.67C573.13,-856.9 531.55,-843.78 496.51,-832.74"/>
<polygon fill="grey" stroke="grey" stroke-width="2" points="497.9,-829.51 487.31,-829.84 495.8,-836.18 497.9,-829.51"/>
</g>
<!-- 14 -->
<g id="node15" class="node">
<title>14</title>
<path fill="none" stroke="#d85656" stroke-width="2" d="M1044.57,-684C1044.57,-684 994.57,-684 994.57,-684 988.57,-684 982.57,-678 982.57,-672 982.57,-672 982.57,-660 982.57,-660 982.57,-654 988.57,-648 994.57,-648 994.57,-648 1044.57,-648 1044.57,-648 1050.57,-648 1056.57,-654 1056.57,-660 1056.57,-660 1056.57,-672 1056.57,-672 1056.57,-678 1050.57,-684 1044.57,-684"/>
<text text-anchor="middle" x="1019.57" y="-663.5" font-family="sans" font-size="10.00">func_scores</text>
</g>
<!-- 1&#45;&gt;14 -->
<g id="edge32" class="edge">
<title>1&#45;&gt;14</title>
<path fill="none" stroke="grey" stroke-width="2" d="M680.48,-863.12C746.73,-824.81 902.46,-734.74 977.58,-691.29"/>
<polygon fill="grey" stroke="grey" stroke-width="2" points="978.97,-694.53 985.87,-686.49 975.46,-688.47 978.97,-694.53"/>
</g>
<!-- 16 -->
<g id="node17" class="node">
<title>16</title>
<path fill="none" stroke="#56a2d8" stroke-width="2" d="M856.57,-684C856.57,-684 802.57,-684 802.57,-684 796.57,-684 790.57,-678 790.57,-672 790.57,-672 790.57,-660 790.57,-660 790.57,-654 796.57,-648 802.57,-648 802.57,-648 856.57,-648 856.57,-648 862.57,-648 868.57,-654 868.57,-660 868.57,-660 868.57,-672 868.57,-672 868.57,-678 862.57,-684 856.57,-684"/>
<text text-anchor="middle" x="829.57" y="-663.5" font-family="sans" font-size="10.00">prob_escape</text>
</g>
<!-- 1&#45;&gt;16 -->
<g id="edge39" class="edge">
<title>1&#45;&gt;16</title>
<path fill="none" stroke="grey" stroke-width="2" d="M669.39,-863.01C694.59,-839.63 738.77,-796.94 771.57,-756 786.9,-736.87 801.94,-713.62 812.87,-695.68"/>
<polygon fill="grey" stroke="grey" stroke-width="2" points="815.72,-697.73 817.86,-687.35 809.71,-694.13 815.72,-697.73"/>
</g>
<!-- 17 -->
<g id="node18" class="node">
<title>17</title>
<path fill="none" stroke="#97d856" stroke-width="2" d="M1092.57,-108C1092.57,-108 1038.57,-108 1038.57,-108 1032.57,-108 1026.57,-102 1026.57,-96 1026.57,-96 1026.57,-84 1026.57,-84 1026.57,-78 1032.57,-72 1038.57,-72 1038.57,-72 1092.57,-72 1092.57,-72 1098.57,-72 1104.57,-78 1104.57,-84 1104.57,-84 1104.57,-96 1104.57,-96 1104.57,-102 1098.57,-108 1092.57,-108"/>
<text text-anchor="middle" x="1065.57" y="-87.5" font-family="sans" font-size="10.00">sphinx_build</text>
</g>
<!-- 1&#45;&gt;17 -->
<g id="edge55" class="edge">
<title>1&#45;&gt;17</title>
<path fill="none" stroke="grey" stroke-width="2" d="M626.03,-863.01C614.8,-853.53 601.83,-841.15 592.57,-828 547.76,-764.34 523.57,-744.85 523.57,-667 523.57,-667 523.57,-667 523.57,-593 523.57,-516.7 333.57,-383.3 333.57,-307 333.57,-307 333.57,-307 333.57,-233 333.57,-129.58 448.3,-169.32 548.57,-144 714.46,-102.12 918.26,-93.2 1012.79,-91.39"/>
<polygon fill="grey" stroke="grey" stroke-width="2" points="1012.69,-94.9 1022.63,-91.23 1012.57,-87.9 1012.69,-94.9"/>
</g>
<!-- 26 -->
<g id="node27" class="node">
<title>26</title>
<path fill="none" stroke="#bed856" stroke-width="2" d="M956.07,-180C956.07,-180 909.07,-180 909.07,-180 903.07,-180 897.07,-174 897.07,-168 897.07,-168 897.07,-156 897.07,-156 897.07,-150 903.07,-144 909.07,-144 909.07,-144 956.07,-144 956.07,-144 962.07,-144 968.07,-150 968.07,-156 968.07,-156 968.07,-168 968.07,-168 968.07,-174 962.07,-180 956.07,-180"/>
<text text-anchor="middle" x="932.57" y="-159.5" font-family="sans" font-size="10.00">docs_index</text>
</g>
<!-- 1&#45;&gt;26 -->
<g id="edge91" class="edge">
<title>1&#45;&gt;26</title>
<path fill="none" stroke="grey" stroke-width="2" d="M637.26,-863.27C621.58,-839.83 594.82,-796.71 580.57,-756 543.04,-648.76 589.99,-604.81 537.57,-504 500.54,-432.78 386.44,-428.32 428.57,-360 484.71,-268.98 549.52,-302.87 643.57,-252 671.6,-236.84 675.96,-227.75 705.57,-216 764.59,-192.58 836.52,-177.96 883.38,-170.15"/>
<polygon fill="grey" stroke="grey" stroke-width="2" points="883.89,-173.62 893.2,-168.57 882.77,-166.71 883.89,-173.62"/>
</g>
<!-- 2 -->
<g id="node3" class="node">
<title>2</title>
<path fill="none" stroke="#61d856" stroke-width="2" d="M539.07,-972C539.07,-972 470.07,-972 470.07,-972 464.07,-972 458.07,-966 458.07,-960 458.07,-960 458.07,-948 458.07,-948 458.07,-942 464.07,-936 470.07,-936 470.07,-936 539.07,-936 539.07,-936 545.07,-936 551.07,-942 551.07,-948 551.07,-948 551.07,-960 551.07,-960 551.07,-966 545.07,-972 539.07,-972"/>
<text text-anchor="middle" x="504.57" y="-951.5" font-family="sans" font-size="10.00">count_barcodes</text>
</g>
<!-- 2&#45;&gt;1 -->
<g id="edge8" class="edge">
<title>2&#45;&gt;1</title>
<path fill="none" stroke="grey" stroke-width="2" d="M541.54,-935.15C559.54,-926.47 581.41,-915.91 600.76,-906.56"/>
<polygon fill="grey" stroke="grey" stroke-width="2" points="602.21,-909.75 609.7,-902.25 599.17,-903.45 602.21,-909.75"/>
</g>
<!-- 2&#45;&gt;10 -->
<g id="edge21" class="edge">
<title>2&#45;&gt;10</title>
<path fill="none" stroke="grey" stroke-width="2" d="M494.82,-935.02C481.86,-911.12 458.8,-868.59 443.35,-840.1"/>
<polygon fill="grey" stroke="grey" stroke-width="2" points="446.53,-838.62 438.69,-831.5 440.38,-841.96 446.53,-838.62"/>
</g>
<!-- 3 -->
<g id="node4" class="node">
<title>3</title>
<path fill="none" stroke="#567bd8" stroke-width="2" d="M548.57,-1044C548.57,-1044 452.57,-1044 452.57,-1044 446.57,-1044 440.57,-1038 440.57,-1032 440.57,-1032 440.57,-1020 440.57,-1020 440.57,-1014 446.57,-1008 452.57,-1008 452.57,-1008 548.57,-1008 548.57,-1008 554.57,-1008 560.57,-1014 560.57,-1020 560.57,-1020 560.57,-1032 560.57,-1032 560.57,-1038 554.57,-1044 548.57,-1044"/>
<text text-anchor="middle" x="500.57" y="-1023.5" font-family="sans" font-size="10.00">build_codon_variants</text>
</g>
<!-- 3&#45;&gt;1 -->
<g id="edge6" class="edge">
<title>3&#45;&gt;1</title>
<path fill="none" stroke="grey" stroke-width="2" d="M521,-1007.08C532.46,-996.92 546.95,-983.9 559.57,-972 581.16,-951.65 605.01,-928.01 622.73,-910.22"/>
<polygon fill="grey" stroke="grey" stroke-width="2" points="625.2,-912.7 629.76,-903.13 620.23,-907.77 625.2,-912.7"/>
</g>
<!-- 3&#45;&gt;2 -->
<g id="edge9" class="edge">
<title>3&#45;&gt;2</title>
<path fill="none" stroke="grey" stroke-width="2" d="M501.58,-1007.34C501.96,-1000.75 502.4,-993.08 502.82,-985.67"/>
<polygon fill="grey" stroke="grey" stroke-width="2" points="506.3,-986.11 503.38,-975.92 499.31,-985.71 506.3,-986.11"/>
</g>
<!-- 3&#45;&gt;10 -->
<g id="edge18" class="edge">
<title>3&#45;&gt;10</title>
<path fill="none" stroke="grey" stroke-width="2" d="M477.07,-1007.09C466.6,-997.8 455.17,-985.56 448.57,-972 428.2,-930.12 425.38,-875.23 425.94,-841.57"/>
<polygon fill="grey" stroke="grey" stroke-width="2" points="429.42,-842.09 426.23,-831.98 422.43,-841.87 429.42,-842.09"/>
</g>
<!-- 3&#45;&gt;14 -->
<g id="edge29" class="edge">
<title>3&#45;&gt;14</title>
<path fill="none" stroke="grey" stroke-width="2" d="M561.34,-1024.06C669.94,-1021.38 892.11,-1011.14 957.57,-972 998.95,-947.26 1019.57,-931.21 1019.57,-883 1019.57,-883 1019.57,-883 1019.57,-809 1019.57,-770.65 1019.57,-726.48 1019.57,-697.72"/>
<polygon fill="grey" stroke="grey" stroke-width="2" points="1023.07,-697.96 1019.57,-687.96 1016.07,-697.96 1023.07,-697.96"/>
</g>
<!-- 3&#45;&gt;16 -->
<g id="edge36" class="edge">
<title>3&#45;&gt;16</title>
<path fill="none" stroke="grey" stroke-width="2" d="M540.25,-1007.16C583.81,-986.15 654.01,-947.96 702.57,-900 757.3,-845.95 764.32,-824.87 798.57,-756 807.92,-737.21 815.69,-714.9 821.11,-697.31"/>
<polygon fill="grey" stroke="grey" stroke-width="2" points="824.43,-698.41 823.92,-687.83 817.72,-696.42 824.43,-698.41"/>
</g>
<!-- 3&#45;&gt;17 -->
<g id="edge59" class="edge">
<title>3&#45;&gt;17</title>
<path fill="none" stroke="grey" stroke-width="2" d="M457.35,-1007.05C440.06,-998.33 420.89,-986.56 406.57,-972 381.06,-946.05 384.65,-932.14 367.57,-900 221.01,-624.1 42.05,-482.2 205.57,-216 227.83,-179.77 230.46,-162.85 268.57,-144 334.99,-111.16 845.96,-96.21 1012.95,-92.17"/>
<polygon fill="grey" stroke="grey" stroke-width="2" points="1012.81,-95.68 1022.72,-91.94 1012.64,-88.68 1012.81,-95.68"/>
</g>
<!-- 22 -->
<g id="node23" class="node">
<title>22</title>
<path fill="none" stroke="#56b9d8" stroke-width="2" d="M744.07,-324C744.07,-324 689.07,-324 689.07,-324 683.07,-324 677.07,-318 677.07,-312 677.07,-312 677.07,-300 677.07,-300 677.07,-294 683.07,-288 689.07,-288 689.07,-288 744.07,-288 744.07,-288 750.07,-288 756.07,-294 756.07,-300 756.07,-300 756.07,-312 756.07,-312 756.07,-318 750.07,-324 744.07,-324"/>
<text text-anchor="middle" x="716.57" y="-303.5" font-family="sans" font-size="10.00">make_nblink</text>
</g>
<!-- 3&#45;&gt;22 -->
<g id="edge66" class="edge">
<title>3&#45;&gt;22</title>
<path fill="none" stroke="grey" stroke-width="2" d="M472.61,-1007.1C459.4,-997.73 444.06,-985.42 432.57,-972 420.67,-958.09 357.17,-845.72 352.57,-828 336.18,-764.72 391.33,-656.68 396.57,-648 455.43,-550.64 501.04,-551.26 578.57,-468 620.91,-422.54 667.39,-367.06 694.16,-334.52"/>
<polygon fill="grey" stroke="grey" stroke-width="2" points="696.57,-337.1 700.21,-327.14 691.16,-332.66 696.57,-337.1"/>
</g>
<!-- 3&#45;&gt;26 -->
<g id="edge95" class="edge">
<title>3&#45;&gt;26</title>
<path fill="none" stroke="grey" stroke-width="2" d="M561.28,-1011C646.61,-988.02 800.64,-933.91 881.57,-828 914.29,-785.19 1040.14,-403.67 1008.57,-360 978.69,-318.65 929.46,-365.35 899.57,-324 871.45,-285.1 886.38,-262.15 899.57,-216 901.99,-207.56 906.18,-199.15 910.78,-191.6"/>
<polygon fill="grey" stroke="grey" stroke-width="2" points="913.59,-193.69 916.22,-183.43 907.77,-189.81 913.59,-193.69"/>
</g>
<!-- 4 -->
<g id="node5" class="node">
<title>4</title>
<path fill="none" stroke="#56d863" stroke-width="2" d="M275.57,-1116C275.57,-1116 165.57,-1116 165.57,-1116 159.57,-1116 153.57,-1110 153.57,-1104 153.57,-1104 153.57,-1092 153.57,-1092 153.57,-1086 159.57,-1080 165.57,-1080 165.57,-1080 275.57,-1080 275.57,-1080 281.57,-1080 287.57,-1086 287.57,-1092 287.57,-1092 287.57,-1104 287.57,-1104 287.57,-1110 281.57,-1116 275.57,-1116"/>
<text text-anchor="middle" x="220.57" y="-1095.5" font-family="sans" font-size="10.00">build_pacbio_consensus</text>
</g>
<!-- 4&#45;&gt;3 -->
<g id="edge11" class="edge">
<title>4&#45;&gt;3</title>
<path fill="none" stroke="grey" stroke-width="2" d="M288.35,-1080.05C330.34,-1069.56 384.25,-1056.08 427.23,-1045.34"/>
<polygon fill="grey" stroke="grey" stroke-width="2" points="427.83,-1048.79 436.68,-1042.97 426.13,-1042 427.83,-1048.79"/>
</g>
<!-- 4&#45;&gt;17 -->
<g id="edge51" class="edge">
<title>4&#45;&gt;17</title>
<path fill="none" stroke="grey" stroke-width="2" d="M208.21,-1079.09C191.44,-1053.03 163.57,-1002.55 163.57,-955 163.57,-955 163.57,-955 163.57,-881 163.57,-716.27 67.57,-687.73 67.57,-523 67.57,-523 67.57,-523 67.57,-449 67.57,-296.74 94.41,-224.62 223.57,-144 290.37,-102.31 838.98,-93.26 1012.9,-91.43"/>
<polygon fill="grey" stroke="grey" stroke-width="2" points="1012.72,-94.94 1022.68,-91.34 1012.65,-87.94 1012.72,-94.94"/>
</g>
<!-- 4&#45;&gt;22 -->
<g id="edge65" class="edge">
<title>4&#45;&gt;22</title>
<path fill="none" stroke="grey" stroke-width="2" d="M223.31,-1079.41C235,-1009.11 286.24,-743.98 417.57,-576 422.87,-569.22 632.92,-365.46 639.57,-360 651.51,-350.21 665.21,-340.37 677.71,-331.88"/>
<polygon fill="grey" stroke="grey" stroke-width="2" points="679.42,-334.94 685.8,-326.48 675.54,-329.12 679.42,-334.94"/>
</g>
<!-- 4&#45;&gt;26 -->
<g id="edge87" class="edge">
<title>4&#45;&gt;26</title>
<path fill="none" stroke="grey" stroke-width="2" d="M216.64,-1079.17C211.07,-1052.36 201.57,-1000.02 201.57,-955 201.57,-955 201.57,-955 201.57,-881 201.57,-685.38 295.57,-646.62 295.57,-451 295.57,-451 295.57,-451 295.57,-377 295.57,-284.64 389.59,-309.86 461.57,-252 480.74,-236.6 481.08,-225.93 503.57,-216 570.7,-186.36 785.6,-171.08 883.34,-165.51"/>
<polygon fill="grey" stroke="grey" stroke-width="2" points="883.52,-169.01 893.31,-164.96 883.13,-162.02 883.52,-169.01"/>
</g>
<!-- 5 -->
<g id="node6" class="node">
<title>5</title>
<path fill="none" stroke="#56d89a" stroke-width="2" d="M151.07,-1188C151.07,-1188 62.07,-1188 62.07,-1188 56.07,-1188 50.07,-1182 50.07,-1176 50.07,-1176 50.07,-1164 50.07,-1164 50.07,-1158 56.07,-1152 62.07,-1152 62.07,-1152 151.07,-1152 151.07,-1152 157.07,-1152 163.07,-1158 163.07,-1164 163.07,-1164 163.07,-1176 163.07,-1176 163.07,-1182 157.07,-1188 151.07,-1188"/>
<text text-anchor="middle" x="106.57" y="-1167.5" font-family="sans" font-size="10.00">analyze_pacbio_ccs</text>
</g>
<!-- 5&#45;&gt;4 -->
<g id="edge14" class="edge">
<title>5&#45;&gt;4</title>
<path fill="none" stroke="grey" stroke-width="2" d="M135.64,-1151.15C149.3,-1142.76 165.82,-1132.62 180.64,-1123.52"/>
<polygon fill="grey" stroke="grey" stroke-width="2" points="182.3,-1126.61 188.99,-1118.4 178.63,-1120.65 182.3,-1126.61"/>
</g>
<!-- 5&#45;&gt;17 -->
<g id="edge53" class="edge">
<title>5&#45;&gt;17</title>
<path fill="none" stroke="grey" stroke-width="2" d="M89.49,-1151.39C66.8,-1126.07 29.57,-1076.92 29.57,-1027 29.57,-1027 29.57,-1027 29.57,-305 29.57,-210.17 84.1,-185.05 169.57,-144 245.5,-107.53 832.31,-94.86 1012.88,-91.8"/>
<polygon fill="grey" stroke="grey" stroke-width="2" points="1012.69,-95.3 1022.63,-91.64 1012.57,-88.3 1012.69,-95.3"/>
</g>
<!-- 5&#45;&gt;22 -->
<g id="edge69" class="edge">
<title>5&#45;&gt;22</title>
<path fill="none" stroke="grey" stroke-width="2" d="M110.51,-1151.17C116.08,-1124.36 125.57,-1072.02 125.57,-1027 125.57,-1027 125.57,-1027 125.57,-881 125.57,-659.78 298.93,-665.07 450.57,-504 482.03,-470.59 490.34,-462.56 524.57,-432 543.42,-415.17 550.21,-413.36 568.57,-396 584.35,-381.09 584.04,-372.79 601.57,-360 620.49,-346.2 643.57,-334.71 664.07,-325.99"/>
<polygon fill="grey" stroke="grey" stroke-width="2" points="665.39,-329.24 673.32,-322.21 662.74,-322.76 665.39,-329.24"/>
</g>
<!-- 5&#45;&gt;26 -->
<g id="edge89" class="edge">
<title>5&#45;&gt;26</title>
<path fill="none" stroke="grey" stroke-width="2" d="M102.64,-1151.17C97.07,-1124.36 87.57,-1072.02 87.57,-1027 87.57,-1027 87.57,-1027 87.57,-881 87.57,-675.5 257.57,-656.5 257.57,-451 257.57,-451 257.57,-451 257.57,-377 257.57,-261.5 350.52,-247.75 461.57,-216 611.17,-173.23 796.74,-164.72 883.52,-163.2"/>
<polygon fill="grey" stroke="grey" stroke-width="2" points="883.36,-166.71 893.31,-163.06 883.26,-159.71 883.36,-166.71"/>
</g>
<!-- 6 -->
<g id="node7" class="node">
<title>6</title>
<path fill="none" stroke="#afd856" stroke-width="2" d="M160.07,-1260C160.07,-1260 53.07,-1260 53.07,-1260 47.07,-1260 41.07,-1254 41.07,-1248 41.07,-1248 41.07,-1236 41.07,-1236 41.07,-1230 47.07,-1224 53.07,-1224 53.07,-1224 160.07,-1224 160.07,-1224 166.07,-1224 172.07,-1230 172.07,-1236 172.07,-1236 172.07,-1248 172.07,-1248 172.07,-1254 166.07,-1260 160.07,-1260"/>
<text text-anchor="middle" x="106.57" y="-1239.5" font-family="sans" font-size="10.00">align_parse_PacBio_ccs</text>
</g>
<!-- 6&#45;&gt;5 -->
<g id="edge15" class="edge">
<title>6&#45;&gt;5</title>
<path fill="none" stroke="grey" stroke-width="2" d="M106.57,-1223.34C106.57,-1216.75 106.57,-1209.08 106.57,-1201.67"/>
<polygon fill="grey" stroke="grey" stroke-width="2" points="110.07,-1201.93 106.57,-1191.93 103.07,-1201.93 110.07,-1201.93"/>
</g>
<!-- 7 -->
<g id="node8" class="node">
<title>7</title>
<path fill="none" stroke="#d86656" stroke-width="2" d="M901.57,-1188C901.57,-1188 833.57,-1188 833.57,-1188 827.57,-1188 821.57,-1182 821.57,-1176 821.57,-1176 821.57,-1164 821.57,-1164 821.57,-1158 827.57,-1152 833.57,-1152 833.57,-1152 901.57,-1152 901.57,-1152 907.57,-1152 913.57,-1158 913.57,-1164 913.57,-1164 913.57,-1176 913.57,-1176 913.57,-1182 907.57,-1188 901.57,-1188"/>
<text text-anchor="middle" x="867.57" y="-1167.5" font-family="sans" font-size="10.00">gene_sequence</text>
</g>
<!-- 7&#45;&gt;1 -->
<g id="edge7" class="edge">
<title>7&#45;&gt;1</title>
<path fill="none" stroke="grey" stroke-width="2" d="M853.94,-1151.11C817.16,-1102.86 715.7,-969.75 671.09,-911.23"/>
<polygon fill="grey" stroke="grey" stroke-width="2" points="673.89,-909.12 665.04,-903.29 668.32,-913.37 673.89,-909.12"/>
</g>
<!-- 7&#45;&gt;3 -->
<g id="edge12" class="edge">
<title>7&#45;&gt;3</title>
<path fill="none" stroke="grey" stroke-width="2" d="M821.09,-1151.02C754.45,-1125.23 631.79,-1077.77 559.07,-1049.63"/>
<polygon fill="grey" stroke="grey" stroke-width="2" points="560.38,-1046.39 549.79,-1046.04 557.85,-1052.92 560.38,-1046.39"/>
</g>
<!-- 7&#45;&gt;4 -->
<g id="edge13" class="edge">
<title>7&#45;&gt;4</title>
<path fill="none" stroke="grey" stroke-width="2" d="M820.77,-1166.42C723.6,-1160.67 493.08,-1144.97 301.57,-1116 301.44,-1115.98 301.31,-1115.96 301.17,-1115.94"/>
<polygon fill="grey" stroke="grey" stroke-width="2" points="301.96,-1112.52 291.52,-1114.34 300.81,-1119.43 301.96,-1112.52"/>
</g>
<!-- 8 -->
<g id="node9" class="node">
<title>8</title>
<path fill="none" stroke="#566bd8" stroke-width="2" d="M1231.07,-1116C1231.07,-1116 1136.07,-1116 1136.07,-1116 1130.07,-1116 1124.07,-1110 1124.07,-1104 1124.07,-1104 1124.07,-1092 1124.07,-1092 1124.07,-1086 1130.07,-1080 1136.07,-1080 1136.07,-1080 1231.07,-1080 1231.07,-1080 1237.07,-1080 1243.07,-1086 1243.07,-1092 1243.07,-1092 1243.07,-1104 1243.07,-1104 1243.07,-1110 1237.07,-1116 1231.07,-1116"/>
<text text-anchor="middle" x="1183.57" y="-1095.5" font-family="sans" font-size="10.00">site_numbering_map</text>
</g>
<!-- 7&#45;&gt;8 -->
<g id="edge16" class="edge">
<title>7&#45;&gt;8</title>
<path fill="none" stroke="grey" stroke-width="2" d="M914.45,-1158.88C963.22,-1148.32 1041.8,-1131.21 1109.57,-1116 1110,-1115.91 1110.42,-1115.81 1110.84,-1115.71"/>
<polygon fill="grey" stroke="grey" stroke-width="2" points="1111.47,-1119.16 1120.46,-1113.54 1109.93,-1112.33 1111.47,-1119.16"/>
</g>
<!-- 7&#45;&gt;10 -->
<g id="edge19" class="edge">
<title>7&#45;&gt;10</title>
<path fill="none" stroke="grey" stroke-width="2" d="M820.99,-1166.98C687.91,-1159.96 315.57,-1131.02 315.57,-1027 315.57,-1027 315.57,-1027 315.57,-953 315.57,-903.99 357.22,-861.95 389.72,-836.6"/>
<polygon fill="grey" stroke="grey" stroke-width="2" points="391.57,-839.59 397.47,-830.79 387.37,-833.99 391.57,-839.59"/>
</g>
<!-- 7&#45;&gt;14 -->
<g id="edge31" class="edge">
<title>7&#45;&gt;14</title>
<path fill="none" stroke="grey" stroke-width="2" d="M890.87,-1151.05C941.61,-1109.72 1057.57,-1002.22 1057.57,-883 1057.57,-883 1057.57,-883 1057.57,-809 1057.57,-769.16 1043.45,-725.11 1032.42,-696.8"/>
<polygon fill="grey" stroke="grey" stroke-width="2" points="1035.76,-695.73 1028.77,-687.77 1029.27,-698.36 1035.76,-695.73"/>
</g>
<!-- 7&#45;&gt;16 -->
<g id="edge38" class="edge">
<title>7&#45;&gt;16</title>
<path fill="none" stroke="grey" stroke-width="2" d="M867.57,-1151.07C867.57,-1124.13 867.57,-1071.62 867.57,-1027 867.57,-1027 867.57,-1027 867.57,-809 867.57,-769.16 853.45,-725.11 842.42,-696.8"/>
<polygon fill="grey" stroke="grey" stroke-width="2" points="845.76,-695.73 838.77,-687.77 839.27,-698.36 845.76,-695.73"/>
</g>
<!-- 7&#45;&gt;17 -->
<g id="edge41" class="edge">
<title>7&#45;&gt;17</title>
<path fill="none" stroke="grey" stroke-width="2" d="M914.5,-1167.4C1113.27,-1160.03 1875.57,-1125.36 1875.57,-1027 1875.57,-1027 1875.57,-1027 1875.57,-305 1875.57,-217.07 1837.48,-186.63 1760.57,-144 1704.85,-113.11 1270.41,-97.17 1118.11,-92.49"/>
<polygon fill="grey" stroke="grey" stroke-width="2" points="1118.66,-89.01 1108.56,-92.21 1118.45,-96.01 1118.66,-89.01"/>
</g>
<!-- 7&#45;&gt;26 -->
<g id="edge78" class="edge">
<title>7&#45;&gt;26</title>
<path fill="none" stroke="grey" stroke-width="2" d="M914.54,-1161.37C981.28,-1147.54 1095.57,-1111.52 1095.57,-1027 1095.57,-1027 1095.57,-1027 1095.57,-953 1095.57,-820.28 1103.29,-466.85 1024.57,-360 1002.41,-329.91 972.27,-352.9 948.57,-324 918.55,-287.37 921.13,-229.15 926.4,-193.67"/>
<polygon fill="grey" stroke="grey" stroke-width="2" points="929.85,-194.27 928.06,-183.83 922.94,-193.1 929.85,-194.27"/>
</g>
<!-- 8&#45;&gt;3 -->
<g id="edge10" class="edge">
<title>8&#45;&gt;3</title>
<path fill="none" stroke="grey" stroke-width="2" d="M1123.16,-1094.53C1013.37,-1089.42 774.02,-1075.43 574.57,-1044 574.44,-1043.98 574.31,-1043.96 574.17,-1043.94"/>
<polygon fill="grey" stroke="grey" stroke-width="2" points="574.86,-1040.5 564.4,-1042.21 573.64,-1047.4 574.86,-1040.5"/>
</g>
<!-- 8&#45;&gt;10 -->
<g id="edge20" class="edge">
<title>8&#45;&gt;10</title>
<path fill="none" stroke="grey" stroke-width="2" d="M1123.42,-1080.7C1015.48,-1050.62 782.73,-981.89 595.57,-900 551.35,-880.65 502.82,-854.36 469.34,-835.38"/>
<polygon fill="grey" stroke="grey" stroke-width="2" points="471.21,-832.41 460.79,-830.49 467.74,-838.49 471.21,-832.41"/>
</g>
<!-- 11 -->
<g id="node12" class="node">
<title>11</title>
<path fill="none" stroke="#88d856" stroke-width="2" d="M1381.57,-468C1381.57,-468 1283.57,-468 1283.57,-468 1277.57,-468 1271.57,-462 1271.57,-456 1271.57,-456 1271.57,-444 1271.57,-444 1271.57,-438 1277.57,-432 1283.57,-432 1283.57,-432 1381.57,-432 1381.57,-432 1387.57,-432 1393.57,-438 1393.57,-444 1393.57,-444 1393.57,-456 1393.57,-456 1393.57,-462 1387.57,-468 1381.57,-468"/>
<text text-anchor="middle" x="1332.57" y="-447.5" font-family="sans" font-size="10.00">avg_antibody_escape</text>
</g>
<!-- 8&#45;&gt;11 -->
<g id="edge23" class="edge">
<title>8&#45;&gt;11</title>
<path fill="none" stroke="grey" stroke-width="2" d="M1217.65,-1079.2C1256.47,-1056.19 1314.57,-1012.19 1314.57,-955 1314.57,-955 1314.57,-955 1314.57,-593 1314.57,-554.35 1321.22,-510.24 1326.43,-481.58"/>
<polygon fill="grey" stroke="grey" stroke-width="2" points="1329.86,-482.29 1328.28,-471.82 1322.98,-480.99 1329.86,-482.29"/>
</g>
<!-- 13 -->
<g id="node14" class="node">
<title>13</title>
<path fill="none" stroke="#56d8a9" stroke-width="2" d="M1274.07,-612C1274.07,-612 1193.07,-612 1193.07,-612 1187.07,-612 1181.07,-606 1181.07,-600 1181.07,-600 1181.07,-588 1181.07,-588 1181.07,-582 1187.07,-576 1193.07,-576 1193.07,-576 1274.07,-576 1274.07,-576 1280.07,-576 1286.07,-582 1286.07,-588 1286.07,-588 1286.07,-600 1286.07,-600 1286.07,-606 1280.07,-612 1274.07,-612"/>
<text text-anchor="middle" x="1233.57" y="-591.5" font-family="sans" font-size="10.00">fit_globalepistasis</text>
</g>
<!-- 8&#45;&gt;13 -->
<g id="edge27" class="edge">
<title>8&#45;&gt;13</title>
<path fill="none" stroke="grey" stroke-width="2" d="M1190.2,-1079.36C1199.58,-1052.79 1215.57,-1000.74 1215.57,-955 1215.57,-955 1215.57,-955 1215.57,-737 1215.57,-698.35 1222.22,-654.24 1227.43,-625.58"/>
<polygon fill="grey" stroke="grey" stroke-width="2" points="1230.86,-626.29 1229.28,-615.82 1223.98,-624.99 1230.86,-626.29"/>
</g>
<!-- 8&#45;&gt;14 -->
<g id="edge33" class="edge">
<title>8&#45;&gt;14</title>
<path fill="none" stroke="grey" stroke-width="2" d="M1173.77,-1079.24C1168.47,-1069.12 1162.1,-1056.1 1157.57,-1044 1105.4,-904.45 1145.3,-849.47 1071.57,-720 1066.18,-710.52 1058.67,-701.52 1051.03,-693.72"/>
<polygon fill="grey" stroke="grey" stroke-width="2" points="1053.61,-691.34 1043.97,-686.93 1048.76,-696.39 1053.61,-691.34"/>
</g>
<!-- 15 -->
<g id="node16" class="node">
<title>15</title>
<path fill="none" stroke="#d8a456" stroke-width="2" d="M1163.57,-540C1163.57,-540 1105.57,-540 1105.57,-540 1099.57,-540 1093.57,-534 1093.57,-528 1093.57,-528 1093.57,-516 1093.57,-516 1093.57,-510 1099.57,-504 1105.57,-504 1105.57,-504 1163.57,-504 1163.57,-504 1169.57,-504 1175.57,-510 1175.57,-516 1175.57,-516 1175.57,-528 1175.57,-528 1175.57,-534 1169.57,-540 1163.57,-540"/>
<text text-anchor="middle" x="1134.57" y="-519.5" font-family="sans" font-size="10.00">fit_polyclonal</text>
</g>
<!-- 8&#45;&gt;15 -->
<g id="edge34" class="edge">
<title>8&#45;&gt;15</title>
<path fill="none" stroke="grey" stroke-width="2" d="M1181.09,-1079.11C1177.57,-1052.22 1171.57,-999.78 1171.57,-955 1171.57,-955 1171.57,-955 1171.57,-809 1171.57,-715.24 1151.78,-605.61 1141.14,-553.5"/>
<polygon fill="grey" stroke="grey" stroke-width="2" points="1144.61,-553.01 1139.15,-543.93 1137.76,-554.43 1144.61,-553.01"/>
</g>
<!-- 8&#45;&gt;16 -->
<g id="edge40" class="edge">
<title>8&#45;&gt;16</title>
<path fill="none" stroke="grey" stroke-width="2" d="M1146.52,-1079.06C1088.21,-1047.94 981.57,-978.03 981.57,-883 981.57,-883 981.57,-883 981.57,-809 981.57,-752.64 925.09,-712.23 880.99,-689.26"/>
<polygon fill="grey" stroke="grey" stroke-width="2" points="882.73,-686.22 872.22,-684.88 879.6,-692.48 882.73,-686.22"/>
</g>
<!-- 8&#45;&gt;17 -->
<g id="edge60" class="edge">
<title>8&#45;&gt;17</title>
<path fill="none" stroke="grey" stroke-width="2" d="M1244.04,-1095.83C1399.25,-1091.19 1799.57,-1068.25 1799.57,-955 1799.57,-955 1799.57,-955 1799.57,-233 1799.57,-178.61 1764.6,-167.55 1715.57,-144 1610.39,-93.47 1253.15,-89.95 1117.98,-90.5"/>
<polygon fill="grey" stroke="grey" stroke-width="2" points="1118.24,-87 1108.26,-90.55 1118.28,-94 1118.24,-87"/>
</g>
<!-- 8&#45;&gt;26 -->
<g id="edge96" class="edge">
<title>8&#45;&gt;26</title>
<path fill="none" stroke="grey" stroke-width="2" d="M1243.95,-1093.88C1384.86,-1084.95 1723.57,-1053.27 1723.57,-955 1723.57,-955 1723.57,-955 1723.57,-521 1723.57,-502.15 1135.13,-222.86 1117.57,-216 1072.42,-198.35 1019.02,-183.68 981.23,-174.28"/>
<polygon fill="grey" stroke="grey" stroke-width="2" points="982.53,-171 971.99,-172.02 980.87,-177.8 982.53,-171"/>
</g>
<!-- 9 -->
<g id="node10" class="node">
<title>9</title>
<path fill="none" stroke="#56d873" stroke-width="2" d="M751.07,-756C751.07,-756 602.07,-756 602.07,-756 596.07,-756 590.07,-750 590.07,-744 590.07,-744 590.07,-732 590.07,-732 590.07,-726 596.07,-720 602.07,-720 602.07,-720 751.07,-720 751.07,-720 757.07,-720 763.07,-726 763.07,-732 763.07,-732 763.07,-744 763.07,-744 763.07,-750 757.07,-756 751.07,-756"/>
<text text-anchor="middle" x="676.57" y="-735.5" font-family="sans" font-size="10.00">check_adequate_variant_counts</text>
</g>
<!-- 9&#45;&gt;0 -->
<g id="edge1" class="edge">
<title>9&#45;&gt;0</title>
<path fill="none" stroke="grey" stroke-width="2" d="M635.21,-719.07C461.51,-641.52 -188.87,-327.47 53.57,-72 87.56,-36.19 840.26,-22.43 1024.94,-19.58"/>
<polygon fill="grey" stroke="grey" stroke-width="2" points="1024.74,-23.09 1034.69,-19.44 1024.64,-16.09 1024.74,-23.09"/>
</g>
<!-- 9&#45;&gt;14 -->
<g id="edge30" class="edge">
<title>9&#45;&gt;14</title>
<path fill="none" stroke="grey" stroke-width="2" d="M764.01,-719.15C828.93,-705.91 915.18,-688.31 969.03,-677.32"/>
<polygon fill="grey" stroke="grey" stroke-width="2" points="969.59,-680.77 978.69,-675.34 968.19,-673.91 969.59,-680.77"/>
</g>
<!-- 9&#45;&gt;16 -->
<g id="edge37" class="edge">
<title>9&#45;&gt;16</title>
<path fill="none" stroke="grey" stroke-width="2" d="M715.58,-719.15C734.75,-710.38 758.09,-699.71 778.65,-690.3"/>
<polygon fill="grey" stroke="grey" stroke-width="2" points="779.99,-693.54 787.62,-686.19 777.07,-687.17 779.99,-693.54"/>
</g>
<!-- 10&#45;&gt;9 -->
<g id="edge17" class="edge">
<title>10&#45;&gt;9</title>
<path fill="none" stroke="grey" stroke-width="2" d="M491.37,-791.06C524.76,-781.68 565.85,-770.13 600.84,-760.29"/>
<polygon fill="grey" stroke="grey" stroke-width="2" points="601.35,-763.78 610.03,-757.71 599.45,-757.05 601.35,-763.78"/>
</g>
<!-- 10&#45;&gt;17 -->
<g id="edge42" class="edge">
<title>10&#45;&gt;17</title>
<path fill="none" stroke="grey" stroke-width="2" d="M404.8,-791.21C356.75,-752.04 246.12,-652.83 205.57,-540 143.64,-367.64 166.18,-244.07 319.57,-144 377.32,-106.33 852.79,-94.68 1013.06,-91.81"/>
<polygon fill="grey" stroke="grey" stroke-width="2" points="1012.85,-95.31 1022.79,-91.64 1012.73,-88.32 1012.85,-95.31"/>
</g>
<!-- 10&#45;&gt;22 -->
<g id="edge71" class="edge">
<title>10&#45;&gt;22</title>
<path fill="none" stroke="grey" stroke-width="2" d="M439.4,-791.37C476.88,-735.14 595.35,-554.46 677.57,-396 687.59,-376.69 697.41,-354.26 704.69,-336.75"/>
<polygon fill="grey" stroke="grey" stroke-width="2" points="707.92,-338.09 708.47,-327.51 701.44,-335.44 707.92,-338.09"/>
</g>
<!-- 10&#45;&gt;26 -->
<g id="edge79" class="edge">
<title>10&#45;&gt;26</title>
<path fill="none" stroke="grey" stroke-width="2" d="M424.01,-791.02C409.75,-717.31 359.29,-438.58 395.57,-360 416.26,-315.2 519.61,-236.32 564.57,-216 620.54,-190.71 796.61,-173.74 883.33,-166.69"/>
<polygon fill="grey" stroke="grey" stroke-width="2" points="883.49,-170.18 893.18,-165.9 882.93,-163.21 883.49,-170.18"/>
</g>
<!-- 11&#45;&gt;0 -->
<g id="edge3" class="edge">
<title>11&#45;&gt;0</title>
<path fill="none" stroke="grey" stroke-width="2" d="M1394.37,-436.68C1551.63,-402.72 1945.52,-299.83 1813.57,-144 1721.26,-34.98 1247.99,-20.97 1105.94,-19.23"/>
<polygon fill="grey" stroke="grey" stroke-width="2" points="1106.31,-15.73 1096.27,-19.13 1106.24,-22.73 1106.31,-15.73"/>
</g>
<!-- 11&#45;&gt;17 -->
<g id="edge49" class="edge">
<title>11&#45;&gt;17</title>
<path fill="none" stroke="grey" stroke-width="2" d="M1367.21,-431.09C1386.33,-421.04 1410.43,-408.12 1431.57,-396 1545.7,-330.56 1736.2,-327.63 1666.57,-216 1608.38,-122.69 1253.42,-98.59 1118,-92.75"/>
<polygon fill="grey" stroke="grey" stroke-width="2" points="1118.38,-89.26 1108.25,-92.35 1118.1,-96.26 1118.38,-89.26"/>
</g>
<!-- 20 -->
<g id="node21" class="node">
<title>20</title>
<path fill="none" stroke="#d6d856" stroke-width="2" d="M1369.57,-396C1369.57,-396 1295.57,-396 1295.57,-396 1289.57,-396 1283.57,-390 1283.57,-384 1283.57,-384 1283.57,-372 1283.57,-372 1283.57,-366 1289.57,-360 1295.57,-360 1295.57,-360 1369.57,-360 1369.57,-360 1375.57,-360 1381.57,-366 1381.57,-372 1381.57,-372 1381.57,-384 1381.57,-384 1381.57,-390 1375.57,-396 1369.57,-396"/>
<text text-anchor="middle" x="1332.57" y="-375.5" font-family="sans" font-size="10.00">validation_IC50s</text>
</g>
<!-- 11&#45;&gt;20 -->
<g id="edge63" class="edge">
<title>11&#45;&gt;20</title>
<path fill="none" stroke="grey" stroke-width="2" d="M1332.57,-431.34C1332.57,-424.75 1332.57,-417.08 1332.57,-409.67"/>
<polygon fill="grey" stroke="grey" stroke-width="2" points="1336.07,-409.93 1332.57,-399.93 1329.07,-409.93 1336.07,-409.93"/>
</g>
<!-- 11&#45;&gt;22 -->
<g id="edge68" class="edge">
<title>11&#45;&gt;22</title>
<path fill="none" stroke="grey" stroke-width="2" d="M1271,-443.89C1154.09,-433.89 908.4,-411.39 872.57,-396 849.67,-386.16 850.59,-373.4 829.57,-360 810.59,-347.89 788.39,-336.88 768.72,-328.07"/>
<polygon fill="grey" stroke="grey" stroke-width="2" points="770.19,-324.89 759.63,-324.09 767.39,-331.3 770.19,-324.89"/>
</g>
<!-- 25 -->
<g id="node26" class="node">
<title>25</title>
<path fill="none" stroke="#70d856" stroke-width="2" d="M1645.07,-252C1645.07,-252 1508.07,-252 1508.07,-252 1502.07,-252 1496.07,-246 1496.07,-240 1496.07,-240 1496.07,-228 1496.07,-228 1496.07,-222 1502.07,-216 1508.07,-216 1508.07,-216 1645.07,-216 1645.07,-216 1651.07,-216 1657.07,-222 1657.07,-228 1657.07,-228 1657.07,-240 1657.07,-240 1657.07,-246 1651.07,-252 1645.07,-252"/>
<text text-anchor="middle" x="1576.57" y="-231.5" font-family="sans" font-size="10.00">format_antibody_escape_plot</text>
</g>
<!-- 11&#45;&gt;25 -->
<g id="edge77" class="edge">
<title>11&#45;&gt;25</title>
<path fill="none" stroke="grey" stroke-width="2" d="M1354.61,-431.15C1383.97,-407.22 1437.36,-363.2 1481.57,-324 1504.65,-303.54 1530.12,-279.6 1548.88,-261.71"/>
<polygon fill="grey" stroke="grey" stroke-width="2" points="1551.29,-264.24 1556.1,-254.79 1546.45,-259.18 1551.29,-264.24"/>
</g>
<!-- 11&#45;&gt;26 -->
<g id="edge85" class="edge">
<title>11&#45;&gt;26</title>
<path fill="none" stroke="grey" stroke-width="2" d="M1313.73,-431.32C1293.81,-412.91 1261.25,-383.51 1231.57,-360 1166.62,-308.54 1143.59,-304.63 1079.57,-252 1061.6,-237.23 1060.7,-229.24 1041.57,-216 1022.8,-203.01 1000.37,-191.51 980.74,-182.57"/>
<polygon fill="grey" stroke="grey" stroke-width="2" points="982.28,-179.42 971.72,-178.57 979.44,-185.82 982.28,-179.42"/>
</g>
<!-- 12 -->
<g id="node13" class="node">
<title>12</title>
<path fill="none" stroke="#d8b456" stroke-width="2" d="M1422.57,-540C1422.57,-540 1354.57,-540 1354.57,-540 1348.57,-540 1342.57,-534 1342.57,-528 1342.57,-528 1342.57,-516 1342.57,-516 1342.57,-510 1348.57,-504 1354.57,-504 1354.57,-504 1422.57,-504 1422.57,-504 1428.57,-504 1434.57,-510 1434.57,-516 1434.57,-516 1434.57,-528 1434.57,-528 1434.57,-534 1428.57,-540 1422.57,-540"/>
<text text-anchor="middle" x="1388.57" y="-519.5" font-family="sans" font-size="10.00">avg_muteffects</text>
</g>
<!-- 12&#45;&gt;0 -->
<g id="edge5" class="edge">
<title>12&#45;&gt;0</title>
<path fill="none" stroke="grey" stroke-width="2" d="M1435.16,-518.38C1563.65,-509.88 1913.57,-477.67 1913.57,-379 1913.57,-379 1913.57,-379 1913.57,-161 1913.57,-68.15 1814.3,-95.88 1724.57,-72 1606.84,-40.66 1231.19,-24.85 1106.35,-20.37"/>
<polygon fill="grey" stroke="grey" stroke-width="2" points="1106.54,-16.87 1096.42,-20.02 1106.29,-23.87 1106.54,-16.87"/>
</g>
<!-- 12&#45;&gt;11 -->
<g id="edge24" class="edge">
<title>12&#45;&gt;11</title>
<path fill="none" stroke="grey" stroke-width="2" d="M1374.44,-503.34C1368.52,-495.93 1361.49,-487.14 1354.9,-478.9"/>
<polygon fill="grey" stroke="grey" stroke-width="2" points="1357.77,-476.89 1348.79,-471.27 1352.3,-481.26 1357.77,-476.89"/>
</g>
<!-- 12&#45;&gt;17 -->
<g id="edge46" class="edge">
<title>12&#45;&gt;17</title>
<path fill="none" stroke="grey" stroke-width="2" d="M1435.51,-513.47C1527.7,-495.71 1723.57,-442.09 1723.57,-307 1723.57,-307 1723.57,-307 1723.57,-233 1723.57,-109.37 1274.1,-93.1 1118.12,-91.18"/>
<polygon fill="grey" stroke="grey" stroke-width="2" points="1118.32,-87.68 1108.28,-91.07 1118.24,-94.68 1118.32,-87.68"/>
</g>
<!-- 12&#45;&gt;22 -->
<g id="edge73" class="edge">
<title>12&#45;&gt;22</title>
<path fill="none" stroke="grey" stroke-width="2" d="M1341.67,-510.6C1207.65,-480.88 832.43,-397.59 829.57,-396 810.1,-385.11 811.67,-374.34 794.57,-360 782.74,-350.07 769.03,-340.26 756.44,-331.83"/>
<polygon fill="grey" stroke="grey" stroke-width="2" points="758.55,-329.03 748.27,-326.47 754.71,-334.88 758.55,-329.03"/>
</g>
<!-- 23 -->
<g id="node24" class="node">
<title>23</title>
<path fill="none" stroke="#d88d56" stroke-width="2" d="M1327.07,-252C1327.07,-252 1220.07,-252 1220.07,-252 1214.07,-252 1208.07,-246 1208.07,-240 1208.07,-240 1208.07,-228 1208.07,-228 1208.07,-222 1214.07,-216 1220.07,-216 1220.07,-216 1327.07,-216 1327.07,-216 1333.07,-216 1339.07,-222 1339.07,-228 1339.07,-228 1339.07,-240 1339.07,-240 1339.07,-246 1333.07,-252 1327.07,-252"/>
<text text-anchor="middle" x="1273.57" y="-231.5" font-family="sans" font-size="10.00">format_muteffects_plot</text>
</g>
<!-- 12&#45;&gt;23 -->
<g id="edge76" class="edge">
<title>12&#45;&gt;23</title>
<path fill="none" stroke="grey" stroke-width="2" d="M1394.54,-503.08C1397.61,-492.92 1401.03,-479.89 1402.57,-468 1408.79,-420.11 1411.96,-403.3 1390.57,-360 1370.85,-320.06 1334.13,-284.05 1307.06,-261.05"/>
<polygon fill="grey" stroke="grey" stroke-width="2" points="1309.48,-258.51 1299.55,-254.82 1305.02,-263.9 1309.48,-258.51"/>
</g>
<!-- 12&#45;&gt;26 -->
<g id="edge83" class="edge">
<title>12&#45;&gt;26</title>
<path fill="none" stroke="grey" stroke-width="2" d="M1341.77,-506.29C1317.04,-497.32 1286.86,-484.41 1262.57,-468 1206.58,-430.18 1203.88,-407.24 1155.57,-360 1155.05,-359.49 1004.13,-216.47 1003.57,-216 992.52,-206.69 980.01,-197.07 968.61,-188.63"/>
<polygon fill="grey" stroke="grey" stroke-width="2" points="970.68,-185.81 960.54,-182.73 966.55,-191.46 970.68,-185.81"/>
</g>
<!-- 13&#45;&gt;12 -->
<g id="edge26" class="edge">
<title>13&#45;&gt;12</title>
<path fill="none" stroke="grey" stroke-width="2" d="M1273.09,-575.15C1292.6,-566.34 1316.37,-555.61 1337.27,-546.17"/>
<polygon fill="grey" stroke="grey" stroke-width="2" points="1338.43,-549.49 1346.1,-542.18 1335.55,-543.11 1338.43,-549.49"/>
</g>
<!-- 13&#45;&gt;17 -->
<g id="edge54" class="edge">
<title>13&#45;&gt;17</title>
<path fill="none" stroke="grey" stroke-width="2" d="M1286.62,-583.26C1420.51,-557.18 1761.57,-480.75 1761.57,-379 1761.57,-379 1761.57,-379 1761.57,-233 1761.57,-174.49 1718.11,-167.61 1664.57,-144 1567.24,-101.08 1245.29,-92.91 1118.01,-91.36"/>
<polygon fill="grey" stroke="grey" stroke-width="2" points="1118.32,-87.86 1108.28,-91.25 1118.24,-94.86 1118.32,-87.86"/>
</g>
<!-- 13&#45;&gt;22 -->
<g id="edge70" class="edge">
<title>13&#45;&gt;22</title>
<path fill="none" stroke="grey" stroke-width="2" d="M1180.23,-584.79C1083.23,-567.21 876.82,-517.2 755.57,-396 739.56,-379.99 729.62,-356.3 723.78,-337.39"/>
<polygon fill="grey" stroke="grey" stroke-width="2" points="727.18,-336.53 721.12,-327.84 720.43,-338.41 727.18,-336.53"/>
</g>
<!-- 13&#45;&gt;26 -->
<g id="edge90" class="edge">
<title>13&#45;&gt;26</title>
<path fill="none" stroke="grey" stroke-width="2" d="M1223.89,-575.23C1214.06,-557.23 1198.36,-528.62 1184.57,-504 1148.59,-439.74 1145.95,-419.52 1102.57,-360 1064.22,-307.38 1045.9,-301.48 1003.57,-252 986.44,-231.97 967.9,-208.67 954.06,-190.93"/>
<polygon fill="grey" stroke="grey" stroke-width="2" points="956.86,-188.83 947.96,-183.07 951.33,-193.12 956.86,-188.83"/>
</g>
<!-- 14&#45;&gt;13 -->
<g id="edge28" class="edge">
<title>14&#45;&gt;13</title>
<path fill="none" stroke="grey" stroke-width="2" d="M1057.34,-652.65C1087.96,-642.63 1131.83,-628.28 1168.14,-616.41"/>
<polygon fill="grey" stroke="grey" stroke-width="2" points="1168.84,-619.86 1177.25,-613.42 1166.66,-613.21 1168.84,-619.86"/>
</g>
<!-- 18 -->
<g id="node19" class="node">
<title>18</title>
<path fill="none" stroke="#56c9d8" stroke-width="2" d="M987.57,-396C987.57,-396 893.57,-396 893.57,-396 887.57,-396 881.57,-390 881.57,-384 881.57,-384 881.57,-372 881.57,-372 881.57,-366 887.57,-360 893.57,-360 893.57,-360 987.57,-360 987.57,-360 993.57,-360 999.57,-366 999.57,-372 999.57,-372 999.57,-384 999.57,-384 999.57,-390 993.57,-396 987.57,-396"/>
<text text-anchor="middle" x="940.57" y="-375.5" font-family="sans" font-size="10.00">analyze_func_scores</text>
</g>
<!-- 14&#45;&gt;18 -->
<g id="edge61" class="edge">
<title>14&#45;&gt;18</title>
<path fill="none" stroke="grey" stroke-width="2" d="M1014.63,-647.11C1001.44,-599.36 965.3,-468.51 948.88,-409.08"/>
<polygon fill="grey" stroke="grey" stroke-width="2" points="952.36,-408.51 946.32,-399.8 945.61,-410.37 952.36,-408.51"/>
</g>
<!-- 15&#45;&gt;11 -->
<g id="edge25" class="edge">
<title>15&#45;&gt;11</title>
<path fill="none" stroke="grey" stroke-width="2" d="M1176.56,-506.15C1203.6,-496.6 1239.25,-483.99 1269.64,-473.25"/>
<polygon fill="grey" stroke="grey" stroke-width="2" points="1270.75,-476.57 1279.01,-469.94 1268.42,-469.97 1270.75,-476.57"/>
</g>
<!-- 15&#45;&gt;17 -->
<g id="edge45" class="edge">
<title>15&#45;&gt;17</title>
<path fill="none" stroke="grey" stroke-width="2" d="M1144.12,-503.19C1157.33,-476.84 1179.57,-425.55 1179.57,-379 1179.57,-379 1179.57,-379 1179.57,-233 1179.57,-183.65 1137.18,-141.68 1104.1,-116.45"/>
<polygon fill="grey" stroke="grey" stroke-width="2" points="1106.33,-113.74 1096.19,-110.64 1102.19,-119.38 1106.33,-113.74"/>
</g>
<!-- 15&#45;&gt;22 -->
<g id="edge72" class="edge">
<title>15&#45;&gt;22</title>
<path fill="none" stroke="grey" stroke-width="2" d="M1097,-503.12C1055.96,-484 988.01,-453.53 927.57,-432 872.71,-412.46 851.43,-426.11 801.57,-396 775.65,-380.34 752.37,-354.74 736.76,-335"/>
<polygon fill="grey" stroke="grey" stroke-width="2" points="739.61,-332.96 730.75,-327.14 734.05,-337.21 739.61,-332.96"/>
</g>
<!-- 15&#45;&gt;26 -->
<g id="edge82" class="edge">
<title>15&#45;&gt;26</title>
<path fill="none" stroke="grey" stroke-width="2" d="M1130.56,-503.14C1121.83,-465.7 1100.21,-380.72 1079.57,-360 1045.06,-325.34 1008.89,-359.81 975.57,-324 942.26,-288.19 934.19,-229.46 932.56,-193.7"/>
<polygon fill="grey" stroke="grey" stroke-width="2" points="936.06,-193.71 932.28,-183.81 929.06,-193.9 936.06,-193.71"/>
</g>
<!-- 16&#45;&gt;15 -->
<g id="edge35" class="edge">
<title>16&#45;&gt;15</title>
<path fill="none" stroke="grey" stroke-width="2" d="M868.2,-647.02C923.2,-621.41 1024.12,-574.43 1084.71,-546.22"/>
<polygon fill="grey" stroke="grey" stroke-width="2" points="1085.93,-549.51 1093.51,-542.12 1082.97,-543.16 1085.93,-549.51"/>
</g>
<!-- 19 -->
<g id="node20" class="node">
<title>19</title>
<path fill="none" stroke="#56d88a" stroke-width="2" d="M547.57,-396C547.57,-396 449.57,-396 449.57,-396 443.57,-396 437.57,-390 437.57,-384 437.57,-384 437.57,-372 437.57,-372 437.57,-366 443.57,-360 449.57,-360 449.57,-360 547.57,-360 547.57,-360 553.57,-360 559.57,-366 559.57,-372 559.57,-372 559.57,-384 559.57,-384 559.57,-390 553.57,-396 547.57,-396"/>
<text text-anchor="middle" x="498.57" y="-375.5" font-family="sans" font-size="10.00">analyze_prob_escape</text>
</g>
<!-- 16&#45;&gt;19 -->
<g id="edge62" class="edge">
<title>16&#45;&gt;19</title>
<path fill="none" stroke="grey" stroke-width="2" d="M808.87,-647.11C752.33,-598.26 595.11,-462.41 528.75,-405.07"/>
<polygon fill="grey" stroke="grey" stroke-width="2" points="531.42,-402.75 521.56,-398.86 526.84,-408.05 531.42,-402.75"/>
</g>
<!-- 17&#45;&gt;0 -->
<g id="edge2" class="edge">
<title>17&#45;&gt;0</title>
<path fill="none" stroke="grey" stroke-width="2" d="M1065.57,-71.34C1065.57,-64.75 1065.57,-57.08 1065.57,-49.67"/>
<polygon fill="grey" stroke="grey" stroke-width="2" points="1069.07,-49.93 1065.57,-39.93 1062.07,-49.93 1069.07,-49.93"/>
</g>
<!-- 18&#45;&gt;17 -->
<g id="edge56" class="edge">
<title>18&#45;&gt;17</title>
<path fill="none" stroke="grey" stroke-width="2" d="M884.77,-359.08C868.63,-351.02 852.87,-339.68 843.57,-324 819.09,-282.72 830.57,-262.21 843.57,-216 853.73,-179.9 857.85,-166.87 887.57,-144 924.08,-115.91 975.27,-102.67 1013.39,-96.45"/>
<polygon fill="grey" stroke="grey" stroke-width="2" points="1013.41,-99.98 1022.78,-95.04 1012.37,-93.06 1013.41,-99.98"/>
</g>
<!-- 18&#45;&gt;22 -->
<g id="edge74" class="edge">
<title>18&#45;&gt;22</title>
<path fill="none" stroke="grey" stroke-width="2" d="M882.73,-359.01C849.84,-348.77 807.89,-335.69 770.57,-324 770.16,-323.87 769.75,-323.74 769.33,-323.61"/>
<polygon fill="grey" stroke="grey" stroke-width="2" points="770.44,-320.29 759.86,-320.64 768.35,-326.97 770.44,-320.29"/>
</g>
<!-- 18&#45;&gt;26 -->
<g id="edge92" class="edge">
<title>18&#45;&gt;26</title>
<path fill="none" stroke="grey" stroke-width="2" d="M898.64,-359.16C884.21,-350.74 869.66,-339.16 861.57,-324 838.99,-281.65 840.06,-258.91 861.57,-216 867.1,-204.98 876.13,-195.66 885.92,-188.07"/>
<polygon fill="grey" stroke="grey" stroke-width="2" points="887.65,-191.13 893.81,-182.51 883.62,-185.4 887.65,-191.13"/>
</g>
<!-- 19&#45;&gt;17 -->
<g id="edge52" class="edge">
<title>19&#45;&gt;17</title>
<path fill="none" stroke="grey" stroke-width="2" d="M499.09,-359.21C501.44,-314.39 514.42,-196.66 585.57,-144 652.28,-94.64 902.83,-89.92 1013.02,-90.33"/>
<polygon fill="grey" stroke="grey" stroke-width="2" points="1012.69,-93.82 1022.71,-90.38 1012.73,-86.82 1012.69,-93.82"/>
</g>
<!-- 19&#45;&gt;22 -->
<g id="edge67" class="edge">
<title>19&#45;&gt;22</title>
<path fill="none" stroke="grey" stroke-width="2" d="M554.43,-359.06C588.21,-348.22 631.01,-334.47 664.16,-323.83"/>
<polygon fill="grey" stroke="grey" stroke-width="2" points="665.01,-327.23 673.46,-320.84 662.87,-320.57 665.01,-327.23"/>
</g>
<!-- 19&#45;&gt;26 -->
<g id="edge88" class="edge">
<title>19&#45;&gt;26</title>
<path fill="none" stroke="grey" stroke-width="2" d="M525.24,-359.15C573.69,-327.28 680.09,-259.81 776.57,-216 811.48,-200.15 852.6,-186.37 883.86,-176.83"/>
<polygon fill="grey" stroke="grey" stroke-width="2" points="884.7,-180.24 893.27,-174.01 882.69,-173.53 884.7,-180.24"/>
</g>
<!-- 20&#45;&gt;17 -->
<g id="edge47" class="edge">
<title>20&#45;&gt;17</title>
<path fill="none" stroke="grey" stroke-width="2" d="M1362.18,-359.2C1407.17,-329.84 1483.98,-269.2 1448.57,-216 1411.3,-159.98 1213.7,-117.56 1117.83,-99.94"/>
<polygon fill="grey" stroke="grey" stroke-width="2" points="1118.73,-96.54 1108.26,-98.21 1117.48,-103.43 1118.73,-96.54"/>
</g>
<!-- 20&#45;&gt;22 -->
<g id="edge75" class="edge">
<title>20&#45;&gt;22</title>
<path fill="none" stroke="grey" stroke-width="2" d="M1282.69,-371.33C1168.23,-358.32 887.6,-326.43 769.9,-313.06"/>
<polygon fill="grey" stroke="grey" stroke-width="2" points="770.37,-309.59 760.04,-311.94 769.58,-316.55 770.37,-309.59"/>
</g>
<!-- 20&#45;&gt;26 -->
<g id="edge84" class="edge">
<title>20&#45;&gt;26</title>
<path fill="none" stroke="grey" stroke-width="2" d="M1301.08,-359.06C1260.33,-335.56 1187.45,-292.57 1127.57,-252 1105.5,-237.04 1103.04,-228.66 1079.57,-216 1048.38,-199.17 1010.73,-185.71 981.35,-176.57"/>
<polygon fill="grey" stroke="grey" stroke-width="2" points="982.37,-173.22 971.79,-173.67 980.34,-179.92 982.37,-173.22"/>
</g>
<!-- 21 -->
<g id="node22" class="node">
<title>21</title>
<path fill="none" stroke="#d8cb56" stroke-width="2" d="M623.07,-252C623.07,-252 586.07,-252 586.07,-252 580.07,-252 574.07,-246 574.07,-240 574.07,-240 574.07,-228 574.07,-228 574.07,-222 580.07,-216 586.07,-216 586.07,-216 623.07,-216 623.07,-216 629.07,-216 635.07,-222 635.07,-228 635.07,-228 635.07,-240 635.07,-240 635.07,-246 629.07,-252 623.07,-252"/>
<text text-anchor="middle" x="604.57" y="-231.5" font-family="sans" font-size="10.00">subindex</text>
</g>
<!-- 21&#45;&gt;17 -->
<g id="edge43" class="edge">
<title>21&#45;&gt;17</title>
<path fill="none" stroke="grey" stroke-width="2" d="M619.63,-215.29C638.41,-194.51 672.57,-160.77 709.57,-144 762.64,-119.95 927.29,-102.82 1012.81,-95.28"/>
<polygon fill="grey" stroke="grey" stroke-width="2" points="1012.9,-98.79 1022.56,-94.44 1012.29,-91.81 1012.9,-98.79"/>
</g>
<!-- 21&#45;&gt;26 -->
<g id="edge80" class="edge">
<title>21&#45;&gt;26</title>
<path fill="none" stroke="grey" stroke-width="2" d="M635.81,-220.39C640.38,-218.78 645.07,-217.26 649.57,-216 730.4,-193.36 826.95,-177.61 883.83,-169.46"/>
<polygon fill="grey" stroke="grey" stroke-width="2" points="883.96,-172.98 893.37,-168.12 882.98,-166.05 883.96,-172.98"/>
</g>
<!-- 22&#45;&gt;17 -->
<g id="edge57" class="edge">
<title>22&#45;&gt;17</title>
<path fill="none" stroke="grey" stroke-width="2" d="M676.33,-303.29C640.42,-299.37 589.74,-287.43 564.57,-252 555.31,-238.96 557.68,-230.44 564.57,-216 586.49,-170.08 606.79,-164 653.57,-144 717.14,-116.82 916.59,-100.62 1012.73,-94.2"/>
<polygon fill="grey" stroke="grey" stroke-width="2" points="1012.82,-97.71 1022.57,-93.56 1012.36,-90.72 1012.82,-97.71"/>
</g>
<!-- 22&#45;&gt;21 -->
<g id="edge64" class="edge">
<title>22&#45;&gt;21</title>
<path fill="none" stroke="grey" stroke-width="2" d="M688.02,-287.15C674.59,-278.76 658.37,-268.62 643.81,-259.52"/>
<polygon fill="grey" stroke="grey" stroke-width="2" points="645.98,-256.75 635.64,-254.42 642.27,-262.68 645.98,-256.75"/>
</g>
<!-- 22&#45;&gt;26 -->
<g id="edge93" class="edge">
<title>22&#45;&gt;26</title>
<path fill="none" stroke="grey" stroke-width="2" d="M736.6,-287.35C762.33,-264.85 805.81,-227.47 823.57,-216 842.68,-203.67 865.08,-192.3 884.59,-183.29"/>
<polygon fill="grey" stroke="grey" stroke-width="2" points="885.88,-186.54 893.55,-179.23 882.99,-180.17 885.88,-186.54"/>
</g>
<!-- 23&#45;&gt;17 -->
<g id="edge44" class="edge">
<title>23&#45;&gt;17</title>
<path fill="none" stroke="grey" stroke-width="2" d="M1261.3,-215.12C1247.01,-195.42 1221.73,-163.91 1193.57,-144 1170.66,-127.8 1142.05,-115.36 1117.69,-106.61"/>
<polygon fill="grey" stroke="grey" stroke-width="2" points="1118.85,-103.31 1108.26,-103.36 1116.57,-109.93 1118.85,-103.31"/>
</g>
<!-- 23&#45;&gt;26 -->
<g id="edge81" class="edge">
<title>23&#45;&gt;26</title>
<path fill="none" stroke="grey" stroke-width="2" d="M1207.42,-219.42C1141.16,-205.82 1040.73,-185.2 981.38,-173.02"/>
<polygon fill="grey" stroke="grey" stroke-width="2" points="982.12,-169.6 971.62,-171.02 980.71,-176.45 982.12,-169.6"/>
</g>
<!-- 24 -->
<g id="node25" class="node">
<title>24</title>
<path fill="none" stroke="#5692d8" stroke-width="2" d="M1427.57,-252C1427.57,-252 1369.57,-252 1369.57,-252 1363.57,-252 1357.57,-246 1357.57,-240 1357.57,-240 1357.57,-228 1357.57,-228 1357.57,-222 1363.57,-216 1369.57,-216 1369.57,-216 1427.57,-216 1427.57,-216 1433.57,-216 1439.57,-222 1439.57,-228 1439.57,-228 1439.57,-240 1439.57,-240 1439.57,-246 1433.57,-252 1427.57,-252"/>
<text text-anchor="middle" x="1398.57" y="-231.5" font-family="sans" font-size="10.00">make_graphs</text>
</g>
<!-- 24&#45;&gt;17 -->
<g id="edge58" class="edge">
<title>24&#45;&gt;17</title>
<path fill="none" stroke="grey" stroke-width="2" d="M1367.59,-215.05C1333.7,-195.88 1277.41,-165.36 1226.57,-144 1190.89,-129.01 1149.37,-115.43 1117.43,-105.77"/>
<polygon fill="grey" stroke="grey" stroke-width="2" points="1118.74,-102.51 1108.16,-103 1116.74,-109.21 1118.74,-102.51"/>
</g>
<!-- 24&#45;&gt;26 -->
<g id="edge94" class="edge">
<title>24&#45;&gt;26</title>
<path fill="none" stroke="grey" stroke-width="2" d="M1356.74,-218.09C1353.99,-217.33 1351.25,-216.62 1348.57,-216 1217.98,-185.8 1060.08,-171.63 981.68,-166.05"/>
<polygon fill="grey" stroke="grey" stroke-width="2" points="982.13,-162.57 971.92,-165.37 981.65,-169.55 982.13,-162.57"/>
</g>
<!-- 25&#45;&gt;17 -->
<g id="edge50" class="edge">
<title>25&#45;&gt;17</title>
<path fill="none" stroke="grey" stroke-width="2" d="M1563.38,-215.15C1546.82,-194.24 1516.34,-160.36 1481.57,-144 1418.26,-114.21 1215.51,-99.28 1118.4,-93.68"/>
<polygon fill="grey" stroke="grey" stroke-width="2" points="1118.62,-90.19 1108.44,-93.13 1118.23,-97.18 1118.62,-90.19"/>
</g>
<!-- 25&#45;&gt;26 -->
<g id="edge86" class="edge">
<title>25&#45;&gt;26</title>
<path fill="none" stroke="grey" stroke-width="2" d="M1495.36,-221.85C1479.84,-219.82 1463.71,-217.78 1448.57,-216 1277.23,-195.83 1073.36,-176.17 981.61,-167.55"/>
<polygon fill="grey" stroke="grey" stroke-width="2" points="982.2,-164.09 971.91,-166.64 981.54,-171.06 982.2,-164.09"/>
</g>
<!-- 26&#45;&gt;17 -->
<g id="edge48" class="edge">
<title>26&#45;&gt;17</title>
<path fill="none" stroke="grey" stroke-width="2" d="M966.48,-143.15C982.82,-134.56 1002.64,-124.12 1020.25,-114.85"/>
<polygon fill="grey" stroke="grey" stroke-width="2" points="1021.83,-117.98 1029.05,-110.22 1018.57,-111.78 1021.83,-117.98"/>
</g>
</g>
</svg>
