<?xml version="1.0" encoding="UTF-8" standalone="no"?>
<!DOCTYPE svg PUBLIC "-//W3C//DTD SVG 1.1//EN"
 "http://www.w3.org/Graphics/SVG/1.1/DTD/svg11.dtd">
<!-- Generated by graphviz version 6.0.1 (20220911.2005)
 -->
<!-- Title: snakemake_dag Pages: 1 -->
<svg width="1676pt" height="1196pt"
 viewBox="0.00 0.00 1676.00 1196.00" xmlns="http://www.w3.org/2000/svg" xmlns:xlink="http://www.w3.org/1999/xlink">
<g id="graph0" class="graph" transform="scale(1 1) rotate(0) translate(4 1192)">
<title>snakemake_dag</title>
<polygon fill="white" stroke="none" points="-4,4 -4,-1192 1672,-1192 1672,4 -4,4"/>
<!-- 0 -->
<g id="node1" class="node">
<title>0</title>
<path fill="none" stroke="#d86e56" stroke-width="2" d="M129,-36C129,-36 99,-36 99,-36 93,-36 87,-30 87,-24 87,-24 87,-12 87,-12 87,-6 93,0 99,0 99,0 129,0 129,0 135,0 141,-6 141,-12 141,-12 141,-24 141,-24 141,-30 135,-36 129,-36"/>
<text text-anchor="middle" x="114" y="-15.5" font-family="sans" font-size="10.00">all</text>
</g>
<!-- 1 -->
<g id="node2" class="node">
<title>1</title>
<path fill="none" stroke="#68d856" stroke-width="2" d="M705,-828C705,-828 645,-828 645,-828 639,-828 633,-822 633,-816 633,-816 633,-804 633,-804 633,-798 639,-792 645,-792 645,-792 705,-792 705,-792 711,-792 717,-798 717,-804 717,-804 717,-816 717,-816 717,-822 711,-828 705,-828"/>
<text text-anchor="middle" x="675" y="-807.5" font-family="sans" font-size="10.00">variant_counts</text>
</g>
<!-- 1&#45;&gt;0 -->
<g id="edge3" class="edge">
<title>1&#45;&gt;0</title>
<path fill="none" stroke="grey" stroke-width="2" d="M632.7,-798.12C602.34,-789.29 561.11,-775.15 528,-756 330.49,-641.76 265.27,-599.46 162,-396 103.05,-279.87 109.81,-238.22 108,-108 107.78,-92 107.1,-87.97 108,-72 108.48,-63.55 109.38,-54.38 110.34,-46.07"/>
<polygon fill="grey" stroke="grey" stroke-width="2" points="113.81,-46.5 111.56,-36.14 106.87,-45.64 113.81,-46.5"/>
</g>
<!-- 10 -->
<g id="node11" class="node">
<title>10</title>
<path fill="none" stroke="#56a9d8" stroke-width="2" d="M989.5,-756C989.5,-756 890.5,-756 890.5,-756 884.5,-756 878.5,-750 878.5,-744 878.5,-744 878.5,-732 878.5,-732 878.5,-726 884.5,-720 890.5,-720 890.5,-720 989.5,-720 989.5,-720 995.5,-720 1001.5,-726 1001.5,-732 1001.5,-732 1001.5,-744 1001.5,-744 1001.5,-750 995.5,-756 989.5,-756"/>
<text text-anchor="middle" x="940" y="-735.5" font-family="sans" font-size="10.00">analyze_variant_counts</text>
</g>
<!-- 1&#45;&gt;10 -->
<g id="edge21" class="edge">
<title>1&#45;&gt;10</title>
<path fill="none" stroke="grey" stroke-width="2" d="M717.28,-797.83C757.89,-787.11 820.01,-770.7 868.34,-757.93"/>
<polygon fill="grey" stroke="grey" stroke-width="2" points="869.35,-761.28 878.12,-755.34 867.56,-754.51 869.35,-761.28"/>
</g>
<!-- 14 -->
<g id="node15" class="node">
<title>14</title>
<path fill="none" stroke="#a7d856" stroke-width="2" d="M482.5,-612C482.5,-612 435.5,-612 435.5,-612 429.5,-612 423.5,-606 423.5,-600 423.5,-600 423.5,-588 423.5,-588 423.5,-582 429.5,-576 435.5,-576 435.5,-576 482.5,-576 482.5,-576 488.5,-576 494.5,-582 494.5,-588 494.5,-588 494.5,-600 494.5,-600 494.5,-606 488.5,-612 482.5,-612"/>
<text text-anchor="middle" x="459" y="-591.5" font-family="sans" font-size="10.00">func_scores</text>
</g>
<!-- 1&#45;&gt;14 -->
<g id="edge31" class="edge">
<title>1&#45;&gt;14</title>
<path fill="none" stroke="grey" stroke-width="2" d="M666.87,-791.88C651,-759.99 613.12,-690.85 564,-648 546.54,-632.77 523.94,-620.63 504.18,-611.84"/>
<polygon fill="grey" stroke="grey" stroke-width="2" points="505.31,-608.51 494.74,-607.79 502.55,-614.95 505.31,-608.51"/>
</g>
<!-- 16 -->
<g id="node17" class="node">
<title>16</title>
<path fill="none" stroke="#56d892" stroke-width="2" d="M1072.5,-612C1072.5,-612 1021.5,-612 1021.5,-612 1015.5,-612 1009.5,-606 1009.5,-600 1009.5,-600 1009.5,-588 1009.5,-588 1009.5,-582 1015.5,-576 1021.5,-576 1021.5,-576 1072.5,-576 1072.5,-576 1078.5,-576 1084.5,-582 1084.5,-588 1084.5,-588 1084.5,-600 1084.5,-600 1084.5,-606 1078.5,-612 1072.5,-612"/>
<text text-anchor="middle" x="1047" y="-591.5" font-family="sans" font-size="10.00">prob_escape</text>
</g>
<!-- 1&#45;&gt;16 -->
<g id="edge38" class="edge">
<title>1&#45;&gt;16</title>
<path fill="none" stroke="grey" stroke-width="2" d="M710.48,-791.94C757.73,-768.89 843.54,-725.84 914,-684 949.2,-663.1 987.94,-636.78 1014.48,-618.19"/>
<polygon fill="grey" stroke="grey" stroke-width="2" points="1016.83,-620.82 1022.99,-612.21 1012.8,-615.1 1016.83,-620.82"/>
</g>
<!-- 17 -->
<g id="node18" class="node">
<title>17</title>
<path fill="none" stroke="#d89556" stroke-width="2" d="M932,-108C932,-108 882,-108 882,-108 876,-108 870,-102 870,-96 870,-96 870,-84 870,-84 870,-78 876,-72 882,-72 882,-72 932,-72 932,-72 938,-72 944,-78 944,-84 944,-84 944,-96 944,-96 944,-102 938,-108 932,-108"/>
<text text-anchor="middle" x="907" y="-87.5" font-family="sans" font-size="10.00">sphinx_build</text>
</g>
<!-- 1&#45;&gt;17 -->
<g id="edge48" class="edge">
<title>1&#45;&gt;17</title>
<path fill="none" stroke="grey" stroke-width="2" d="M642.83,-791.81C589.12,-761.72 480.51,-694.75 414,-612 280.27,-445.61 138.48,-276.31 306,-144 349.12,-109.95 725.28,-96.11 859.59,-92.23"/>
<polygon fill="grey" stroke="grey" stroke-width="2" points="860.06,-95.72 869.96,-91.93 859.86,-88.72 860.06,-95.72"/>
</g>
<!-- 25 -->
<g id="node26" class="node">
<title>25</title>
<path fill="none" stroke="#b6d856" stroke-width="2" d="M851.5,-180C851.5,-180 808.5,-180 808.5,-180 802.5,-180 796.5,-174 796.5,-168 796.5,-168 796.5,-156 796.5,-156 796.5,-150 802.5,-144 808.5,-144 808.5,-144 851.5,-144 851.5,-144 857.5,-144 863.5,-150 863.5,-156 863.5,-156 863.5,-168 863.5,-168 863.5,-174 857.5,-180 851.5,-180"/>
<text text-anchor="middle" x="830" y="-159.5" font-family="sans" font-size="10.00">docs_index</text>
</g>
<!-- 1&#45;&gt;25 -->
<g id="edge83" class="edge">
<title>1&#45;&gt;25</title>
<path fill="none" stroke="grey" stroke-width="2" d="M677.82,-791.85C687.08,-733.94 716,-540.23 716,-379 716,-379 716,-379 716,-305 716,-264.03 715.17,-248.59 740,-216 746.67,-207.24 767.26,-194.87 787.06,-184.28"/>
<polygon fill="grey" stroke="grey" stroke-width="2" points="788.82,-187.31 796.05,-179.56 785.57,-181.11 788.82,-187.31"/>
</g>
<!-- 2 -->
<g id="node3" class="node">
<title>2</title>
<path fill="none" stroke="#8fd856" stroke-width="2" d="M809.5,-900C809.5,-900 744.5,-900 744.5,-900 738.5,-900 732.5,-894 732.5,-888 732.5,-888 732.5,-876 732.5,-876 732.5,-870 738.5,-864 744.5,-864 744.5,-864 809.5,-864 809.5,-864 815.5,-864 821.5,-870 821.5,-876 821.5,-876 821.5,-888 821.5,-888 821.5,-894 815.5,-900 809.5,-900"/>
<text text-anchor="middle" x="777" y="-879.5" font-family="sans" font-size="10.00">count_barcodes</text>
</g>
<!-- 2&#45;&gt;1 -->
<g id="edge8" class="edge">
<title>2&#45;&gt;1</title>
<path fill="none" stroke="grey" stroke-width="2" d="M752.05,-863.88C738.96,-854.89 722.74,-843.76 708.56,-834.03"/>
<polygon fill="grey" stroke="grey" stroke-width="2" points="710.27,-830.96 700.05,-828.19 706.31,-836.73 710.27,-830.96"/>
</g>
<!-- 2&#45;&gt;10 -->
<g id="edge19" class="edge">
<title>2&#45;&gt;10</title>
<path fill="none" stroke="grey" stroke-width="2" d="M796.03,-863.78C816.05,-845.73 848.53,-816.64 877,-792 888.2,-782.31 900.65,-771.78 911.51,-762.69"/>
<polygon fill="grey" stroke="grey" stroke-width="2" points="914.02,-765.14 919.45,-756.04 909.53,-759.77 914.02,-765.14"/>
</g>
<!-- 3 -->
<g id="node4" class="node">
<title>3</title>
<path fill="none" stroke="#56b9d8" stroke-width="2" d="M915.5,-972C915.5,-972 826.5,-972 826.5,-972 820.5,-972 814.5,-966 814.5,-960 814.5,-960 814.5,-948 814.5,-948 814.5,-942 820.5,-936 826.5,-936 826.5,-936 915.5,-936 915.5,-936 921.5,-936 927.5,-942 927.5,-948 927.5,-948 927.5,-960 927.5,-960 927.5,-966 921.5,-972 915.5,-972"/>
<text text-anchor="middle" x="871" y="-951.5" font-family="sans" font-size="10.00">build_codon_variants</text>
</g>
<!-- 3&#45;&gt;1 -->
<g id="edge7" class="edge">
<title>3&#45;&gt;1</title>
<path fill="none" stroke="grey" stroke-width="2" d="M814.46,-942.68C784.87,-934.96 749.58,-921.85 724,-900 704.7,-883.52 691.61,-857.44 683.85,-837.76"/>
<polygon fill="grey" stroke="grey" stroke-width="2" points="687.04,-836.3 680.28,-828.14 680.48,-838.74 687.04,-836.3"/>
</g>
<!-- 3&#45;&gt;2 -->
<g id="edge9" class="edge">
<title>3&#45;&gt;2</title>
<path fill="none" stroke="grey" stroke-width="2" d="M847.76,-935.7C835.81,-926.8 821.08,-915.82 808.15,-906.2"/>
<polygon fill="grey" stroke="grey" stroke-width="2" points="810.08,-903.27 799.97,-900.1 805.9,-908.88 810.08,-903.27"/>
</g>
<!-- 3&#45;&gt;10 -->
<g id="edge18" class="edge">
<title>3&#45;&gt;10</title>
<path fill="none" stroke="grey" stroke-width="2" d="M875.56,-935.92C883.58,-906.35 901.05,-843.81 919,-792 922.03,-783.26 925.64,-773.84 929.01,-765.4"/>
<polygon fill="grey" stroke="grey" stroke-width="2" points="932.29,-766.63 932.81,-756.04 925.81,-764 932.29,-766.63"/>
</g>
<!-- 3&#45;&gt;14 -->
<g id="edge29" class="edge">
<title>3&#45;&gt;14</title>
<path fill="none" stroke="grey" stroke-width="2" d="M814.23,-944.11C777.37,-936.49 729.42,-922.99 692,-900 577.71,-829.79 499.1,-681.42 470.72,-621.21"/>
<polygon fill="grey" stroke="grey" stroke-width="2" points="473.83,-619.6 466.45,-612.01 467.48,-622.55 473.83,-619.6"/>
</g>
<!-- 3&#45;&gt;16 -->
<g id="edge36" class="edge">
<title>3&#45;&gt;16</title>
<path fill="none" stroke="grey" stroke-width="2" d="M882.45,-935.6C889.02,-925.38 897.27,-912.13 904,-900 929.94,-853.25 921.76,-832.22 957,-792 976.01,-770.31 994.68,-779.78 1011,-756 1038.93,-715.3 1045.57,-656.43 1046.93,-622.3"/>
<polygon fill="grey" stroke="grey" stroke-width="2" points="1050.43,-622.23 1047.2,-612.14 1043.43,-622.04 1050.43,-622.23"/>
</g>
<!-- 3&#45;&gt;17 -->
<g id="edge55" class="edge">
<title>3&#45;&gt;17</title>
<path fill="none" stroke="grey" stroke-width="2" d="M814.29,-946.52C766.6,-939.54 697.52,-925.78 642,-900 384.7,-780.55 193.61,-715.31 208,-432 214.62,-301.6 157.86,-217.17 266,-144 314.84,-110.95 719.55,-96.36 859.56,-92.26"/>
<polygon fill="grey" stroke="grey" stroke-width="2" points="860.06,-95.75 869.95,-91.96 859.85,-88.75 860.06,-95.75"/>
</g>
<!-- 21 -->
<g id="node22" class="node">
<title>21</title>
<path fill="none" stroke="#56d87b" stroke-width="2" d="M1102,-324C1102,-324 1052,-324 1052,-324 1046,-324 1040,-318 1040,-312 1040,-312 1040,-300 1040,-300 1040,-294 1046,-288 1052,-288 1052,-288 1102,-288 1102,-288 1108,-288 1114,-294 1114,-300 1114,-300 1114,-312 1114,-312 1114,-318 1108,-324 1102,-324"/>
<text text-anchor="middle" x="1077" y="-303.5" font-family="sans" font-size="10.00">make_nblink</text>
</g>
<!-- 3&#45;&gt;21 -->
<g id="edge65" class="edge">
<title>3&#45;&gt;21</title>
<path fill="none" stroke="grey" stroke-width="2" d="M903.69,-935.93C971.87,-897.71 1123,-798.2 1123,-667 1123,-667 1123,-667 1123,-521 1123,-452.31 1100.06,-373.92 1086.58,-333.79"/>
<polygon fill="grey" stroke="grey" stroke-width="2" points="1089.85,-332.53 1083.3,-324.21 1083.23,-334.8 1089.85,-332.53"/>
</g>
<!-- 3&#45;&gt;25 -->
<g id="edge77" class="edge">
<title>3&#45;&gt;25</title>
<path fill="none" stroke="grey" stroke-width="2" d="M863.74,-935.75C856.01,-917.68 843.25,-888.56 831,-864 790.25,-782.3 754.71,-772.43 732,-684 728.02,-668.5 731.35,-663.99 732,-648 736.89,-528.15 754,-498.95 754,-379 754,-379 754,-379 754,-305 754,-259.64 784.52,-214.75 806.88,-187.95"/>
<polygon fill="grey" stroke="grey" stroke-width="2" points="809.64,-190.09 813.51,-180.23 804.34,-185.53 809.64,-190.09"/>
</g>
<!-- 4 -->
<g id="node5" class="node">
<title>4</title>
<path fill="none" stroke="#56d8a9" stroke-width="2" d="M1417,-1044C1417,-1044 1315,-1044 1315,-1044 1309,-1044 1303,-1038 1303,-1032 1303,-1032 1303,-1020 1303,-1020 1303,-1014 1309,-1008 1315,-1008 1315,-1008 1417,-1008 1417,-1008 1423,-1008 1429,-1014 1429,-1020 1429,-1020 1429,-1032 1429,-1032 1429,-1038 1423,-1044 1417,-1044"/>
<text text-anchor="middle" x="1366" y="-1023.5" font-family="sans" font-size="10.00">build_pacbio_consensus</text>
</g>
<!-- 4&#45;&gt;3 -->
<g id="edge11" class="edge">
<title>4&#45;&gt;3</title>
<path fill="none" stroke="grey" stroke-width="2" d="M1302.81,-1016.06C1209.01,-1002.8 1033.73,-978.01 937.86,-964.45"/>
<polygon fill="grey" stroke="grey" stroke-width="2" points="938.09,-960.95 927.7,-963.02 937.11,-967.88 938.09,-960.95"/>
</g>
<!-- 4&#45;&gt;17 -->
<g id="edge52" class="edge">
<title>4&#45;&gt;17</title>
<path fill="none" stroke="grey" stroke-width="2" d="M1377.51,-1007.83C1428.33,-930.36 1630,-604.17 1630,-307 1630,-307 1630,-307 1630,-233 1630,-94.76 1114.67,-88.73 954.15,-90.2"/>
<polygon fill="grey" stroke="grey" stroke-width="2" points="954.06,-86.7 944.1,-90.31 954.13,-93.7 954.06,-86.7"/>
</g>
<!-- 4&#45;&gt;21 -->
<g id="edge63" class="edge">
<title>4&#45;&gt;21</title>
<path fill="none" stroke="grey" stroke-width="2" d="M1362.96,-1007.57C1358.58,-980.86 1351,-928.12 1351,-883 1351,-883 1351,-883 1351,-593 1351,-575.98 1232.16,-397.37 1188,-360 1177.4,-351.03 1148.93,-337.5 1123.48,-326.35"/>
<polygon fill="grey" stroke="grey" stroke-width="2" points="1124.85,-323.13 1114.28,-322.37 1122.06,-329.56 1124.85,-323.13"/>
</g>
<!-- 4&#45;&gt;25 -->
<g id="edge75" class="edge">
<title>4&#45;&gt;25</title>
<path fill="none" stroke="grey" stroke-width="2" d="M1355.02,-1007.84C1339.49,-981.89 1313,-930.63 1313,-883 1313,-883 1313,-883 1313,-737 1313,-688.79 1281.29,-685.51 1251,-648 1099.87,-460.83 1025.56,-445.04 882,-252 867.09,-231.95 852.97,-207.29 843.22,-189.01"/>
<polygon fill="grey" stroke="grey" stroke-width="2" points="846.28,-187.32 838.53,-180.1 840.09,-190.58 846.28,-187.32"/>
</g>
<!-- 5 -->
<g id="node6" class="node">
<title>5</title>
<path fill="none" stroke="#ced856" stroke-width="2" d="M1574,-1116C1574,-1116 1494,-1116 1494,-1116 1488,-1116 1482,-1110 1482,-1104 1482,-1104 1482,-1092 1482,-1092 1482,-1086 1488,-1080 1494,-1080 1494,-1080 1574,-1080 1574,-1080 1580,-1080 1586,-1086 1586,-1092 1586,-1092 1586,-1104 1586,-1104 1586,-1110 1580,-1116 1574,-1116"/>
<text text-anchor="middle" x="1534" y="-1095.5" font-family="sans" font-size="10.00">analyze_pacbio_ccs</text>
</g>
<!-- 5&#45;&gt;4 -->
<g id="edge14" class="edge">
<title>5&#45;&gt;4</title>
<path fill="none" stroke="grey" stroke-width="2" d="M1492.9,-1079.88C1469.83,-1070.26 1440.86,-1058.19 1416.43,-1048.01"/>
<polygon fill="grey" stroke="grey" stroke-width="2" points="1417.54,-1044.68 1406.96,-1044.07 1414.85,-1051.15 1417.54,-1044.68"/>
</g>
<!-- 5&#45;&gt;17 -->
<g id="edge45" class="edge">
<title>5&#45;&gt;17</title>
<path fill="none" stroke="grey" stroke-width="2" d="M1567.81,-1080C1607.51,-1057.36 1668,-1013.3 1668,-955 1668,-955 1668,-955 1668,-233 1668,-174.82 1625.28,-167.38 1572,-144 1461.13,-95.34 1087.76,-90.81 954.64,-90.79"/>
<polygon fill="grey" stroke="grey" stroke-width="2" points="954.36,-87.29 944.36,-90.79 954.37,-94.29 954.36,-87.29"/>
</g>
<!-- 5&#45;&gt;21 -->
<g id="edge70" class="edge">
<title>5&#45;&gt;21</title>
<path fill="none" stroke="grey" stroke-width="2" d="M1539.87,-1079.74C1548.34,-1053.25 1563,-1000.79 1563,-955 1563,-955 1563,-955 1563,-809 1563,-557.07 1422.31,-506.01 1217,-360 1181.77,-334.95 1164.7,-339.83 1123.54,-325.55"/>
<polygon fill="grey" stroke="grey" stroke-width="2" points="1124.67,-322.24 1114.08,-322.08 1122.26,-328.81 1124.67,-322.24"/>
</g>
<!-- 5&#45;&gt;25 -->
<g id="edge90" class="edge">
<title>5&#45;&gt;25</title>
<path fill="none" stroke="grey" stroke-width="2" d="M1528.33,-1079.73C1520.15,-1053.21 1506,-1000.73 1506,-955 1506,-955 1506,-955 1506,-881 1506,-785.51 1487,-762.49 1487,-667 1487,-667 1487,-667 1487,-449 1487,-402.03 1467.56,-388.2 1430,-360 1339.58,-292.11 1295.16,-317.46 1186,-288 1121.06,-270.48 1099.01,-282.38 1039,-252 1016.76,-240.74 1017.84,-228.02 996,-216 957.04,-194.56 908.09,-180.27 873.47,-171.98"/>
<polygon fill="grey" stroke="grey" stroke-width="2" points="874.19,-168.56 863.66,-169.71 872.61,-175.38 874.19,-168.56"/>
</g>
<!-- 6 -->
<g id="node7" class="node">
<title>6</title>
<path fill="none" stroke="#56d8d0" stroke-width="2" d="M1583,-1188C1583,-1188 1485,-1188 1485,-1188 1479,-1188 1473,-1182 1473,-1176 1473,-1176 1473,-1164 1473,-1164 1473,-1158 1479,-1152 1485,-1152 1485,-1152 1583,-1152 1583,-1152 1589,-1152 1595,-1158 1595,-1164 1595,-1164 1595,-1176 1595,-1176 1595,-1182 1589,-1188 1583,-1188"/>
<text text-anchor="middle" x="1534" y="-1167.5" font-family="sans" font-size="10.00">align_parse_PacBio_ccs</text>
</g>
<!-- 6&#45;&gt;5 -->
<g id="edge15" class="edge">
<title>6&#45;&gt;5</title>
<path fill="none" stroke="grey" stroke-width="2" d="M1534,-1151.7C1534,-1143.98 1534,-1134.71 1534,-1126.11"/>
<polygon fill="grey" stroke="grey" stroke-width="2" points="1537.5,-1126.1 1534,-1116.1 1530.5,-1126.1 1537.5,-1126.1"/>
</g>
<!-- 7 -->
<g id="node8" class="node">
<title>7</title>
<path fill="none" stroke="#80d856" stroke-width="2" d="M904,-1116C904,-1116 838,-1116 838,-1116 832,-1116 826,-1110 826,-1104 826,-1104 826,-1092 826,-1092 826,-1086 832,-1080 838,-1080 838,-1080 904,-1080 904,-1080 910,-1080 916,-1086 916,-1092 916,-1092 916,-1104 916,-1104 916,-1110 910,-1116 904,-1116"/>
<text text-anchor="middle" x="871" y="-1095.5" font-family="sans" font-size="10.00">gene_sequence</text>
</g>
<!-- 7&#45;&gt;1 -->
<g id="edge6" class="edge">
<title>7&#45;&gt;1</title>
<path fill="none" stroke="grey" stroke-width="2" d="M848.96,-1079.89C810.41,-1048.65 731.12,-978.34 692,-900 682.37,-880.71 678.17,-856.55 676.36,-838.28"/>
<polygon fill="grey" stroke="grey" stroke-width="2" points="679.85,-837.96 675.54,-828.28 672.87,-838.53 679.85,-837.96"/>
</g>
<!-- 7&#45;&gt;3 -->
<g id="edge10" class="edge">
<title>7&#45;&gt;3</title>
<path fill="none" stroke="grey" stroke-width="2" d="M871,-1079.87C871,-1055.67 871,-1011.21 871,-982.39"/>
<polygon fill="grey" stroke="grey" stroke-width="2" points="874.5,-982.19 871,-972.19 867.5,-982.19 874.5,-982.19"/>
</g>
<!-- 7&#45;&gt;4 -->
<g id="edge13" class="edge">
<title>7&#45;&gt;4</title>
<path fill="none" stroke="grey" stroke-width="2" d="M916.05,-1092.65C992.88,-1084.93 1154.04,-1067.4 1289,-1044 1290.25,-1043.78 1291.51,-1043.56 1292.78,-1043.33"/>
<polygon fill="grey" stroke="grey" stroke-width="2" points="1293.46,-1046.76 1302.64,-1041.47 1292.17,-1039.88 1293.46,-1046.76"/>
</g>
<!-- 8 -->
<g id="node9" class="node">
<title>8</title>
<path fill="none" stroke="#567bd8" stroke-width="2" d="M1022,-1044C1022,-1044 932,-1044 932,-1044 926,-1044 920,-1038 920,-1032 920,-1032 920,-1020 920,-1020 920,-1014 926,-1008 932,-1008 932,-1008 1022,-1008 1022,-1008 1028,-1008 1034,-1014 1034,-1020 1034,-1020 1034,-1032 1034,-1032 1034,-1038 1028,-1044 1022,-1044"/>
<text text-anchor="middle" x="977" y="-1023.5" font-family="sans" font-size="10.00">site_numbering_map</text>
</g>
<!-- 7&#45;&gt;8 -->
<g id="edge16" class="edge">
<title>7&#45;&gt;8</title>
<path fill="none" stroke="grey" stroke-width="2" d="M896.93,-1079.88C910.66,-1070.81 927.71,-1059.55 942.54,-1049.76"/>
<polygon fill="grey" stroke="grey" stroke-width="2" points="944.55,-1052.62 950.97,-1044.19 940.7,-1046.78 944.55,-1052.62"/>
</g>
<!-- 7&#45;&gt;10 -->
<g id="edge20" class="edge">
<title>7&#45;&gt;10</title>
<path fill="none" stroke="grey" stroke-width="2" d="M916.37,-1096.98C956.88,-1094.25 1014.14,-1083.09 1043,-1044 1109.15,-954.4 1009.91,-819.49 962.68,-764.09"/>
<polygon fill="grey" stroke="grey" stroke-width="2" points="965.04,-761.47 955.84,-756.21 959.75,-766.06 965.04,-761.47"/>
</g>
<!-- 7&#45;&gt;14 -->
<g id="edge30" class="edge">
<title>7&#45;&gt;14</title>
<path fill="none" stroke="grey" stroke-width="2" d="M825.81,-1095.18C692.97,-1088.61 313,-1060.59 313,-955 313,-955 313,-955 313,-881 313,-774.02 395.04,-666.72 436.12,-619.69"/>
<polygon fill="grey" stroke="grey" stroke-width="2" points="438.8,-621.95 442.82,-612.15 433.56,-617.3 438.8,-621.95"/>
</g>
<!-- 7&#45;&gt;16 -->
<g id="edge37" class="edge">
<title>7&#45;&gt;16</title>
<path fill="none" stroke="grey" stroke-width="2" d="M916.17,-1090.91C1021.59,-1075.42 1275,-1030.37 1275,-955 1275,-955 1275,-955 1275,-737 1275,-652.72 1161.37,-616.67 1094.55,-602.75"/>
<polygon fill="grey" stroke="grey" stroke-width="2" points="1095.14,-599.3 1084.65,-600.78 1093.77,-606.17 1095.14,-599.3"/>
</g>
<!-- 7&#45;&gt;17 -->
<g id="edge47" class="edge">
<title>7&#45;&gt;17</title>
<path fill="none" stroke="grey" stroke-width="2" d="M825.83,-1096.87C723.58,-1095.76 466.98,-1088.37 258,-1044 139.35,-1018.81 0,-1076.3 0,-955 0,-955 0,-955 0,-305 0,-182.76 108.22,-186.07 223,-144 340.3,-101.01 724.68,-92.89 859.64,-91.35"/>
<polygon fill="grey" stroke="grey" stroke-width="2" points="859.71,-94.85 869.67,-91.25 859.64,-87.85 859.71,-94.85"/>
</g>
<!-- 7&#45;&gt;25 -->
<g id="edge82" class="edge">
<title>7&#45;&gt;25</title>
<path fill="none" stroke="grey" stroke-width="2" d="M825.69,-1095.69C715.11,-1091.98 434.15,-1079.25 348,-1044 289.48,-1020.05 237,-1018.23 237,-955 237,-955 237,-955 237,-521 237,-380.16 215.28,-306.74 323,-216 358.12,-186.42 669.46,-169.97 786.12,-164.8"/>
<polygon fill="grey" stroke="grey" stroke-width="2" points="786.62,-168.28 796.46,-164.35 786.32,-161.29 786.62,-168.28"/>
</g>
<!-- 8&#45;&gt;3 -->
<g id="edge12" class="edge">
<title>8&#45;&gt;3</title>
<path fill="none" stroke="grey" stroke-width="2" d="M951.07,-1007.88C937.34,-998.81 920.29,-987.55 905.46,-977.76"/>
<polygon fill="grey" stroke="grey" stroke-width="2" points="907.3,-974.78 897.03,-972.19 903.45,-980.62 907.3,-974.78"/>
</g>
<!-- 8&#45;&gt;10 -->
<g id="edge22" class="edge">
<title>8&#45;&gt;10</title>
<path fill="none" stroke="grey" stroke-width="2" d="M974.8,-1007.97C968.62,-960.19 951.08,-824.62 943.53,-766.27"/>
<polygon fill="grey" stroke="grey" stroke-width="2" points="946.99,-765.77 942.24,-756.31 940.05,-766.67 946.99,-765.77"/>
</g>
<!-- 11 -->
<g id="node12" class="node">
<title>11</title>
<path fill="none" stroke="#d8a456" stroke-width="2" d="M1408.5,-396C1408.5,-396 1317.5,-396 1317.5,-396 1311.5,-396 1305.5,-390 1305.5,-384 1305.5,-384 1305.5,-372 1305.5,-372 1305.5,-366 1311.5,-360 1317.5,-360 1317.5,-360 1408.5,-360 1408.5,-360 1414.5,-360 1420.5,-366 1420.5,-372 1420.5,-372 1420.5,-384 1420.5,-384 1420.5,-390 1414.5,-396 1408.5,-396"/>
<text text-anchor="middle" x="1363" y="-375.5" font-family="sans" font-size="10.00">avg_antibody_escape</text>
</g>
<!-- 8&#45;&gt;11 -->
<g id="edge23" class="edge">
<title>8&#45;&gt;11</title>
<path fill="none" stroke="grey" stroke-width="2" d="M1034.21,-1008.25C1054.75,-999.98 1076.81,-988.21 1093,-972 1137.33,-927.61 1307.56,-514.91 1352.22,-405.51"/>
<polygon fill="grey" stroke="grey" stroke-width="2" points="1355.49,-406.75 1356.03,-396.17 1349.01,-404.11 1355.49,-406.75"/>
</g>
<!-- 13 -->
<g id="node14" class="node">
<title>13</title>
<path fill="none" stroke="#566bd8" stroke-width="2" d="M483,-540C483,-540 409,-540 409,-540 403,-540 397,-534 397,-528 397,-528 397,-516 397,-516 397,-510 403,-504 409,-504 409,-504 483,-504 483,-504 489,-504 495,-510 495,-516 495,-516 495,-528 495,-528 495,-534 489,-540 483,-540"/>
<text text-anchor="middle" x="446" y="-519.5" font-family="sans" font-size="10.00">fit_globalepistasis</text>
</g>
<!-- 8&#45;&gt;13 -->
<g id="edge27" class="edge">
<title>8&#45;&gt;13</title>
<path fill="none" stroke="grey" stroke-width="2" d="M919.65,-1025.45C804.11,-1025.33 548.27,-1019.52 477,-972 409.15,-926.76 389,-892.55 389,-811 389,-811 389,-811 389,-665 389,-621.8 412,-576.19 428.78,-548.66"/>
<polygon fill="grey" stroke="grey" stroke-width="2" points="431.83,-550.37 434.19,-540.04 425.91,-546.65 431.83,-550.37"/>
</g>
<!-- 8&#45;&gt;14 -->
<g id="edge33" class="edge">
<title>8&#45;&gt;14</title>
<path fill="none" stroke="grey" stroke-width="2" d="M919.66,-1024.02C813.67,-1021.27 591.95,-1010.91 527,-972 485.65,-947.22 465,-931.21 465,-883 465,-883 465,-883 465,-737 465,-696.96 462.59,-650.63 460.82,-622.07"/>
<polygon fill="grey" stroke="grey" stroke-width="2" points="464.31,-621.8 460.19,-612.04 457.33,-622.24 464.31,-621.8"/>
</g>
<!-- 15 -->
<g id="node16" class="node">
<title>15</title>
<path fill="none" stroke="#d85656" stroke-width="2" d="M1216.5,-468C1216.5,-468 1163.5,-468 1163.5,-468 1157.5,-468 1151.5,-462 1151.5,-456 1151.5,-456 1151.5,-444 1151.5,-444 1151.5,-438 1157.5,-432 1163.5,-432 1163.5,-432 1216.5,-432 1216.5,-432 1222.5,-432 1228.5,-438 1228.5,-444 1228.5,-444 1228.5,-456 1228.5,-456 1228.5,-462 1222.5,-468 1216.5,-468"/>
<text text-anchor="middle" x="1190" y="-447.5" font-family="sans" font-size="10.00">fit_polyclonal</text>
</g>
<!-- 8&#45;&gt;15 -->
<g id="edge34" class="edge">
<title>8&#45;&gt;15</title>
<path fill="none" stroke="grey" stroke-width="2" d="M1020.69,-1007.81C1037.94,-999.22 1056.77,-987.34 1070,-972 1092.43,-946 1087.27,-932.62 1098,-900 1149.08,-744.66 1177.44,-549.38 1186.64,-478.38"/>
<polygon fill="grey" stroke="grey" stroke-width="2" points="1190.16,-478.44 1187.95,-468.08 1183.21,-477.56 1190.16,-478.44"/>
</g>
<!-- 8&#45;&gt;16 -->
<g id="edge40" class="edge">
<title>8&#45;&gt;16</title>
<path fill="none" stroke="grey" stroke-width="2" d="M1002.32,-1007.83C1034.24,-983.92 1085,-937.36 1085,-883 1085,-883 1085,-883 1085,-737 1085,-695.63 1069.77,-649.72 1058.59,-621.61"/>
<polygon fill="grey" stroke="grey" stroke-width="2" points="1061.72,-620.02 1054.69,-612.09 1055.24,-622.67 1061.72,-620.02"/>
</g>
<!-- 8&#45;&gt;17 -->
<g id="edge58" class="edge">
<title>8&#45;&gt;17</title>
<path fill="none" stroke="grey" stroke-width="2" d="M1034.21,-1012.62C1061.73,-1004.52 1093.89,-991.68 1118,-972 1386.9,-752.49 1523.63,-633.94 1495,-288 1489.25,-218.56 1493.05,-179.35 1433,-144 1352.56,-96.64 1067.89,-91.08 954.31,-90.8"/>
<polygon fill="grey" stroke="grey" stroke-width="2" points="954.18,-87.3 944.18,-90.78 954.18,-94.3 954.18,-87.3"/>
</g>
<!-- 8&#45;&gt;25 -->
<g id="edge88" class="edge">
<title>8&#45;&gt;25</title>
<path fill="none" stroke="grey" stroke-width="2" d="M919.55,-1018.52C801.16,-1003.55 541,-961.71 541,-883 541,-883 541,-883 541,-809 541,-609.06 502.46,-548.54 569,-360 595.1,-286.04 608,-262.72 671,-216 680.54,-208.92 742.59,-189.31 786.29,-176.04"/>
<polygon fill="grey" stroke="grey" stroke-width="2" points="787.58,-179.3 796.14,-173.06 785.55,-172.6 787.58,-179.3"/>
</g>
<!-- 9 -->
<g id="node10" class="node">
<title>9</title>
<path fill="none" stroke="#d8cb56" stroke-width="2" d="M893,-684C893,-684 753,-684 753,-684 747,-684 741,-678 741,-672 741,-672 741,-660 741,-660 741,-654 747,-648 753,-648 753,-648 893,-648 893,-648 899,-648 905,-654 905,-660 905,-660 905,-672 905,-672 905,-678 899,-684 893,-684"/>
<text text-anchor="middle" x="823" y="-663.5" font-family="sans" font-size="10.00">check_adequate_variant_counts</text>
</g>
<!-- 9&#45;&gt;0 -->
<g id="edge5" class="edge">
<title>9&#45;&gt;0</title>
<path fill="none" stroke="grey" stroke-width="2" d="M761.39,-647.88C645.51,-615.61 405.15,-548.25 388,-540 288.32,-492.05 245.43,-488.65 185,-396 111.22,-282.88 109.78,-112.44 112.36,-46.45"/>
<polygon fill="grey" stroke="grey" stroke-width="2" points="115.88,-46.23 112.84,-36.08 108.88,-45.91 115.88,-46.23"/>
</g>
<!-- 9&#45;&gt;14 -->
<g id="edge32" class="edge">
<title>9&#45;&gt;14</title>
<path fill="none" stroke="grey" stroke-width="2" d="M740.93,-654.82C677.13,-646.03 586.72,-631.64 509,-612 507.53,-611.63 506.04,-611.23 504.54,-610.82"/>
<polygon fill="grey" stroke="grey" stroke-width="2" points="505.15,-607.35 494.57,-607.87 503.17,-614.06 505.15,-607.35"/>
</g>
<!-- 9&#45;&gt;16 -->
<g id="edge39" class="edge">
<title>9&#45;&gt;16</title>
<path fill="none" stroke="grey" stroke-width="2" d="M877.51,-647.97C914.92,-636.28 964.06,-620.92 999.79,-609.75"/>
<polygon fill="grey" stroke="grey" stroke-width="2" points="1000.99,-613.04 1009.49,-606.72 998.9,-606.36 1000.99,-613.04"/>
</g>
<!-- 10&#45;&gt;9 -->
<g id="edge17" class="edge">
<title>10&#45;&gt;9</title>
<path fill="none" stroke="grey" stroke-width="2" d="M911.38,-719.88C896.08,-710.72 877.06,-699.34 860.58,-689.48"/>
<polygon fill="grey" stroke="grey" stroke-width="2" points="862.11,-686.32 851.73,-684.19 858.52,-692.33 862.11,-686.32"/>
</g>
<!-- 10&#45;&gt;17 -->
<g id="edge56" class="edge">
<title>10&#45;&gt;17</title>
<path fill="none" stroke="grey" stroke-width="2" d="M971.46,-719.84C1072.48,-664.2 1386.08,-487.17 1456,-396 1485.93,-356.98 1486.64,-336.72 1480,-288 1469.96,-214.36 1461.18,-177.81 1395,-144 1318.71,-105.02 1061.25,-94.58 954.25,-91.89"/>
<polygon fill="grey" stroke="grey" stroke-width="2" points="954.15,-88.39 944.07,-91.65 953.98,-95.38 954.15,-88.39"/>
</g>
<!-- 10&#45;&gt;21 -->
<g id="edge66" class="edge">
<title>10&#45;&gt;21</title>
<path fill="none" stroke="grey" stroke-width="2" d="M945.46,-719.88C966.51,-653.8 1042.56,-415.08 1068.37,-334.1"/>
<polygon fill="grey" stroke="grey" stroke-width="2" points="1071.83,-334.76 1071.53,-324.17 1065.16,-332.64 1071.83,-334.76"/>
</g>
<!-- 10&#45;&gt;25 -->
<g id="edge79" class="edge">
<title>10&#45;&gt;25</title>
<path fill="none" stroke="grey" stroke-width="2" d="M935.54,-719.77C930.73,-701.72 922.6,-672.62 914,-648 869.16,-519.67 804.47,-495.78 811,-360 813.92,-299.24 821.89,-228.31 826.53,-190.33"/>
<polygon fill="grey" stroke="grey" stroke-width="2" points="830.04,-190.44 827.79,-180.09 823.09,-189.58 830.04,-190.44"/>
</g>
<!-- 11&#45;&gt;0 -->
<g id="edge4" class="edge">
<title>11&#45;&gt;0</title>
<path fill="none" stroke="grey" stroke-width="2" d="M1391.14,-359.89C1403.74,-350.78 1417.62,-338.47 1426,-324 1450.23,-282.16 1460.06,-259.52 1439,-216 1416.53,-169.58 1394.99,-165.26 1348,-144 1126.07,-43.6 332.61,-23.03 151.15,-19.6"/>
<polygon fill="grey" stroke="grey" stroke-width="2" points="151.1,-16.1 141.04,-19.42 150.97,-23.1 151.1,-16.1"/>
</g>
<!-- 11&#45;&gt;17 -->
<g id="edge43" class="edge">
<title>11&#45;&gt;17</title>
<path fill="none" stroke="grey" stroke-width="2" d="M1378.85,-359.54C1404.7,-328.84 1450.25,-263.93 1421,-216 1384.55,-156.27 1347.68,-165.2 1281,-144 1167.23,-107.82 1026.14,-96.3 954.12,-92.66"/>
<polygon fill="grey" stroke="grey" stroke-width="2" points="954.16,-89.15 944,-92.17 953.83,-96.15 954.16,-89.15"/>
</g>
<!-- 11&#45;&gt;21 -->
<g id="edge69" class="edge">
<title>11&#45;&gt;21</title>
<path fill="none" stroke="grey" stroke-width="2" d="M1305.25,-363.29C1300.43,-362.17 1295.63,-361.06 1291,-360 1218.67,-343.48 1199.51,-343.76 1128,-324 1126.73,-323.65 1125.45,-323.29 1124.17,-322.92"/>
<polygon fill="grey" stroke="grey" stroke-width="2" points="1124.77,-319.44 1114.19,-319.89 1122.74,-326.14 1124.77,-319.44"/>
</g>
<!-- 24 -->
<g id="node25" class="node">
<title>24</title>
<path fill="none" stroke="#5692d8" stroke-width="2" d="M1399.5,-252C1399.5,-252 1270.5,-252 1270.5,-252 1264.5,-252 1258.5,-246 1258.5,-240 1258.5,-240 1258.5,-228 1258.5,-228 1258.5,-222 1264.5,-216 1270.5,-216 1270.5,-216 1399.5,-216 1399.5,-216 1405.5,-216 1411.5,-222 1411.5,-228 1411.5,-228 1411.5,-240 1411.5,-240 1411.5,-246 1405.5,-252 1399.5,-252"/>
<text text-anchor="middle" x="1335" y="-231.5" font-family="sans" font-size="10.00">format_antibody_escape_plot</text>
</g>
<!-- 11&#45;&gt;24 -->
<g id="edge74" class="edge">
<title>11&#45;&gt;24</title>
<path fill="none" stroke="grey" stroke-width="2" d="M1359.62,-359.87C1354.83,-335.56 1346.01,-290.82 1340.33,-262.01"/>
<polygon fill="grey" stroke="grey" stroke-width="2" points="1343.76,-261.32 1338.39,-252.19 1336.89,-262.68 1343.76,-261.32"/>
</g>
<!-- 11&#45;&gt;25 -->
<g id="edge84" class="edge">
<title>11&#45;&gt;25</title>
<path fill="none" stroke="grey" stroke-width="2" d="M1319.03,-359.84C1271.11,-341.34 1192.02,-311.4 1123,-288 1071.47,-270.53 1054.48,-276.69 1006,-252 982.24,-239.9 981.17,-229.2 958,-216 931.07,-200.65 898.81,-187.32 873.41,-177.87"/>
<polygon fill="grey" stroke="grey" stroke-width="2" points="874.28,-174.46 863.69,-174.32 871.88,-181.04 874.28,-174.46"/>
</g>
<!-- 12 -->
<g id="node13" class="node">
<title>12</title>
<path fill="none" stroke="#56d8b9" stroke-width="2" d="M471.5,-468C471.5,-468 406.5,-468 406.5,-468 400.5,-468 394.5,-462 394.5,-456 394.5,-456 394.5,-444 394.5,-444 394.5,-438 400.5,-432 406.5,-432 406.5,-432 471.5,-432 471.5,-432 477.5,-432 483.5,-438 483.5,-444 483.5,-444 483.5,-456 483.5,-456 483.5,-462 477.5,-468 471.5,-468"/>
<text text-anchor="middle" x="439" y="-447.5" font-family="sans" font-size="10.00">avg_muteffects</text>
</g>
<!-- 12&#45;&gt;0 -->
<g id="edge1" class="edge">
<title>12&#45;&gt;0</title>
<path fill="none" stroke="grey" stroke-width="2" d="M412.55,-431.99C366.49,-401.18 271.03,-331.86 214,-252 166.06,-184.87 134.72,-91.16 121.37,-45.76"/>
<polygon fill="grey" stroke="grey" stroke-width="2" points="124.7,-44.71 118.57,-36.07 117.98,-46.65 124.7,-44.71"/>
</g>
<!-- 12&#45;&gt;11 -->
<g id="edge25" class="edge">
<title>12&#45;&gt;11</title>
<path fill="none" stroke="grey" stroke-width="2" d="M483.57,-445.62C632.89,-434.31 1116.18,-397.7 1295.35,-384.12"/>
<polygon fill="grey" stroke="grey" stroke-width="2" points="1295.73,-387.61 1305.44,-383.36 1295.2,-380.63 1295.73,-387.61"/>
</g>
<!-- 12&#45;&gt;17 -->
<g id="edge53" class="edge">
<title>12&#45;&gt;17</title>
<path fill="none" stroke="grey" stroke-width="2" d="M425.98,-431.88C391.33,-385.39 301,-257.53 323,-216 349.66,-165.67 375.57,-163.72 429,-144 507.29,-115.11 754.73,-99.02 859.45,-93.36"/>
<polygon fill="grey" stroke="grey" stroke-width="2" points="859.92,-96.84 869.72,-92.81 859.55,-89.85 859.92,-96.84"/>
</g>
<!-- 12&#45;&gt;21 -->
<g id="edge67" class="edge">
<title>12&#45;&gt;21</title>
<path fill="none" stroke="grey" stroke-width="2" d="M483.87,-445.51C599.27,-436.37 900.32,-411.37 943,-396 983.78,-381.32 1024.37,-351.73 1050,-330.7"/>
<polygon fill="grey" stroke="grey" stroke-width="2" points="1052.35,-333.3 1057.78,-324.2 1047.87,-327.93 1052.35,-333.3"/>
</g>
<!-- 22 -->
<g id="node23" class="node">
<title>22</title>
<path fill="none" stroke="#59d856" stroke-width="2" d="M447.5,-252C447.5,-252 344.5,-252 344.5,-252 338.5,-252 332.5,-246 332.5,-240 332.5,-240 332.5,-228 332.5,-228 332.5,-222 338.5,-216 344.5,-216 344.5,-216 447.5,-216 447.5,-216 453.5,-216 459.5,-222 459.5,-228 459.5,-228 459.5,-240 459.5,-240 459.5,-246 453.5,-252 447.5,-252"/>
<text text-anchor="middle" x="396" y="-231.5" font-family="sans" font-size="10.00">format_muteffects_plot</text>
</g>
<!-- 12&#45;&gt;22 -->
<g id="edge73" class="edge">
<title>12&#45;&gt;22</title>
<path fill="none" stroke="grey" stroke-width="2" d="M435.55,-431.85C428.1,-394.75 410.43,-306.81 401.45,-262.1"/>
<polygon fill="grey" stroke="grey" stroke-width="2" points="404.86,-261.35 399.46,-252.23 398,-262.73 404.86,-261.35"/>
</g>
<!-- 12&#45;&gt;25 -->
<g id="edge78" class="edge">
<title>12&#45;&gt;25</title>
<path fill="none" stroke="grey" stroke-width="2" d="M444.6,-431.89C459.87,-388.14 506.6,-271.77 588,-216 654.58,-170.38 687.41,-198.37 766,-180 772.62,-178.45 779.59,-176.71 786.41,-174.95"/>
<polygon fill="grey" stroke="grey" stroke-width="2" points="787.43,-178.3 796.22,-172.38 785.66,-171.53 787.43,-178.3"/>
</g>
<!-- 13&#45;&gt;12 -->
<g id="edge26" class="edge">
<title>13&#45;&gt;12</title>
<path fill="none" stroke="grey" stroke-width="2" d="M444.27,-503.7C443.5,-495.98 442.57,-486.71 441.71,-478.11"/>
<polygon fill="grey" stroke="grey" stroke-width="2" points="445.19,-477.71 440.71,-468.1 438.22,-478.4 445.19,-477.71"/>
</g>
<!-- 13&#45;&gt;17 -->
<g id="edge59" class="edge">
<title>13&#45;&gt;17</title>
<path fill="none" stroke="grey" stroke-width="2" d="M420.7,-503.78C408.52,-494.4 394.52,-481.89 385,-468 302.99,-348.38 229.24,-230.05 346,-144 386.93,-113.83 731.39,-97.71 859.37,-92.71"/>
<polygon fill="grey" stroke="grey" stroke-width="2" points="859.78,-96.2 869.64,-92.32 859.51,-89.21 859.78,-96.2"/>
</g>
<!-- 13&#45;&gt;21 -->
<g id="edge72" class="edge">
<title>13&#45;&gt;21</title>
<path fill="none" stroke="grey" stroke-width="2" d="M495.35,-518.76C594.84,-512.37 824.03,-487.98 989,-396 1017.36,-380.19 1042.59,-352.52 1058.69,-332.21"/>
<polygon fill="grey" stroke="grey" stroke-width="2" points="1061.46,-334.35 1064.8,-324.29 1055.92,-330.07 1061.46,-334.35"/>
</g>
<!-- 13&#45;&gt;25 -->
<g id="edge92" class="edge">
<title>13&#45;&gt;25</title>
<path fill="none" stroke="grey" stroke-width="2" d="M463.32,-504C472.7,-494.12 483.96,-481.08 492,-468 519.13,-423.84 512.4,-406.15 536,-360 570.36,-292.81 565.1,-260.58 626,-216 677.84,-178.05 703.84,-196.25 766,-180 772.65,-178.26 779.69,-176.41 786.56,-174.59"/>
<polygon fill="grey" stroke="grey" stroke-width="2" points="787.7,-177.91 796.47,-171.96 785.9,-171.14 787.7,-177.91"/>
</g>
<!-- 14&#45;&gt;13 -->
<g id="edge28" class="edge">
<title>14&#45;&gt;13</title>
<path fill="none" stroke="grey" stroke-width="2" d="M455.79,-575.7C454.35,-567.98 452.63,-558.71 451.04,-550.11"/>
<polygon fill="grey" stroke="grey" stroke-width="2" points="454.44,-549.3 449.18,-540.1 447.56,-550.58 454.44,-549.3"/>
</g>
<!-- 18 -->
<g id="node19" class="node">
<title>18</title>
<path fill="none" stroke="#d87d56" stroke-width="2" d="M676,-396C676,-396 590,-396 590,-396 584,-396 578,-390 578,-384 578,-384 578,-372 578,-372 578,-366 584,-360 590,-360 590,-360 676,-360 676,-360 682,-360 688,-366 688,-372 688,-372 688,-384 688,-384 688,-390 682,-396 676,-396"/>
<text text-anchor="middle" x="633" y="-375.5" font-family="sans" font-size="10.00">analyze_func_scores</text>
</g>
<!-- 14&#45;&gt;18 -->
<g id="edge60" class="edge">
<title>14&#45;&gt;18</title>
<path fill="none" stroke="grey" stroke-width="2" d="M473.72,-575.92C482.57,-565.58 494.01,-552.11 504,-540 543.33,-492.32 588.26,-435.76 613.36,-403.96"/>
<polygon fill="grey" stroke="grey" stroke-width="2" points="616.15,-406.07 619.6,-396.05 610.66,-401.73 616.15,-406.07"/>
</g>
<!-- 15&#45;&gt;11 -->
<g id="edge24" class="edge">
<title>15&#45;&gt;11</title>
<path fill="none" stroke="grey" stroke-width="2" d="M1228.82,-433.29C1253.22,-423.42 1284.98,-410.57 1311.48,-399.85"/>
<polygon fill="grey" stroke="grey" stroke-width="2" points="1313.02,-403 1320.98,-396 1310.39,-396.51 1313.02,-403"/>
</g>
<!-- 15&#45;&gt;17 -->
<g id="edge41" class="edge">
<title>15&#45;&gt;17</title>
<path fill="none" stroke="grey" stroke-width="2" d="M1228.58,-441.73C1294.74,-429.1 1423.42,-403.69 1430,-396 1482.09,-335.15 1473.89,-288.1 1439,-216 1416.53,-169.58 1395.61,-163.82 1348,-144 1277.61,-114.7 1052.82,-99.04 954.17,-93.43"/>
<polygon fill="grey" stroke="grey" stroke-width="2" points="954.36,-89.94 944.18,-92.87 953.97,-96.93 954.36,-89.94"/>
</g>
<!-- 15&#45;&gt;21 -->
<g id="edge64" class="edge">
<title>15&#45;&gt;21</title>
<path fill="none" stroke="grey" stroke-width="2" d="M1189.17,-431.93C1187.44,-412.68 1182.14,-381.3 1166,-360 1155.01,-345.5 1138.81,-334.19 1123.24,-325.8"/>
<polygon fill="grey" stroke="grey" stroke-width="2" points="1124.68,-322.61 1114.18,-321.2 1121.51,-328.85 1124.68,-322.61"/>
</g>
<!-- 15&#45;&gt;25 -->
<g id="edge76" class="edge">
<title>15&#45;&gt;25</title>
<path fill="none" stroke="grey" stroke-width="2" d="M1163.72,-431.76C1114.3,-398.91 1004.85,-324.2 920,-252 906.84,-240.8 875.9,-209.79 853.98,-187.52"/>
<polygon fill="grey" stroke="grey" stroke-width="2" points="856.44,-185.03 846.93,-180.35 851.44,-189.94 856.44,-185.03"/>
</g>
<!-- 16&#45;&gt;15 -->
<g id="edge35" class="edge">
<title>16&#45;&gt;15</title>
<path fill="none" stroke="grey" stroke-width="2" d="M1064.25,-575.87C1089.48,-550.82 1136.57,-504.05 1165.42,-475.41"/>
<polygon fill="grey" stroke="grey" stroke-width="2" points="1168.06,-477.72 1172.69,-468.19 1163.13,-472.75 1168.06,-477.72"/>
</g>
<!-- 19 -->
<g id="node20" class="node">
<title>19</title>
<path fill="none" stroke="#56d0d8" stroke-width="2" d="M922,-396C922,-396 832,-396 832,-396 826,-396 820,-390 820,-384 820,-384 820,-372 820,-372 820,-366 826,-360 832,-360 832,-360 922,-360 922,-360 928,-360 934,-366 934,-372 934,-372 934,-384 934,-384 934,-390 928,-396 922,-396"/>
<text text-anchor="middle" x="877" y="-375.5" font-family="sans" font-size="10.00">analyze_prob_escape</text>
</g>
<!-- 16&#45;&gt;19 -->
<g id="edge61" class="edge">
<title>16&#45;&gt;19</title>
<path fill="none" stroke="grey" stroke-width="2" d="M1033.38,-575.85C1003.47,-538.21 931.97,-448.2 896.98,-404.15"/>
<polygon fill="grey" stroke="grey" stroke-width="2" points="899.65,-401.89 890.69,-396.23 894.17,-406.24 899.65,-401.89"/>
</g>
<!-- 17&#45;&gt;0 -->
<g id="edge2" class="edge">
<title>17&#45;&gt;0</title>
<path fill="none" stroke="grey" stroke-width="2" d="M869.82,-85.72C736.7,-73.97 284.74,-34.07 151.35,-22.3"/>
<polygon fill="grey" stroke="grey" stroke-width="2" points="151.5,-18.8 141.23,-21.4 150.88,-25.77 151.5,-18.8"/>
</g>
<!-- 18&#45;&gt;17 -->
<g id="edge42" class="edge">
<title>18&#45;&gt;17</title>
<path fill="none" stroke="grey" stroke-width="2" d="M638.63,-359.74C653.36,-317.14 697.04,-205.98 770,-144 795.73,-122.14 831.49,-108.72 860.02,-100.85"/>
<polygon fill="grey" stroke="grey" stroke-width="2" points="861,-104.21 869.78,-98.29 859.22,-97.44 861,-104.21"/>
</g>
<!-- 18&#45;&gt;21 -->
<g id="edge68" class="edge">
<title>18&#45;&gt;21</title>
<path fill="none" stroke="grey" stroke-width="2" d="M688.34,-368.28C776.39,-354.39 946.89,-327.51 1029.65,-314.47"/>
<polygon fill="grey" stroke="grey" stroke-width="2" points="1030.44,-317.88 1039.77,-312.87 1029.35,-310.97 1030.44,-317.88"/>
</g>
<!-- 18&#45;&gt;25 -->
<g id="edge81" class="edge">
<title>18&#45;&gt;25</title>
<path fill="none" stroke="grey" stroke-width="2" d="M635.99,-359.54C642.42,-327.08 660.46,-257.03 702,-216 725.09,-193.19 759.4,-179.71 786.68,-172.05"/>
<polygon fill="grey" stroke="grey" stroke-width="2" points="787.61,-175.42 796.39,-169.48 785.82,-168.65 787.61,-175.42"/>
</g>
<!-- 19&#45;&gt;17 -->
<g id="edge54" class="edge">
<title>19&#45;&gt;17</title>
<path fill="none" stroke="grey" stroke-width="2" d="M860.16,-359.77C822.91,-319.51 740.48,-217.18 788,-144 803.94,-119.44 834.2,-106.17 860.21,-99.05"/>
<polygon fill="grey" stroke="grey" stroke-width="2" points="861.08,-102.44 869.93,-96.61 859.38,-95.65 861.08,-102.44"/>
</g>
<!-- 19&#45;&gt;21 -->
<g id="edge71" class="edge">
<title>19&#45;&gt;21</title>
<path fill="none" stroke="grey" stroke-width="2" d="M925.67,-359.97C957.39,-348.86 998.56,-334.45 1029.95,-323.47"/>
<polygon fill="grey" stroke="grey" stroke-width="2" points="1031.49,-326.64 1039.77,-320.03 1029.17,-320.03 1031.49,-326.64"/>
</g>
<!-- 19&#45;&gt;25 -->
<g id="edge91" class="edge">
<title>19&#45;&gt;25</title>
<path fill="none" stroke="grey" stroke-width="2" d="M873.23,-359.85C865.09,-322.75 845.77,-234.81 835.95,-190.1"/>
<polygon fill="grey" stroke="grey" stroke-width="2" points="839.35,-189.25 833.78,-180.23 832.51,-190.75 839.35,-189.25"/>
</g>
<!-- 20 -->
<g id="node21" class="node">
<title>20</title>
<path fill="none" stroke="#56d86b" stroke-width="2" d="M1094,-252C1094,-252 1060,-252 1060,-252 1054,-252 1048,-246 1048,-240 1048,-240 1048,-228 1048,-228 1048,-222 1054,-216 1060,-216 1060,-216 1094,-216 1094,-216 1100,-216 1106,-222 1106,-228 1106,-228 1106,-240 1106,-240 1106,-246 1100,-252 1094,-252"/>
<text text-anchor="middle" x="1077" y="-231.5" font-family="sans" font-size="10.00">subindex</text>
</g>
<!-- 20&#45;&gt;17 -->
<g id="edge50" class="edge">
<title>20&#45;&gt;17</title>
<path fill="none" stroke="grey" stroke-width="2" d="M1056.49,-215.87C1026.24,-190.6 969.56,-143.25 935.35,-114.68"/>
<polygon fill="grey" stroke="grey" stroke-width="2" points="937.5,-111.91 927.58,-108.19 933.01,-117.29 937.5,-111.91"/>
</g>
<!-- 20&#45;&gt;25 -->
<g id="edge80" class="edge">
<title>20&#45;&gt;25</title>
<path fill="none" stroke="grey" stroke-width="2" d="M1047.57,-220.81C1043.05,-219.11 1038.43,-217.44 1034,-216 979.36,-198.18 914.99,-182.28 873.38,-172.65"/>
<polygon fill="grey" stroke="grey" stroke-width="2" points="874.11,-169.22 863.58,-170.39 872.54,-176.04 874.11,-169.22"/>
</g>
<!-- 21&#45;&gt;17 -->
<g id="edge51" class="edge">
<title>21&#45;&gt;17</title>
<path fill="none" stroke="grey" stroke-width="2" d="M1114.17,-301.54C1145.82,-296.4 1189.48,-283.65 1211,-252 1220,-238.77 1219.7,-229.43 1211,-216 1154.53,-128.89 1024.81,-102.46 954.46,-94.46"/>
<polygon fill="grey" stroke="grey" stroke-width="2" points="954.42,-90.94 944.11,-93.37 953.69,-97.9 954.42,-90.94"/>
</g>
<!-- 21&#45;&gt;20 -->
<g id="edge62" class="edge">
<title>21&#45;&gt;20</title>
<path fill="none" stroke="grey" stroke-width="2" d="M1077,-287.7C1077,-279.98 1077,-270.71 1077,-262.11"/>
<polygon fill="grey" stroke="grey" stroke-width="2" points="1080.5,-262.1 1077,-252.1 1073.5,-262.1 1080.5,-262.1"/>
</g>
<!-- 21&#45;&gt;25 -->
<g id="edge86" class="edge">
<title>21&#45;&gt;25</title>
<path fill="none" stroke="grey" stroke-width="2" d="M1039.99,-289.14C1018.45,-279.39 991.08,-266.09 968,-252 945.24,-238.11 942.19,-230.79 920,-216 903.98,-205.32 885.77,-194.39 869.94,-185.24"/>
<polygon fill="grey" stroke="grey" stroke-width="2" points="871.35,-182.02 860.93,-180.08 867.87,-188.09 871.35,-182.02"/>
</g>
<!-- 22&#45;&gt;17 -->
<g id="edge49" class="edge">
<title>22&#45;&gt;17</title>
<path fill="none" stroke="grey" stroke-width="2" d="M405.59,-215.88C418.29,-195.02 442.76,-160.52 474,-144 540.05,-109.07 761.51,-96.5 859.58,-92.57"/>
<polygon fill="grey" stroke="grey" stroke-width="2" points="859.93,-96.06 869.79,-92.18 859.66,-89.07 859.93,-96.06"/>
</g>
<!-- 22&#45;&gt;25 -->
<g id="edge87" class="edge">
<title>22&#45;&gt;25</title>
<path fill="none" stroke="grey" stroke-width="2" d="M459.57,-222.75C548.84,-208.35 709.05,-182.51 786.16,-170.07"/>
<polygon fill="grey" stroke="grey" stroke-width="2" points="787.16,-173.45 796.48,-168.41 786.05,-166.54 787.16,-173.45"/>
</g>
<!-- 23 -->
<g id="node24" class="node">
<title>23</title>
<path fill="none" stroke="#d8bc56" stroke-width="2" d="M1190,-252C1190,-252 1136,-252 1136,-252 1130,-252 1124,-246 1124,-240 1124,-240 1124,-228 1124,-228 1124,-222 1130,-216 1136,-216 1136,-216 1190,-216 1190,-216 1196,-216 1202,-222 1202,-228 1202,-228 1202,-240 1202,-240 1202,-246 1196,-252 1190,-252"/>
<text text-anchor="middle" x="1163" y="-231.5" font-family="sans" font-size="10.00">make_graphs</text>
</g>
<!-- 23&#45;&gt;17 -->
<g id="edge44" class="edge">
<title>23&#45;&gt;17</title>
<path fill="none" stroke="grey" stroke-width="2" d="M1133.31,-215.89C1101.83,-197.81 1050.59,-168.57 1006,-144 987.24,-133.66 966.35,-122.44 948.62,-112.99"/>
<polygon fill="grey" stroke="grey" stroke-width="2" points="950.13,-109.83 939.66,-108.23 946.84,-116.01 950.13,-109.83"/>
</g>
<!-- 23&#45;&gt;25 -->
<g id="edge85" class="edge">
<title>23&#45;&gt;25</title>
<path fill="none" stroke="grey" stroke-width="2" d="M1123.86,-218.58C1120.88,-217.65 1117.9,-216.78 1115,-216 1030.8,-193.41 930.06,-177.12 873.72,-168.96"/>
<polygon fill="grey" stroke="grey" stroke-width="2" points="874.12,-165.48 863.73,-167.52 873.13,-172.41 874.12,-165.48"/>
</g>
<!-- 24&#45;&gt;17 -->
<g id="edge57" class="edge">
<title>24&#45;&gt;17</title>
<path fill="none" stroke="grey" stroke-width="2" d="M1322.74,-215.69C1307.03,-194.97 1277.77,-160.95 1244,-144 1194.1,-118.96 1034.92,-102.05 954.48,-94.88"/>
<polygon fill="grey" stroke="grey" stroke-width="2" points="954.41,-91.37 944.14,-93.98 953.8,-98.34 954.41,-91.37"/>
</g>
<!-- 24&#45;&gt;25 -->
<g id="edge89" class="edge">
<title>24&#45;&gt;25</title>
<path fill="none" stroke="grey" stroke-width="2" d="M1258.3,-222.37C1150.92,-207.48 959.32,-180.93 873.58,-169.04"/>
<polygon fill="grey" stroke="grey" stroke-width="2" points="874.04,-165.57 863.66,-167.67 873.08,-172.51 874.04,-165.57"/>
</g>
<!-- 25&#45;&gt;17 -->
<g id="edge46" class="edge">
<title>25&#45;&gt;17</title>
<path fill="none" stroke="grey" stroke-width="2" d="M849.03,-143.7C858.54,-135.05 870.21,-124.45 880.57,-115.03"/>
<polygon fill="grey" stroke="grey" stroke-width="2" points="883.14,-117.42 888.19,-108.1 878.43,-112.24 883.14,-117.42"/>
</g>
</g>
</svg>
