<?xml version="1.0" encoding="UTF-8" standalone="no"?>
<!DOCTYPE svg PUBLIC "-//W3C//DTD SVG 1.1//EN"
 "http://www.w3.org/Graphics/SVG/1.1/DTD/svg11.dtd">
<!-- Generated by graphviz version 6.0.1 (20220911.2005)
 -->
<!-- Title: snakemake_dag Pages: 1 -->
<svg width="1541pt" height="1196pt"
 viewBox="0.00 0.00 1541.05 1196.00" xmlns="http://www.w3.org/2000/svg" xmlns:xlink="http://www.w3.org/1999/xlink">
<g id="graph0" class="graph" transform="scale(1 1) rotate(0) translate(4 1192)">
<title>snakemake_dag</title>
<polygon fill="white" stroke="none" points="-4,4 -4,-1192 1537.05,-1192 1537.05,4 -4,4"/>
<!-- 0 -->
<g id="node1" class="node">
<title>0</title>
<path fill="none" stroke="#56b9d8" stroke-width="2" d="M1128.55,-36C1128.55,-36 1098.55,-36 1098.55,-36 1092.55,-36 1086.55,-30 1086.55,-24 1086.55,-24 1086.55,-12 1086.55,-12 1086.55,-6 1092.55,0 1098.55,0 1098.55,0 1128.55,0 1128.55,0 1134.55,0 1140.55,-6 1140.55,-12 1140.55,-12 1140.55,-24 1140.55,-24 1140.55,-30 1134.55,-36 1128.55,-36"/>
<text text-anchor="middle" x="1113.55" y="-15.5" font-family="sans" font-size="10.00">all</text>
</g>
<!-- 1 -->
<g id="node2" class="node">
<title>1</title>
<path fill="none" stroke="#567bd8" stroke-width="2" d="M931.05,-828C931.05,-828 866.05,-828 866.05,-828 860.05,-828 854.05,-822 854.05,-816 854.05,-816 854.05,-804 854.05,-804 854.05,-798 860.05,-792 866.05,-792 866.05,-792 931.05,-792 931.05,-792 937.05,-792 943.05,-798 943.05,-804 943.05,-804 943.05,-816 943.05,-816 943.05,-822 937.05,-828 931.05,-828"/>
<text text-anchor="middle" x="898.55" y="-807.5" font-family="sans" font-size="10.00">variant_counts</text>
</g>
<!-- 1&#45;&gt;0 -->
<g id="edge5" class="edge">
<title>1&#45;&gt;0</title>
<path fill="none" stroke="grey" stroke-width="2" d="M943.09,-805.93C987.44,-801.07 1055.88,-788.48 1105.55,-756 1298.68,-629.71 1350.28,-550.66 1393.55,-324 1415.72,-207.9 1408.78,-134.65 1308.55,-72 1259.29,-41.21 1192.17,-28.08 1150.91,-22.64"/>
<polygon fill="grey" stroke="grey" stroke-width="2" points="1151.1,-19.14 1140.75,-21.39 1150.25,-26.09 1151.1,-19.14"/>
</g>
<!-- 10 -->
<g id="node11" class="node">
<title>10</title>
<path fill="none" stroke="#b6d856" stroke-width="2" d="M1084.55,-756C1084.55,-756 976.55,-756 976.55,-756 970.55,-756 964.55,-750 964.55,-744 964.55,-744 964.55,-732 964.55,-732 964.55,-726 970.55,-720 976.55,-720 976.55,-720 1084.55,-720 1084.55,-720 1090.55,-720 1096.55,-726 1096.55,-732 1096.55,-732 1096.55,-744 1096.55,-744 1096.55,-750 1090.55,-756 1084.55,-756"/>
<text text-anchor="middle" x="1030.55" y="-735.5" font-family="sans" font-size="10.00">analyze_variant_counts</text>
</g>
<!-- 1&#45;&gt;10 -->
<g id="edge21" class="edge">
<title>1&#45;&gt;10</title>
<path fill="none" stroke="grey" stroke-width="2" d="M930.84,-791.88C948.42,-782.55 970.36,-770.92 989.18,-760.94"/>
<polygon fill="grey" stroke="grey" stroke-width="2" points="990.94,-763.97 998.14,-756.19 987.66,-757.78 990.94,-763.97"/>
</g>
<!-- 14 -->
<g id="node15" class="node">
<title>14</title>
<path fill="none" stroke="#56d8a9" stroke-width="2" d="M673.55,-612C673.55,-612 623.55,-612 623.55,-612 617.55,-612 611.55,-606 611.55,-600 611.55,-600 611.55,-588 611.55,-588 611.55,-582 617.55,-576 623.55,-576 623.55,-576 673.55,-576 673.55,-576 679.55,-576 685.55,-582 685.55,-588 685.55,-588 685.55,-600 685.55,-600 685.55,-606 679.55,-612 673.55,-612"/>
<text text-anchor="middle" x="648.55" y="-591.5" font-family="sans" font-size="10.00">func_scores</text>
</g>
<!-- 1&#45;&gt;14 -->
<g id="edge32" class="edge">
<title>1&#45;&gt;14</title>
<path fill="none" stroke="grey" stroke-width="2" d="M863.57,-791.97C822.54,-770.78 754.09,-731.52 706.55,-684 688.03,-665.48 672.21,-640.12 661.79,-621.21"/>
<polygon fill="grey" stroke="grey" stroke-width="2" points="664.79,-619.4 656.99,-612.24 658.62,-622.71 664.79,-619.4"/>
</g>
<!-- 16 -->
<g id="node17" class="node">
<title>16</title>
<path fill="none" stroke="#56d86b" stroke-width="2" d="M448.55,-612C448.55,-612 394.55,-612 394.55,-612 388.55,-612 382.55,-606 382.55,-600 382.55,-600 382.55,-588 382.55,-588 382.55,-582 388.55,-576 394.55,-576 394.55,-576 448.55,-576 448.55,-576 454.55,-576 460.55,-582 460.55,-588 460.55,-588 460.55,-600 460.55,-600 460.55,-606 454.55,-612 448.55,-612"/>
<text text-anchor="middle" x="421.55" y="-591.5" font-family="sans" font-size="10.00">prob_escape</text>
</g>
<!-- 1&#45;&gt;16 -->
<g id="edge39" class="edge">
<title>1&#45;&gt;16</title>
<path fill="none" stroke="grey" stroke-width="2" d="M853.77,-795.01C823.2,-785.07 781.98,-770.88 746.55,-756 641.36,-711.81 522.26,-649.52 461.64,-616.89"/>
<polygon fill="grey" stroke="grey" stroke-width="2" points="463.24,-613.77 452.77,-612.1 459.91,-619.93 463.24,-613.77"/>
</g>
<!-- 17 -->
<g id="node18" class="node">
<title>17</title>
<path fill="none" stroke="#56d8d0" stroke-width="2" d="M1140.55,-108C1140.55,-108 1086.55,-108 1086.55,-108 1080.55,-108 1074.55,-102 1074.55,-96 1074.55,-96 1074.55,-84 1074.55,-84 1074.55,-78 1080.55,-72 1086.55,-72 1086.55,-72 1140.55,-72 1140.55,-72 1146.55,-72 1152.55,-78 1152.55,-84 1152.55,-84 1152.55,-96 1152.55,-96 1152.55,-102 1146.55,-108 1140.55,-108"/>
<text text-anchor="middle" x="1113.55" y="-87.5" font-family="sans" font-size="10.00">sphinx_build</text>
</g>
<!-- 1&#45;&gt;17 -->
<g id="edge54" class="edge">
<title>1&#45;&gt;17</title>
<path fill="none" stroke="grey" stroke-width="2" d="M909.39,-791.75C959.69,-711.3 1169.23,-371.88 1199.55,-252 1205.26,-229.45 1195.67,-147.58 1193.55,-144 1185.97,-131.19 1173.93,-120.86 1161.47,-112.85"/>
<polygon fill="grey" stroke="grey" stroke-width="2" points="1163.2,-109.8 1152.83,-107.66 1159.6,-115.81 1163.2,-109.8"/>
</g>
<!-- 23 -->
<g id="node24" class="node">
<title>23</title>
<path fill="none" stroke="#d8cb56" stroke-width="2" d="M798.05,-180C798.05,-180 751.05,-180 751.05,-180 745.05,-180 739.05,-174 739.05,-168 739.05,-168 739.05,-156 739.05,-156 739.05,-150 745.05,-144 751.05,-144 751.05,-144 798.05,-144 798.05,-144 804.05,-144 810.05,-150 810.05,-156 810.05,-156 810.05,-168 810.05,-168 810.05,-174 804.05,-180 798.05,-180"/>
<text text-anchor="middle" x="774.55" y="-159.5" font-family="sans" font-size="10.00">docs_index</text>
</g>
<!-- 1&#45;&gt;23 -->
<g id="edge84" class="edge">
<title>1&#45;&gt;23</title>
<path fill="none" stroke="grey" stroke-width="2" d="M899.85,-791.98C901.78,-762.5 904.5,-700.09 897.55,-648 873.46,-467.52 833.95,-429.31 792.55,-252 787.74,-231.41 783.03,-207.95 779.64,-190.3"/>
<polygon fill="grey" stroke="grey" stroke-width="2" points="783.01,-189.3 777.7,-180.13 776.13,-190.61 783.01,-189.3"/>
</g>
<!-- 2 -->
<g id="node3" class="node">
<title>2</title>
<path fill="none" stroke="#d87d56" stroke-width="2" d="M990.05,-900C990.05,-900 921.05,-900 921.05,-900 915.05,-900 909.05,-894 909.05,-888 909.05,-888 909.05,-876 909.05,-876 909.05,-870 915.05,-864 921.05,-864 921.05,-864 990.05,-864 990.05,-864 996.05,-864 1002.05,-870 1002.05,-876 1002.05,-876 1002.05,-888 1002.05,-888 1002.05,-894 996.05,-900 990.05,-900"/>
<text text-anchor="middle" x="955.55" y="-879.5" font-family="sans" font-size="10.00">count_barcodes</text>
</g>
<!-- 2&#45;&gt;1 -->
<g id="edge7" class="edge">
<title>2&#45;&gt;1</title>
<path fill="none" stroke="grey" stroke-width="2" d="M941.46,-863.7C934.63,-855.3 926.3,-845.07 918.8,-835.86"/>
<polygon fill="grey" stroke="grey" stroke-width="2" points="921.51,-833.65 912.48,-828.1 916.08,-838.07 921.51,-833.65"/>
</g>
<!-- 2&#45;&gt;10 -->
<g id="edge18" class="edge">
<title>2&#45;&gt;10</title>
<path fill="none" stroke="grey" stroke-width="2" d="M964.6,-863.87C977.55,-839.35 1001.49,-794.03 1016.68,-765.26"/>
<polygon fill="grey" stroke="grey" stroke-width="2" points="1019.9,-766.67 1021.47,-756.19 1013.71,-763.4 1019.9,-766.67"/>
</g>
<!-- 3 -->
<g id="node4" class="node">
<title>3</title>
<path fill="none" stroke="#56d892" stroke-width="2" d="M953.55,-972C953.55,-972 857.55,-972 857.55,-972 851.55,-972 845.55,-966 845.55,-960 845.55,-960 845.55,-948 845.55,-948 845.55,-942 851.55,-936 857.55,-936 857.55,-936 953.55,-936 953.55,-936 959.55,-936 965.55,-942 965.55,-948 965.55,-948 965.55,-960 965.55,-960 965.55,-966 959.55,-972 953.55,-972"/>
<text text-anchor="middle" x="905.55" y="-951.5" font-family="sans" font-size="10.00">build_codon_variants</text>
</g>
<!-- 3&#45;&gt;1 -->
<g id="edge8" class="edge">
<title>3&#45;&gt;1</title>
<path fill="none" stroke="grey" stroke-width="2" d="M903.62,-935.84C902.53,-925.47 901.25,-911.99 900.55,-900 899.34,-879.3 898.85,-855.85 898.66,-838.23"/>
<polygon fill="grey" stroke="grey" stroke-width="2" points="902.16,-838.05 898.57,-828.08 895.16,-838.11 902.16,-838.05"/>
</g>
<!-- 3&#45;&gt;2 -->
<g id="edge9" class="edge">
<title>3&#45;&gt;2</title>
<path fill="none" stroke="grey" stroke-width="2" d="M917.91,-935.7C923.78,-927.47 930.92,-917.48 937.39,-908.42"/>
<polygon fill="grey" stroke="grey" stroke-width="2" points="940.37,-910.28 943.33,-900.1 934.67,-906.21 940.37,-910.28"/>
</g>
<!-- 3&#45;&gt;10 -->
<g id="edge19" class="edge">
<title>3&#45;&gt;10</title>
<path fill="none" stroke="grey" stroke-width="2" d="M964.15,-935.96C982.08,-927.9 1000.08,-916.33 1011.55,-900 1039.51,-860.2 1038.38,-800.78 1034.69,-766.35"/>
<polygon fill="grey" stroke="grey" stroke-width="2" points="1038.13,-765.61 1033.44,-756.11 1031.18,-766.46 1038.13,-765.61"/>
</g>
<!-- 3&#45;&gt;14 -->
<g id="edge29" class="edge">
<title>3&#45;&gt;14</title>
<path fill="none" stroke="grey" stroke-width="2" d="M885.82,-935.91C841.23,-896.24 732.05,-792.94 673.55,-684 663.14,-664.61 656.71,-640.47 652.99,-622.22"/>
<polygon fill="grey" stroke="grey" stroke-width="2" points="656.39,-621.41 651.09,-612.24 649.52,-622.71 656.39,-621.41"/>
</g>
<!-- 3&#45;&gt;16 -->
<g id="edge36" class="edge">
<title>3&#45;&gt;16</title>
<path fill="none" stroke="grey" stroke-width="2" d="M845.3,-946.53C776.36,-938.22 668.6,-922.17 634.55,-900 526.08,-829.38 456.91,-682.41 431.98,-621.91"/>
<polygon fill="grey" stroke="grey" stroke-width="2" points="435.09,-620.27 428.1,-612.31 428.6,-622.89 435.09,-620.27"/>
</g>
<!-- 3&#45;&gt;17 -->
<g id="edge49" class="edge">
<title>3&#45;&gt;17</title>
<path fill="none" stroke="grey" stroke-width="2" d="M965.79,-949.78C1008.2,-944.66 1064.05,-931.81 1102.55,-900 1129.98,-877.34 1123.47,-860.67 1137.55,-828 1162.05,-771.17 1334.55,-368.89 1334.55,-307 1334.55,-307 1334.55,-307 1334.55,-233 1334.55,-189.99 1328.76,-172.51 1296.55,-144 1259.53,-111.23 1203.34,-98.66 1163,-93.87"/>
<polygon fill="grey" stroke="grey" stroke-width="2" points="1163.16,-90.37 1152.85,-92.79 1162.42,-97.33 1163.16,-90.37"/>
</g>
<!-- 21 -->
<g id="node22" class="node">
<title>21</title>
<path fill="none" stroke="#ced856" stroke-width="2" d="M971.05,-324C971.05,-324 916.05,-324 916.05,-324 910.05,-324 904.05,-318 904.05,-312 904.05,-312 904.05,-300 904.05,-300 904.05,-294 910.05,-288 916.05,-288 916.05,-288 971.05,-288 971.05,-288 977.05,-288 983.05,-294 983.05,-300 983.05,-300 983.05,-312 983.05,-312 983.05,-318 977.05,-324 971.05,-324"/>
<text text-anchor="middle" x="943.55" y="-303.5" font-family="sans" font-size="10.00">make_nblink</text>
</g>
<!-- 3&#45;&gt;21 -->
<g id="edge67" class="edge">
<title>3&#45;&gt;21</title>
<path fill="none" stroke="grey" stroke-width="2" d="M965.68,-941.11C1030.52,-924.38 1124.55,-887.01 1124.55,-811 1124.55,-811 1124.55,-811 1124.55,-737 1124.55,-641.55 1106.55,-618.45 1106.55,-523 1106.55,-523 1106.55,-523 1106.55,-449 1106.55,-387.95 1040.75,-347.16 992.76,-325.52"/>
<polygon fill="grey" stroke="grey" stroke-width="2" points="993.99,-322.24 983.43,-321.45 991.19,-328.66 993.99,-322.24"/>
</g>
<!-- 3&#45;&gt;23 -->
<g id="edge79" class="edge">
<title>3&#45;&gt;23</title>
<path fill="none" stroke="grey" stroke-width="2" d="M866.89,-935.99C848.04,-926.75 825.59,-914.29 807.55,-900 684.4,-802.44 645.49,-763.13 602.55,-612 578.23,-526.37 713.82,-271.77 759.75,-189.18"/>
<polygon fill="grey" stroke="grey" stroke-width="2" points="762.82,-190.86 764.65,-180.42 756.71,-187.44 762.82,-190.86"/>
</g>
<!-- 4 -->
<g id="node5" class="node">
<title>4</title>
<path fill="none" stroke="#d85656" stroke-width="2" d="M1360.55,-1044C1360.55,-1044 1250.55,-1044 1250.55,-1044 1244.55,-1044 1238.55,-1038 1238.55,-1032 1238.55,-1032 1238.55,-1020 1238.55,-1020 1238.55,-1014 1244.55,-1008 1250.55,-1008 1250.55,-1008 1360.55,-1008 1360.55,-1008 1366.55,-1008 1372.55,-1014 1372.55,-1020 1372.55,-1020 1372.55,-1032 1372.55,-1032 1372.55,-1038 1366.55,-1044 1360.55,-1044"/>
<text text-anchor="middle" x="1305.55" y="-1023.5" font-family="sans" font-size="10.00">build_pacbio_consensus</text>
</g>
<!-- 4&#45;&gt;3 -->
<g id="edge11" class="edge">
<title>4&#45;&gt;3</title>
<path fill="none" stroke="grey" stroke-width="2" d="M1238.15,-1013.2C1165.32,-1000.46 1049.79,-980.24 975.85,-967.3"/>
<polygon fill="grey" stroke="grey" stroke-width="2" points="976.15,-963.8 965.7,-965.53 974.95,-970.7 976.15,-963.8"/>
</g>
<!-- 4&#45;&gt;17 -->
<g id="edge44" class="edge">
<title>4&#45;&gt;17</title>
<path fill="none" stroke="grey" stroke-width="2" d="M1319.76,-1007.86C1339.43,-982.34 1372.55,-932.07 1372.55,-883 1372.55,-883 1372.55,-883 1372.55,-665 1372.55,-432.46 1495.08,-302.09 1324.55,-144 1280.55,-103.21 1209.92,-92.64 1162.65,-90.48"/>
<polygon fill="grey" stroke="grey" stroke-width="2" points="1162.75,-86.98 1152.64,-90.14 1162.51,-93.98 1162.75,-86.98"/>
</g>
<!-- 4&#45;&gt;21 -->
<g id="edge63" class="edge">
<title>4&#45;&gt;21</title>
<path fill="none" stroke="grey" stroke-width="2" d="M1311.42,-1007.74C1319.89,-981.25 1334.55,-928.79 1334.55,-883 1334.55,-883 1334.55,-883 1334.55,-665 1334.55,-489.44 1226.22,-462.3 1083.55,-360 1056.44,-340.56 1021.32,-327.29 993.03,-318.89"/>
<polygon fill="grey" stroke="grey" stroke-width="2" points="993.92,-315.5 983.34,-316.12 991.99,-322.23 993.92,-315.5"/>
</g>
<!-- 4&#45;&gt;23 -->
<g id="edge74" class="edge">
<title>4&#45;&gt;23</title>
<path fill="none" stroke="grey" stroke-width="2" d="M1304.27,-1007.96C1297.34,-926.5 1257.85,-572.02 1083.55,-360 1050.8,-320.16 1033.48,-319.37 992.55,-288 971.25,-271.67 918.77,-229.47 895.55,-216 871.4,-201.99 842.86,-189.32 819.57,-179.88"/>
<polygon fill="grey" stroke="grey" stroke-width="2" points="820.85,-176.63 810.26,-176.17 818.25,-183.13 820.85,-176.63"/>
</g>
<!-- 5 -->
<g id="node6" class="node">
<title>5</title>
<path fill="none" stroke="#5692d8" stroke-width="2" d="M1512.05,-1116C1512.05,-1116 1423.05,-1116 1423.05,-1116 1417.05,-1116 1411.05,-1110 1411.05,-1104 1411.05,-1104 1411.05,-1092 1411.05,-1092 1411.05,-1086 1417.05,-1080 1423.05,-1080 1423.05,-1080 1512.05,-1080 1512.05,-1080 1518.05,-1080 1524.05,-1086 1524.05,-1092 1524.05,-1092 1524.05,-1104 1524.05,-1104 1524.05,-1110 1518.05,-1116 1512.05,-1116"/>
<text text-anchor="middle" x="1467.55" y="-1095.5" font-family="sans" font-size="10.00">analyze_pacbio_ccs</text>
</g>
<!-- 5&#45;&gt;4 -->
<g id="edge14" class="edge">
<title>5&#45;&gt;4</title>
<path fill="none" stroke="grey" stroke-width="2" d="M1427.92,-1079.88C1405.78,-1070.31 1377.99,-1058.3 1354.49,-1048.15"/>
<polygon fill="grey" stroke="grey" stroke-width="2" points="1355.62,-1044.82 1345.05,-1044.07 1352.84,-1051.25 1355.62,-1044.82"/>
</g>
<!-- 5&#45;&gt;17 -->
<g id="edge53" class="edge">
<title>5&#45;&gt;17</title>
<path fill="none" stroke="grey" stroke-width="2" d="M1479.36,-1079.96C1496.06,-1054.16 1524.55,-1003.08 1524.55,-955 1524.55,-955 1524.55,-955 1524.55,-233 1524.55,-172.16 1475.61,-169.88 1420.55,-144 1335.93,-104.22 1225.6,-94 1162.87,-91.55"/>
<polygon fill="grey" stroke="grey" stroke-width="2" points="1162.96,-88.06 1152.85,-91.21 1162.72,-95.05 1162.96,-88.06"/>
</g>
<!-- 5&#45;&gt;21 -->
<g id="edge69" class="edge">
<title>5&#45;&gt;21</title>
<path fill="none" stroke="grey" stroke-width="2" d="M1471.4,-1079.61C1476.95,-1052.94 1486.55,-1000.27 1486.55,-955 1486.55,-955 1486.55,-955 1486.55,-809 1486.55,-606.71 1389.71,-558.12 1231.55,-432 1186.45,-396.03 1175.82,-384.42 1123.55,-360 1081.33,-340.27 1030.09,-326.04 993.1,-317.33"/>
<polygon fill="grey" stroke="grey" stroke-width="2" points="993.59,-313.85 983.06,-315.01 992.02,-320.67 993.59,-313.85"/>
</g>
<!-- 5&#45;&gt;23 -->
<g id="edge83" class="edge">
<title>5&#45;&gt;23</title>
<path fill="none" stroke="grey" stroke-width="2" d="M1463.71,-1079.61C1458.16,-1052.94 1448.55,-1000.27 1448.55,-955 1448.55,-955 1448.55,-955 1448.55,-809 1448.55,-667.67 1435.46,-622.58 1358.55,-504 1264.72,-359.33 1191.74,-367.33 1063.55,-252 1046.26,-236.44 1046.15,-226.81 1025.55,-216 959.56,-181.37 872.59,-169.37 820.27,-165.21"/>
<polygon fill="grey" stroke="grey" stroke-width="2" points="820.51,-161.72 810.28,-164.47 820,-168.7 820.51,-161.72"/>
</g>
<!-- 6 -->
<g id="node7" class="node">
<title>6</title>
<path fill="none" stroke="#56d8b9" stroke-width="2" d="M1521.05,-1188C1521.05,-1188 1414.05,-1188 1414.05,-1188 1408.05,-1188 1402.05,-1182 1402.05,-1176 1402.05,-1176 1402.05,-1164 1402.05,-1164 1402.05,-1158 1408.05,-1152 1414.05,-1152 1414.05,-1152 1521.05,-1152 1521.05,-1152 1527.05,-1152 1533.05,-1158 1533.05,-1164 1533.05,-1164 1533.05,-1176 1533.05,-1176 1533.05,-1182 1527.05,-1188 1521.05,-1188"/>
<text text-anchor="middle" x="1467.55" y="-1167.5" font-family="sans" font-size="10.00">align_parse_PacBio_ccs</text>
</g>
<!-- 6&#45;&gt;5 -->
<g id="edge15" class="edge">
<title>6&#45;&gt;5</title>
<path fill="none" stroke="grey" stroke-width="2" d="M1467.55,-1151.7C1467.55,-1143.98 1467.55,-1134.71 1467.55,-1126.11"/>
<polygon fill="grey" stroke="grey" stroke-width="2" points="1471.05,-1126.1 1467.55,-1116.1 1464.05,-1126.1 1471.05,-1126.1"/>
</g>
<!-- 7 -->
<g id="node8" class="node">
<title>7</title>
<path fill="none" stroke="#a7d856" stroke-width="2" d="M851.55,-1116C851.55,-1116 783.55,-1116 783.55,-1116 777.55,-1116 771.55,-1110 771.55,-1104 771.55,-1104 771.55,-1092 771.55,-1092 771.55,-1086 777.55,-1080 783.55,-1080 783.55,-1080 851.55,-1080 851.55,-1080 857.55,-1080 863.55,-1086 863.55,-1092 863.55,-1092 863.55,-1104 863.55,-1104 863.55,-1110 857.55,-1116 851.55,-1116"/>
<text text-anchor="middle" x="817.55" y="-1095.5" font-family="sans" font-size="10.00">gene_sequence</text>
</g>
<!-- 7&#45;&gt;1 -->
<g id="edge6" class="edge">
<title>7&#45;&gt;1</title>
<path fill="none" stroke="grey" stroke-width="2" d="M817.67,-1079.69C818.3,-1049.77 821.47,-986.72 836.55,-936 847.32,-899.76 868,-861.25 882.51,-836.71"/>
<polygon fill="grey" stroke="grey" stroke-width="2" points="885.58,-838.39 887.73,-828.02 879.58,-834.79 885.58,-838.39"/>
</g>
<!-- 7&#45;&gt;3 -->
<g id="edge10" class="edge">
<title>7&#45;&gt;3</title>
<path fill="none" stroke="grey" stroke-width="2" d="M828.17,-1079.87C843.43,-1055.24 871.69,-1009.64 889.51,-980.88"/>
<polygon fill="grey" stroke="grey" stroke-width="2" points="892.61,-982.53 894.9,-972.19 886.66,-978.85 892.61,-982.53"/>
</g>
<!-- 7&#45;&gt;4 -->
<g id="edge13" class="edge">
<title>7&#45;&gt;4</title>
<path fill="none" stroke="grey" stroke-width="2" d="M863.81,-1091.62C937.99,-1082.8 1088.04,-1064.25 1214.55,-1044 1219.05,-1043.28 1223.66,-1042.51 1228.32,-1041.71"/>
<polygon fill="grey" stroke="grey" stroke-width="2" points="1229.28,-1045.1 1238.53,-1039.93 1228.08,-1038.2 1229.28,-1045.1"/>
</g>
<!-- 8 -->
<g id="node9" class="node">
<title>8</title>
<path fill="none" stroke="#68d856" stroke-width="2" d="M449.05,-1044C449.05,-1044 354.05,-1044 354.05,-1044 348.05,-1044 342.05,-1038 342.05,-1032 342.05,-1032 342.05,-1020 342.05,-1020 342.05,-1014 348.05,-1008 354.05,-1008 354.05,-1008 449.05,-1008 449.05,-1008 455.05,-1008 461.05,-1014 461.05,-1020 461.05,-1020 461.05,-1032 461.05,-1032 461.05,-1038 455.05,-1044 449.05,-1044"/>
<text text-anchor="middle" x="401.55" y="-1023.5" font-family="sans" font-size="10.00">site_numbering_map</text>
</g>
<!-- 7&#45;&gt;8 -->
<g id="edge16" class="edge">
<title>7&#45;&gt;8</title>
<path fill="none" stroke="grey" stroke-width="2" d="M771.44,-1089.24C698.67,-1077 556.7,-1053.11 471.37,-1038.75"/>
<polygon fill="grey" stroke="grey" stroke-width="2" points="471.7,-1035.25 461.26,-1037.05 470.54,-1042.16 471.7,-1035.25"/>
</g>
<!-- 7&#45;&gt;10 -->
<g id="edge20" class="edge">
<title>7&#45;&gt;10</title>
<path fill="none" stroke="grey" stroke-width="2" d="M863.75,-1089.9C965.62,-1072.93 1200.55,-1026.09 1200.55,-955 1200.55,-955 1200.55,-955 1200.55,-881 1200.55,-821.39 1138.22,-781.91 1089.05,-760.03"/>
<polygon fill="grey" stroke="grey" stroke-width="2" points="1090.29,-756.76 1079.72,-756.02 1087.53,-763.19 1090.29,-756.76"/>
</g>
<!-- 7&#45;&gt;14 -->
<g id="edge30" class="edge">
<title>7&#45;&gt;14</title>
<path fill="none" stroke="grey" stroke-width="2" d="M808.69,-1079.88C780.47,-1024.46 692.42,-844.25 655.55,-684 650.89,-663.74 649.19,-640.27 648.63,-622.52"/>
<polygon fill="grey" stroke="grey" stroke-width="2" points="652.13,-622.21 648.41,-612.29 645.13,-622.36 652.13,-622.21"/>
</g>
<!-- 7&#45;&gt;16 -->
<g id="edge37" class="edge">
<title>7&#45;&gt;16</title>
<path fill="none" stroke="grey" stroke-width="2" d="M771.41,-1097.37C616.78,-1097.39 126.55,-1087.04 126.55,-955 126.55,-955 126.55,-955 126.55,-881 126.55,-745.35 289.34,-653.41 373.06,-615.1"/>
<polygon fill="grey" stroke="grey" stroke-width="2" points="374.69,-618.2 382.38,-610.91 371.82,-611.82 374.69,-618.2"/>
</g>
<!-- 7&#45;&gt;17 -->
<g id="edge50" class="edge">
<title>7&#45;&gt;17</title>
<path fill="none" stroke="grey" stroke-width="2" d="M864,-1095.53C991.74,-1091.08 1341.47,-1076.06 1381.55,-1044 1414.04,-1018.01 1410.55,-996.6 1410.55,-955 1410.55,-955 1410.55,-955 1410.55,-737 1410.55,-636.07 1486.55,-623.93 1486.55,-523 1486.55,-523 1486.55,-523 1486.55,-233 1486.55,-162.61 1420.21,-171.81 1355.55,-144 1291.97,-116.66 1212.71,-102.75 1162.6,-96.19"/>
<polygon fill="grey" stroke="grey" stroke-width="2" points="1163.03,-92.71 1152.67,-94.93 1162.15,-99.66 1163.03,-92.71"/>
</g>
<!-- 7&#45;&gt;23 -->
<g id="edge80" class="edge">
<title>7&#45;&gt;23</title>
<path fill="none" stroke="grey" stroke-width="2" d="M771.22,-1095.29C630.41,-1089.83 213.8,-1071.49 159.55,-1044 112.89,-1020.36 82.55,-1007.3 82.55,-955 82.55,-955 82.55,-955 82.55,-449 82.55,-302.24 184.35,-279.74 316.55,-216 388.63,-181.25 627.46,-168.45 728.63,-164.51"/>
<polygon fill="grey" stroke="grey" stroke-width="2" points="728.98,-168 738.84,-164.13 728.71,-161.01 728.98,-168"/>
</g>
<!-- 8&#45;&gt;3 -->
<g id="edge12" class="edge">
<title>8&#45;&gt;3</title>
<path fill="none" stroke="grey" stroke-width="2" d="M461.35,-1016.7C555,-1003.69 735.85,-978.57 835.47,-964.73"/>
<polygon fill="grey" stroke="grey" stroke-width="2" points="836.02,-968.19 845.44,-963.35 835.06,-961.26 836.02,-968.19"/>
</g>
<!-- 8&#45;&gt;10 -->
<g id="edge22" class="edge">
<title>8&#45;&gt;10</title>
<path fill="none" stroke="grey" stroke-width="2" d="M437.57,-1007.94C458.9,-997.72 486.39,-984.36 510.55,-972 661.03,-895.03 688.97,-855.64 845.55,-792 880.48,-777.8 920.57,-765.82 954.48,-756.86"/>
<polygon fill="grey" stroke="grey" stroke-width="2" points="955.53,-760.21 964.33,-754.3 953.77,-753.43 955.53,-760.21"/>
</g>
<!-- 11 -->
<g id="node12" class="node">
<title>11</title>
<path fill="none" stroke="#d89556" stroke-width="2" d="M296.55,-396C296.55,-396 198.55,-396 198.55,-396 192.55,-396 186.55,-390 186.55,-384 186.55,-384 186.55,-372 186.55,-372 186.55,-366 192.55,-360 198.55,-360 198.55,-360 296.55,-360 296.55,-360 302.55,-360 308.55,-366 308.55,-372 308.55,-372 308.55,-384 308.55,-384 308.55,-390 302.55,-396 296.55,-396"/>
<text text-anchor="middle" x="247.55" y="-375.5" font-family="sans" font-size="10.00">avg_antibody_escape</text>
</g>
<!-- 8&#45;&gt;11 -->
<g id="edge25" class="edge">
<title>8&#45;&gt;11</title>
<path fill="none" stroke="grey" stroke-width="2" d="M341.85,-1009.79C283.23,-990.83 202.55,-952.18 202.55,-883 202.55,-883 202.55,-883 202.55,-521 202.55,-480.55 208.32,-470.22 221.55,-432 224.67,-422.99 228.95,-413.54 233.14,-405.14"/>
<polygon fill="grey" stroke="grey" stroke-width="2" points="236.28,-406.69 237.77,-396.2 230.07,-403.48 236.28,-406.69"/>
</g>
<!-- 13 -->
<g id="node14" class="node">
<title>13</title>
<path fill="none" stroke="#56d0d8" stroke-width="2" d="M410.05,-540C410.05,-540 329.05,-540 329.05,-540 323.05,-540 317.05,-534 317.05,-528 317.05,-528 317.05,-516 317.05,-516 317.05,-510 323.05,-504 329.05,-504 329.05,-504 410.05,-504 410.05,-504 416.05,-504 422.05,-510 422.05,-516 422.05,-516 422.05,-528 422.05,-528 422.05,-534 416.05,-540 410.05,-540"/>
<text text-anchor="middle" x="369.55" y="-519.5" font-family="sans" font-size="10.00">fit_globalepistasis</text>
</g>
<!-- 8&#45;&gt;13 -->
<g id="edge28" class="edge">
<title>8&#45;&gt;13</title>
<path fill="none" stroke="grey" stroke-width="2" d="M374.77,-1007.91C341.36,-984.25 288.55,-938.14 288.55,-883 288.55,-883 288.55,-883 288.55,-665 288.55,-618.96 321.08,-574.25 344.91,-547.67"/>
<polygon fill="grey" stroke="grey" stroke-width="2" points="347.76,-549.74 351.98,-540.02 342.62,-544.99 347.76,-549.74"/>
</g>
<!-- 8&#45;&gt;14 -->
<g id="edge33" class="edge">
<title>8&#45;&gt;14</title>
<path fill="none" stroke="grey" stroke-width="2" d="M412.97,-1007.58C419.53,-997.36 427.78,-984.11 434.55,-972 513.19,-831.51 503.04,-779.05 596.55,-648 603.79,-637.86 612.98,-627.81 621.61,-619.24"/>
<polygon fill="grey" stroke="grey" stroke-width="2" points="624.22,-621.59 628.99,-612.13 619.36,-616.55 624.22,-621.59"/>
</g>
<!-- 15 -->
<g id="node16" class="node">
<title>15</title>
<path fill="none" stroke="#80d856" stroke-width="2" d="M410.55,-468C410.55,-468 352.55,-468 352.55,-468 346.55,-468 340.55,-462 340.55,-456 340.55,-456 340.55,-444 340.55,-444 340.55,-438 346.55,-432 352.55,-432 352.55,-432 410.55,-432 410.55,-432 416.55,-432 422.55,-438 422.55,-444 422.55,-444 422.55,-456 422.55,-456 422.55,-462 416.55,-468 410.55,-468"/>
<text text-anchor="middle" x="381.55" y="-447.5" font-family="sans" font-size="10.00">fit_polyclonal</text>
</g>
<!-- 8&#45;&gt;15 -->
<g id="edge35" class="edge">
<title>8&#45;&gt;15</title>
<path fill="none" stroke="grey" stroke-width="2" d="M356.99,-1007.97C338.3,-999.25 317.3,-987.23 301.55,-972 268.79,-940.3 250.55,-928.59 250.55,-883 250.55,-883 250.55,-883 250.55,-593 250.55,-548.06 267.97,-536.93 298.55,-504 309.62,-492.08 323.93,-481.7 337.54,-473.36"/>
<polygon fill="grey" stroke="grey" stroke-width="2" points="339.5,-476.27 346.34,-468.18 335.95,-470.24 339.5,-476.27"/>
</g>
<!-- 8&#45;&gt;16 -->
<g id="edge40" class="edge">
<title>8&#45;&gt;16</title>
<path fill="none" stroke="grey" stroke-width="2" d="M397.71,-1007.61C392.16,-980.94 382.55,-928.27 382.55,-883 382.55,-883 382.55,-883 382.55,-737 382.55,-695.56 398.19,-649.67 409.66,-621.58"/>
<polygon fill="grey" stroke="grey" stroke-width="2" points="413.01,-622.65 413.66,-612.07 406.55,-619.93 413.01,-622.65"/>
</g>
<!-- 8&#45;&gt;17 -->
<g id="edge57" class="edge">
<title>8&#45;&gt;17</title>
<path fill="none" stroke="grey" stroke-width="2" d="M341.88,-1020.27C303.11,-1014.4 253.63,-1001.27 219.55,-972 79.44,-851.62 44.55,-779.73 44.55,-595 44.55,-595 44.55,-595 44.55,-449 44.55,-289.76 85.11,-204.15 232.55,-144 309.59,-112.58 890.03,-96.32 1064.25,-92.12"/>
<polygon fill="grey" stroke="grey" stroke-width="2" points="1064.5,-95.61 1074.42,-91.88 1064.33,-88.62 1064.5,-95.61"/>
</g>
<!-- 8&#45;&gt;23 -->
<g id="edge86" class="edge">
<title>8&#45;&gt;23</title>
<path fill="none" stroke="grey" stroke-width="2" d="M405.4,-1007.61C410.95,-980.94 420.55,-928.27 420.55,-883 420.55,-883 420.55,-883 420.55,-737 420.55,-677.33 452.38,-669.15 469.55,-612 481.19,-573.26 488.55,-563.45 488.55,-523 488.55,-523 488.55,-523 488.55,-449 488.55,-313.1 575.15,-293.83 686.55,-216 701.95,-205.24 719.58,-194.36 734.99,-185.29"/>
<polygon fill="grey" stroke="grey" stroke-width="2" points="736.9,-188.23 743.77,-180.17 733.37,-182.18 736.9,-188.23"/>
</g>
<!-- 9 -->
<g id="node10" class="node">
<title>9</title>
<path fill="none" stroke="#56a9d8" stroke-width="2" d="M876.05,-684C876.05,-684 727.05,-684 727.05,-684 721.05,-684 715.05,-678 715.05,-672 715.05,-672 715.05,-660 715.05,-660 715.05,-654 721.05,-648 727.05,-648 727.05,-648 876.05,-648 876.05,-648 882.05,-648 888.05,-654 888.05,-660 888.05,-660 888.05,-672 888.05,-672 888.05,-678 882.05,-684 876.05,-684"/>
<text text-anchor="middle" x="801.55" y="-663.5" font-family="sans" font-size="10.00">check_adequate_variant_counts</text>
</g>
<!-- 9&#45;&gt;0 -->
<g id="edge3" class="edge">
<title>9&#45;&gt;0</title>
<path fill="none" stroke="grey" stroke-width="2" d="M888.22,-655.66C1022.02,-635.75 1271.51,-575.12 1348.55,-396 1392.81,-293.11 1406.23,-240.01 1348.55,-144 1305.4,-72.18 1205.49,-39.39 1150.87,-26.37"/>
<polygon fill="grey" stroke="grey" stroke-width="2" points="1151.43,-22.91 1140.9,-24.09 1149.87,-29.73 1151.43,-22.91"/>
</g>
<!-- 9&#45;&gt;14 -->
<g id="edge31" class="edge">
<title>9&#45;&gt;14</title>
<path fill="none" stroke="grey" stroke-width="2" d="M764.12,-647.88C743.22,-638.31 717,-626.32 694.82,-616.17"/>
<polygon fill="grey" stroke="grey" stroke-width="2" points="696.14,-612.92 685.59,-611.95 693.23,-619.29 696.14,-612.92"/>
</g>
<!-- 9&#45;&gt;16 -->
<g id="edge38" class="edge">
<title>9&#45;&gt;16</title>
<path fill="none" stroke="grey" stroke-width="2" d="M714.85,-649.03C639.32,-635.12 532.5,-615.44 470.79,-604.07"/>
<polygon fill="grey" stroke="grey" stroke-width="2" points="471.39,-600.62 460.92,-602.25 470.12,-607.51 471.39,-600.62"/>
</g>
<!-- 10&#45;&gt;9 -->
<g id="edge17" class="edge">
<title>10&#45;&gt;9</title>
<path fill="none" stroke="grey" stroke-width="2" d="M974.83,-719.97C942.41,-710.06 901.38,-697.51 867.38,-687.12"/>
<polygon fill="grey" stroke="grey" stroke-width="2" points="868.12,-683.69 857.53,-684.11 866.07,-690.38 868.12,-683.69"/>
</g>
<!-- 10&#45;&gt;17 -->
<g id="edge43" class="edge">
<title>10&#45;&gt;17</title>
<path fill="none" stroke="grey" stroke-width="2" d="M1042.67,-719.85C1094.71,-645.9 1296.55,-355.94 1296.55,-307 1296.55,-307 1296.55,-307 1296.55,-233 1296.55,-192.03 1300.66,-173.8 1272.55,-144 1244.11,-113.85 1198.1,-100.84 1162.87,-95.24"/>
<polygon fill="grey" stroke="grey" stroke-width="2" points="1163.17,-91.74 1152.78,-93.78 1162.18,-98.67 1163.17,-91.74"/>
</g>
<!-- 10&#45;&gt;21 -->
<g id="edge62" class="edge">
<title>10&#45;&gt;21</title>
<path fill="none" stroke="grey" stroke-width="2" d="M1030.55,-719.95C1030.55,-693.29 1030.55,-640.11 1030.55,-595 1030.55,-595 1030.55,-595 1030.55,-449 1030.55,-408.55 1033.02,-394.28 1011.55,-360 1004.21,-348.27 993.3,-338.11 982.36,-329.9"/>
<polygon fill="grey" stroke="grey" stroke-width="2" points="984.23,-326.94 974.05,-324.01 980.19,-332.65 984.23,-326.94"/>
</g>
<!-- 10&#45;&gt;23 -->
<g id="edge73" class="edge">
<title>10&#45;&gt;23</title>
<path fill="none" stroke="grey" stroke-width="2" d="M1022.54,-719.66C999.44,-669.61 930.83,-520.52 875.55,-396 842.36,-321.23 804.22,-232.45 785.75,-189.24"/>
<polygon fill="grey" stroke="grey" stroke-width="2" points="788.95,-187.82 781.8,-180 782.51,-190.57 788.95,-187.82"/>
</g>
<!-- 11&#45;&gt;0 -->
<g id="edge2" class="edge">
<title>11&#45;&gt;0</title>
<path fill="none" stroke="grey" stroke-width="2" d="M217.46,-359.89C181.05,-336.7 124.55,-291.59 124.55,-235 124.55,-235 124.55,-235 124.55,-161 124.55,-62.94 896.16,-27.32 1076.28,-20.34"/>
<polygon fill="grey" stroke="grey" stroke-width="2" points="1076.47,-23.84 1086.33,-19.96 1076.2,-16.84 1076.47,-23.84"/>
</g>
<!-- 11&#45;&gt;17 -->
<g id="edge51" class="edge">
<title>11&#45;&gt;17</title>
<path fill="none" stroke="grey" stroke-width="2" d="M246.96,-359.76C246.49,-315.2 252.15,-196.03 322.55,-144 382.09,-100 900.26,-92.52 1064.11,-91.26"/>
<polygon fill="grey" stroke="grey" stroke-width="2" points="1064.4,-94.75 1074.38,-91.18 1064.35,-87.76 1064.4,-94.75"/>
</g>
<!-- 11&#45;&gt;21 -->
<g id="edge66" class="edge">
<title>11&#45;&gt;21</title>
<path fill="none" stroke="grey" stroke-width="2" d="M308.71,-370.85C444.54,-357.19 769.18,-324.54 893.73,-312.01"/>
<polygon fill="grey" stroke="grey" stroke-width="2" points="894.15,-315.49 903.75,-311 893.45,-308.52 894.15,-315.49"/>
</g>
<!-- 11&#45;&gt;23 -->
<g id="edge81" class="edge">
<title>11&#45;&gt;23</title>
<path fill="none" stroke="grey" stroke-width="2" d="M254.03,-359.79C267.82,-325.81 303.54,-250.41 360.55,-216 421.69,-179.09 634.12,-167.6 728.61,-164.26"/>
<polygon fill="grey" stroke="grey" stroke-width="2" points="728.85,-167.76 738.73,-163.92 728.62,-160.76 728.85,-167.76"/>
</g>
<!-- 12 -->
<g id="node13" class="node">
<title>12</title>
<path fill="none" stroke="#56d87b" stroke-width="2" d="M310.55,-468C310.55,-468 242.55,-468 242.55,-468 236.55,-468 230.55,-462 230.55,-456 230.55,-456 230.55,-444 230.55,-444 230.55,-438 236.55,-432 242.55,-432 242.55,-432 310.55,-432 310.55,-432 316.55,-432 322.55,-438 322.55,-444 322.55,-444 322.55,-456 322.55,-456 322.55,-462 316.55,-468 310.55,-468"/>
<text text-anchor="middle" x="276.55" y="-447.5" font-family="sans" font-size="10.00">avg_muteffects</text>
</g>
<!-- 12&#45;&gt;0 -->
<g id="edge1" class="edge">
<title>12&#45;&gt;0</title>
<path fill="none" stroke="grey" stroke-width="2" d="M230.5,-437.62C204.89,-429.44 173.79,-416.21 151.55,-396 60.17,-312.95 -35.52,-245.68 34.55,-144 85.56,-69.98 135.67,-90.89 223.55,-72 390.2,-36.18 928.82,-22.77 1076.06,-19.72"/>
<polygon fill="grey" stroke="grey" stroke-width="2" points="1076.44,-23.21 1086.36,-19.51 1076.29,-16.21 1076.44,-23.21"/>
</g>
<!-- 12&#45;&gt;11 -->
<g id="edge23" class="edge">
<title>12&#45;&gt;11</title>
<path fill="none" stroke="grey" stroke-width="2" d="M269.38,-431.7C266.12,-423.81 262.18,-414.3 258.55,-405.55"/>
<polygon fill="grey" stroke="grey" stroke-width="2" points="261.7,-404 254.64,-396.1 255.23,-406.68 261.7,-404"/>
</g>
<!-- 12&#45;&gt;17 -->
<g id="edge46" class="edge">
<title>12&#45;&gt;17</title>
<path fill="none" stroke="grey" stroke-width="2" d="M230.54,-436.19C210.59,-428.1 189.17,-415.4 177.55,-396 123.47,-305.7 77.32,-282.31 287.55,-144 352.41,-101.33 896.36,-92.93 1064.34,-91.35"/>
<polygon fill="grey" stroke="grey" stroke-width="2" points="1064.42,-94.85 1074.39,-91.26 1064.36,-87.85 1064.42,-94.85"/>
</g>
<!-- 12&#45;&gt;21 -->
<g id="edge64" class="edge">
<title>12&#45;&gt;21</title>
<path fill="none" stroke="grey" stroke-width="2" d="M322.6,-434.08C325.62,-433.32 328.62,-432.62 331.55,-432 469.9,-403 521.6,-460.16 647.55,-396 666.89,-386.15 661.65,-370.67 680.55,-360 747.81,-322.04 838.28,-311.02 893.67,-307.96"/>
<polygon fill="grey" stroke="grey" stroke-width="2" points="894.11,-311.45 903.93,-307.47 893.77,-304.46 894.11,-311.45"/>
</g>
<!-- 12&#45;&gt;23 -->
<g id="edge76" class="edge">
<title>12&#45;&gt;23</title>
<path fill="none" stroke="grey" stroke-width="2" d="M290.01,-431.94C298.09,-421.61 308.52,-408.13 317.55,-396 376.34,-317.06 362.88,-267.83 446.55,-216 492.95,-187.26 650.01,-172.05 728.75,-166.07"/>
<polygon fill="grey" stroke="grey" stroke-width="2" points="729.15,-169.55 738.87,-165.32 728.63,-162.57 729.15,-169.55"/>
</g>
<!-- 13&#45;&gt;12 -->
<g id="edge26" class="edge">
<title>13&#45;&gt;12</title>
<path fill="none" stroke="grey" stroke-width="2" d="M346.56,-503.7C334.74,-494.8 320.16,-483.82 307.37,-474.2"/>
<polygon fill="grey" stroke="grey" stroke-width="2" points="309.37,-471.32 299.28,-468.1 305.16,-476.91 309.37,-471.32"/>
</g>
<!-- 13&#45;&gt;17 -->
<g id="edge42" class="edge">
<title>13&#45;&gt;17</title>
<path fill="none" stroke="grey" stroke-width="2" d="M316.99,-509.19C237.23,-487.99 89.14,-434.94 34.55,-324 -0.77,-252.22 -20.61,-201.94 34.55,-144 70.48,-106.26 857.35,-94.1 1064.14,-91.55"/>
<polygon fill="grey" stroke="grey" stroke-width="2" points="1064.43,-95.05 1074.39,-91.43 1064.35,-88.05 1064.43,-95.05"/>
</g>
<!-- 13&#45;&gt;21 -->
<g id="edge61" class="edge">
<title>13&#45;&gt;21</title>
<path fill="none" stroke="grey" stroke-width="2" d="M422.3,-505.98C496.81,-484.27 636.74,-441.69 752.55,-396 804.63,-375.46 862.7,-347.67 900.98,-328.64"/>
<polygon fill="grey" stroke="grey" stroke-width="2" points="902.89,-331.6 910.28,-324 899.77,-325.34 902.89,-331.6"/>
</g>
<!-- 13&#45;&gt;23 -->
<g id="edge72" class="edge">
<title>13&#45;&gt;23</title>
<path fill="none" stroke="grey" stroke-width="2" d="M395.48,-504C407.93,-494.68 422.14,-482.15 431.55,-468 496.74,-370.07 423.73,-293.15 512.55,-216 583.71,-154.19 630.01,-202.45 721.55,-180 724.02,-179.4 726.53,-178.74 729.06,-178.04"/>
<polygon fill="grey" stroke="grey" stroke-width="2" points="730.2,-181.36 738.82,-175.21 728.24,-174.63 730.2,-181.36"/>
</g>
<!-- 14&#45;&gt;13 -->
<g id="edge27" class="edge">
<title>14&#45;&gt;13</title>
<path fill="none" stroke="grey" stroke-width="2" d="M611.5,-583.7C565.8,-572.24 487.41,-552.57 432.26,-538.73"/>
<polygon fill="grey" stroke="grey" stroke-width="2" points="432.8,-535.26 422.25,-536.22 431.1,-542.05 432.8,-535.26"/>
</g>
<!-- 18 -->
<g id="node19" class="node">
<title>18</title>
<path fill="none" stroke="#d8bc56" stroke-width="2" d="M990.55,-396C990.55,-396 896.55,-396 896.55,-396 890.55,-396 884.55,-390 884.55,-384 884.55,-384 884.55,-372 884.55,-372 884.55,-366 890.55,-360 896.55,-360 896.55,-360 990.55,-360 990.55,-360 996.55,-360 1002.55,-366 1002.55,-372 1002.55,-372 1002.55,-384 1002.55,-384 1002.55,-390 996.55,-396 990.55,-396"/>
<text text-anchor="middle" x="943.55" y="-375.5" font-family="sans" font-size="10.00">analyze_func_scores</text>
</g>
<!-- 14&#45;&gt;18 -->
<g id="edge58" class="edge">
<title>14&#45;&gt;18</title>
<path fill="none" stroke="grey" stroke-width="2" d="M672.19,-575.85C724.84,-537.66 851.78,-445.57 911.49,-402.26"/>
<polygon fill="grey" stroke="grey" stroke-width="2" points="913.76,-404.94 919.8,-396.23 909.65,-399.27 913.76,-404.94"/>
</g>
<!-- 15&#45;&gt;11 -->
<g id="edge24" class="edge">
<title>15&#45;&gt;11</title>
<path fill="none" stroke="grey" stroke-width="2" d="M348.77,-431.88C330.93,-422.55 308.65,-410.92 289.55,-400.94"/>
<polygon fill="grey" stroke="grey" stroke-width="2" points="290.94,-397.72 280.46,-396.19 287.7,-403.92 290.94,-397.72"/>
</g>
<!-- 15&#45;&gt;17 -->
<g id="edge52" class="edge">
<title>15&#45;&gt;17</title>
<path fill="none" stroke="grey" stroke-width="2" d="M372.23,-431.63C359.05,-405.41 336.55,-353.81 336.55,-307 336.55,-307 336.55,-307 336.55,-233 336.55,-158.71 893.37,-108.44 1064.27,-94.76"/>
<polygon fill="grey" stroke="grey" stroke-width="2" points="1064.8,-98.23 1074.49,-93.95 1064.24,-91.25 1064.8,-98.23"/>
</g>
<!-- 15&#45;&gt;21 -->
<g id="edge68" class="edge">
<title>15&#45;&gt;21</title>
<path fill="none" stroke="grey" stroke-width="2" d="M422.59,-443.73C480.6,-435.82 589.65,-419.3 680.55,-396 756.6,-376.51 842.33,-345.8 894.65,-326.03"/>
<polygon fill="grey" stroke="grey" stroke-width="2" points="895.91,-329.29 904.02,-322.47 893.42,-322.75 895.91,-329.29"/>
</g>
<!-- 15&#45;&gt;23 -->
<g id="edge82" class="edge">
<title>15&#45;&gt;23</title>
<path fill="none" stroke="grey" stroke-width="2" d="M386.04,-431.93C399.22,-383.16 439.08,-244.86 474.55,-216 512.85,-184.84 654.88,-170.94 728.94,-165.7"/>
<polygon fill="grey" stroke="grey" stroke-width="2" points="729.19,-169.19 738.93,-165.01 728.71,-162.21 729.19,-169.19"/>
</g>
<!-- 16&#45;&gt;15 -->
<g id="edge34" class="edge">
<title>16&#45;&gt;15</title>
<path fill="none" stroke="grey" stroke-width="2" d="M382.39,-586.01C356.31,-579.1 323.93,-565.67 307.55,-540 298.95,-526.51 300.24,-518.23 307.55,-504 313.82,-491.79 324.36,-481.77 335.54,-473.85"/>
<polygon fill="grey" stroke="grey" stroke-width="2" points="337.71,-476.61 344.16,-468.2 333.88,-470.75 337.71,-476.61"/>
</g>
<!-- 19 -->
<g id="node20" class="node">
<title>19</title>
<path fill="none" stroke="#566bd8" stroke-width="2" d="M626.55,-396C626.55,-396 528.55,-396 528.55,-396 522.55,-396 516.55,-390 516.55,-384 516.55,-384 516.55,-372 516.55,-372 516.55,-366 522.55,-360 528.55,-360 528.55,-360 626.55,-360 626.55,-360 632.55,-360 638.55,-366 638.55,-372 638.55,-372 638.55,-384 638.55,-384 638.55,-390 632.55,-396 626.55,-396"/>
<text text-anchor="middle" x="577.55" y="-375.5" font-family="sans" font-size="10.00">analyze_prob_escape</text>
</g>
<!-- 16&#45;&gt;19 -->
<g id="edge59" class="edge">
<title>16&#45;&gt;19</title>
<path fill="none" stroke="grey" stroke-width="2" d="M434.05,-575.85C461.44,-538.28 526.83,-448.58 559.02,-404.43"/>
<polygon fill="grey" stroke="grey" stroke-width="2" points="561.93,-406.38 564.99,-396.23 556.27,-402.25 561.93,-406.38"/>
</g>
<!-- 17&#45;&gt;0 -->
<g id="edge4" class="edge">
<title>17&#45;&gt;0</title>
<path fill="none" stroke="grey" stroke-width="2" d="M1113.55,-71.7C1113.55,-63.98 1113.55,-54.71 1113.55,-46.11"/>
<polygon fill="grey" stroke="grey" stroke-width="2" points="1117.05,-46.1 1113.55,-36.1 1110.05,-46.1 1117.05,-46.1"/>
</g>
<!-- 18&#45;&gt;17 -->
<g id="edge56" class="edge">
<title>18&#45;&gt;17</title>
<path fill="none" stroke="grey" stroke-width="2" d="M981.39,-359.93C1046.05,-330.38 1172.01,-271.03 1183.55,-252 1193.8,-235.1 1183.75,-159.47 1175.55,-144 1169.49,-132.55 1159.83,-122.51 1149.93,-114.34"/>
<polygon fill="grey" stroke="grey" stroke-width="2" points="1152.05,-111.55 1142,-108.19 1147.76,-117.08 1152.05,-111.55"/>
</g>
<!-- 18&#45;&gt;21 -->
<g id="edge70" class="edge">
<title>18&#45;&gt;21</title>
<path fill="none" stroke="grey" stroke-width="2" d="M943.55,-359.7C943.55,-351.98 943.55,-342.71 943.55,-334.11"/>
<polygon fill="grey" stroke="grey" stroke-width="2" points="947.05,-334.1 943.55,-324.1 940.05,-334.1 947.05,-334.1"/>
</g>
<!-- 18&#45;&gt;23 -->
<g id="edge85" class="edge">
<title>18&#45;&gt;23</title>
<path fill="none" stroke="grey" stroke-width="2" d="M926.79,-359.97C917.2,-349.88 905.2,-336.63 895.55,-324 860.98,-278.73 862.02,-260.57 826.55,-216 818.73,-206.17 809.33,-196.14 800.68,-187.5"/>
<polygon fill="grey" stroke="grey" stroke-width="2" points="802.93,-184.79 793.34,-180.29 798.02,-189.79 802.93,-184.79"/>
</g>
<!-- 19&#45;&gt;17 -->
<g id="edge47" class="edge">
<title>19&#45;&gt;17</title>
<path fill="none" stroke="grey" stroke-width="2" d="M582.82,-359.88C597.62,-315.08 644.23,-194.35 730.55,-144 786.25,-111.52 974.01,-97.94 1064.28,-93.19"/>
<polygon fill="grey" stroke="grey" stroke-width="2" points="1064.46,-96.68 1074.27,-92.68 1064.11,-89.69 1064.46,-96.68"/>
</g>
<!-- 19&#45;&gt;21 -->
<g id="edge65" class="edge">
<title>19&#45;&gt;21</title>
<path fill="none" stroke="grey" stroke-width="2" d="M638.9,-362.87C643.52,-361.88 648.1,-360.91 652.55,-360 737.04,-342.74 835.89,-325.32 893.91,-315.38"/>
<polygon fill="grey" stroke="grey" stroke-width="2" points="894.64,-318.8 903.91,-313.67 893.46,-311.9 894.64,-318.8"/>
</g>
<!-- 19&#45;&gt;23 -->
<g id="edge77" class="edge">
<title>19&#45;&gt;23</title>
<path fill="none" stroke="grey" stroke-width="2" d="M592.56,-359.86C618.62,-330.2 674.11,-267.53 722.55,-216 731.52,-206.46 741.56,-196.15 750.4,-187.18"/>
<polygon fill="grey" stroke="grey" stroke-width="2" points="752.95,-189.57 757.5,-180.01 747.98,-184.65 752.95,-189.57"/>
</g>
<!-- 20 -->
<g id="node21" class="node">
<title>20</title>
<path fill="none" stroke="#d86e56" stroke-width="2" d="M1004.05,-252C1004.05,-252 967.05,-252 967.05,-252 961.05,-252 955.05,-246 955.05,-240 955.05,-240 955.05,-228 955.05,-228 955.05,-222 961.05,-216 967.05,-216 967.05,-216 1004.05,-216 1004.05,-216 1010.05,-216 1016.05,-222 1016.05,-228 1016.05,-228 1016.05,-240 1016.05,-240 1016.05,-246 1010.05,-252 1004.05,-252"/>
<text text-anchor="middle" x="985.55" y="-231.5" font-family="sans" font-size="10.00">subindex</text>
</g>
<!-- 20&#45;&gt;17 -->
<g id="edge48" class="edge">
<title>20&#45;&gt;17</title>
<path fill="none" stroke="grey" stroke-width="2" d="M1000.99,-215.87C1023.48,-190.92 1065.37,-144.45 1091.22,-115.77"/>
<polygon fill="grey" stroke="grey" stroke-width="2" points="1093.96,-117.96 1098.06,-108.19 1088.76,-113.27 1093.96,-117.96"/>
</g>
<!-- 20&#45;&gt;23 -->
<g id="edge78" class="edge">
<title>20&#45;&gt;23</title>
<path fill="none" stroke="grey" stroke-width="2" d="M954.64,-221.08C949.94,-219.34 945.13,-217.59 940.55,-216 900.16,-201.93 853.76,-187.24 820.3,-176.9"/>
<polygon fill="grey" stroke="grey" stroke-width="2" points="820.94,-173.44 810.35,-173.84 818.88,-180.13 820.94,-173.44"/>
</g>
<!-- 21&#45;&gt;17 -->
<g id="edge41" class="edge">
<title>21&#45;&gt;17</title>
<path fill="none" stroke="grey" stroke-width="2" d="M983.47,-301.21C1040.68,-294.86 1141.55,-279.93 1163.55,-252 1195.52,-211.41 1159.62,-150.24 1134.25,-116.17"/>
<polygon fill="grey" stroke="grey" stroke-width="2" points="1136.94,-113.93 1128.08,-108.13 1131.39,-118.19 1136.94,-113.93"/>
</g>
<!-- 21&#45;&gt;20 -->
<g id="edge60" class="edge">
<title>21&#45;&gt;20</title>
<path fill="none" stroke="grey" stroke-width="2" d="M953.93,-287.7C958.82,-279.56 964.74,-269.69 970.13,-260.7"/>
<polygon fill="grey" stroke="grey" stroke-width="2" points="973.15,-262.48 975.29,-252.1 967.14,-258.88 973.15,-262.48"/>
</g>
<!-- 21&#45;&gt;23 -->
<g id="edge71" class="edge">
<title>21&#45;&gt;23</title>
<path fill="none" stroke="grey" stroke-width="2" d="M930.94,-287.81C916.39,-268.74 891.03,-237.79 864.55,-216 850.39,-204.35 833.37,-193.63 817.96,-184.92"/>
<polygon fill="grey" stroke="grey" stroke-width="2" points="819.55,-181.81 809.11,-180.04 816.17,-187.94 819.55,-181.81"/>
</g>
<!-- 22 -->
<g id="node23" class="node">
<title>22</title>
<path fill="none" stroke="#59d856" stroke-width="2" d="M1142.55,-252C1142.55,-252 1084.55,-252 1084.55,-252 1078.55,-252 1072.55,-246 1072.55,-240 1072.55,-240 1072.55,-228 1072.55,-228 1072.55,-222 1078.55,-216 1084.55,-216 1084.55,-216 1142.55,-216 1142.55,-216 1148.55,-216 1154.55,-222 1154.55,-228 1154.55,-228 1154.55,-240 1154.55,-240 1154.55,-246 1148.55,-252 1142.55,-252"/>
<text text-anchor="middle" x="1113.55" y="-231.5" font-family="sans" font-size="10.00">make_graphs</text>
</g>
<!-- 22&#45;&gt;17 -->
<g id="edge45" class="edge">
<title>22&#45;&gt;17</title>
<path fill="none" stroke="grey" stroke-width="2" d="M1113.55,-215.87C1113.55,-191.67 1113.55,-147.21 1113.55,-118.39"/>
<polygon fill="grey" stroke="grey" stroke-width="2" points="1117.05,-118.19 1113.55,-108.19 1110.05,-118.19 1117.05,-118.19"/>
</g>
<!-- 22&#45;&gt;23 -->
<g id="edge75" class="edge">
<title>22&#45;&gt;23</title>
<path fill="none" stroke="grey" stroke-width="2" d="M1072.55,-219.76C1067.85,-218.41 1063.11,-217.13 1058.55,-216 975.35,-195.45 876.7,-178.72 820.28,-169.87"/>
<polygon fill="grey" stroke="grey" stroke-width="2" points="820.67,-166.39 810.25,-168.31 819.6,-173.3 820.67,-166.39"/>
</g>
<!-- 23&#45;&gt;17 -->
<g id="edge55" class="edge">
<title>23&#45;&gt;17</title>
<path fill="none" stroke="grey" stroke-width="2" d="M810.19,-153.64C871.07,-141.07 995.2,-115.44 1064.31,-101.17"/>
<polygon fill="grey" stroke="grey" stroke-width="2" points="1065.42,-104.51 1074.5,-99.06 1064,-97.66 1065.42,-104.51"/>
</g>
</g>
</svg>
